<?xml version="1.0" standalone="no"?>
<!DOCTYPE svg PUBLIC "-//W3C//DTD SVG 1.1//EN" "http://www.w3.org/Graphics/SVG/1.1/DTD/svg11.dtd" >
<svg xmlns="http://www.w3.org/2000/svg" xmlns:xlink="http://www.w3.org/1999/xlink" version="1.1">
<metadata>
Created by FontForge 20170731 at Tue May 16 19:58:39 2000
 By Aleksey,,,
Copyright (c) 2000 Adobe Systems Incorporated. All Rights Reserved. U.S. Patent Des. pending.
</metadata>
<defs>
<font id="MyriadPro-LightSemiExtIt" horiz-adv-x="553" >
  <font-face 
    font-family="Myriad Pro Light SemiExt"
    font-weight="300"
    font-style="italic"
    font-stretch="semi-expanded"
    units-per-em="1000"
    panose-1="2 11 4 5 3 4 3 9 2 4"
    ascent="750"
    descent="-250"
    x-height="480"
    cap-height="674"
    bbox="-125 -250 1048 863"
    underline-thickness="50"
    underline-position="-250"
    slope="-11"
    unicode-range="U+0020-FB04"
  />
<missing-glyph horiz-adv-x="500" 
d="M0 0v700h500v-700h-500zM250 395l170 255h-340zM280 350l170 -255v510zM80 50h340l-170 255zM50 605v-510l170 255z" />
    <glyph glyph-name="f_f_j" unicode="ffj" horiz-adv-x="741" 
d="M752 703l-19 -39q-40 23 -95 23q-65 0 -103.5 -50t-52.5 -129l-5 -28h263l-93 -484q-24 -123 -62 -164q-41 -44 -102 -44q-32 0 -50 6l7 38q13 -5 45 -5q42 0 69 33.5t42 112.5l90 469h-217l-84 -442h-47l84 442h-236l-84 -442h-47l84 442h-68l8 38h68l4 23
q18 105 76 165q48 48 116 48q42 0 75 -23l-19 -38q-31 20 -63 20q-48 0 -79 -31q-41 -41 -59 -142l-4 -22h237l5 29q16 100 72.5 159.5t143.5 59.5q30 0 59.5 -7.5t40.5 -17.5z" />
    <glyph glyph-name="f_j" unicode="fj" horiz-adv-x="458" 
d="M469 703l-19 -39q-40 23 -95 23q-65 0 -103.5 -50t-52.5 -129l-5 -28h263l-93 -484q-24 -123 -62 -164q-41 -44 -102 -44q-32 0 -49 6l7 38q13 -5 44 -5q42 0 69 33.5t42 112.5l90 469h-217l-83 -442h-47l84 442h-68l8 38h68l5 29q16 100 72.5 159.5t143.5 59.5
q30 0 59.5 -7.5t40.5 -17.5z" />
    <glyph glyph-name="ff" unicode="ff" horiz-adv-x="558" 
d="M687 713l-15 -38q-21 12 -55 12q-58 0 -89 -48t-47 -137l-4 -22h123l-8 -38h-123l-84 -442h-47l84 442h-236l-84 -442h-47l84 442h-68l8 38h68l4 23q21 115 76 170q45 43 105 43q33 0 61 -15l-17 -38q-21 12 -48 12q-99 0 -130 -173l-4 -22h236l4 23q23 129 82 184
q44 41 103 41q47 0 68 -15z" />
    <glyph glyph-name="fi" unicode="fi" horiz-adv-x="493" 
d="M102 0h-46l84 442h-68l8 38h68l5 29q19 101 74 160t142 59q30 0 59.5 -7.5t40.5 -17.5l-19 -39q-40 23 -95 23q-65 0 -103.5 -50t-52.5 -129l-5 -28h263l-92 -480h-47l84 442h-216z" />
    <glyph glyph-name="fl" unicode="fl" horiz-adv-x="493" 
d="M102 0h-46l84 442h-68l8 38h68l3 18q24 127 96 184q57 46 138 46q78 0 114 -26l-134 -702h-47l129 672q-28 15 -78 15q-71 0 -113 -49.5t-57 -131.5l-5 -26h121l-8 -38h-121z" />
    <glyph glyph-name="ffi" unicode="ffi" horiz-adv-x="776" 
d="M752 703l-19 -39q-40 23 -95 23q-65 0 -103.5 -50t-52.5 -129l-5 -28h263l-92 -480h-47l84 442h-216l-84 -442h-47l85 442h-237l-84 -442h-47l84 442h-68l8 38h68l4 23q18 105 76 165q48 48 116 48q40 0 76 -23l-20 -38q-31 20 -63 20q-48 0 -79 -31q-41 -41 -59 -142
l-4 -22h237l5 29q16 100 72.5 159.5t143.5 59.5q30 0 59.5 -7.5t40.5 -17.5z" />
    <glyph glyph-name="ffl" unicode="ffl" horiz-adv-x="776" 
d="M424 694l-21 -37q-29 18 -64 18q-47 0 -80 -33q-44 -44 -61 -140l-4 -22h237l3 18q20 124 96 184q57 46 138 46q78 0 114 -26l-134 -702h-47l129 672q-28 15 -78 15q-71 0 -113 -49.5t-57 -131.5l-5 -26h121l-8 -38h-121l-84 -442h-47l85 442h-237l-84 -442h-47l84 442
h-68l8 38h68l4 23q17 104 77 164q49 49 118 49q43 0 78 -22z" />
    <glyph glyph-name=".notdef" horiz-adv-x="500" 
d="M0 0v700h500v-700h-500zM250 395l170 255h-340zM280 350l170 -255v510zM80 50h340l-170 255zM50 605v-510l170 255z" />
    <glyph glyph-name=".null" horiz-adv-x="0" 
 />
    <glyph glyph-name="nonmarkingreturn" horiz-adv-x="333" 
 />
    <glyph glyph-name="space" unicode=" " horiz-adv-x="190" 
 />
    <glyph glyph-name="space" unicode="&#xa0;" horiz-adv-x="190" 
 />
    <glyph glyph-name="exclam" unicode="!" horiz-adv-x="225" 
d="M126 180h-41l87 494h59zM76 -12h-1q-18 0 -29.5 13.5t-11.5 32.5q0 20 12 33.5t31 13.5t30.5 -13.5t11.5 -33.5q0 -19 -12 -32.5t-31 -13.5z" />
    <glyph glyph-name="quotedbl" unicode="&#x22;" horiz-adv-x="260" 
d="M132 695h59l-56 -222h-32zM254 695h59l-56 -222h-32z" />
    <glyph glyph-name="numbersign" unicode="#" horiz-adv-x="496" 
d="M192 247h96l51 162h-96zM114 0h-41l66 209h-91l7 38h96l51 162h-95l7 38h100l65 203h40l-64 -203h96l65 203h40l-64 -203h91l-7 -38h-96l-51 -162h96l-7 -38h-101l-66 -209h-41l66 209h-96z" />
    <glyph glyph-name="dollar" unicode="$" horiz-adv-x="496" 
d="M203 -85h-40l20 105q-29 0 -65 11.5t-58 27.5l17 38q58 -39 124 -39q64 0 110.5 38.5t46.5 100.5q0 80 -91 122q-71 33 -99.5 69.5t-28.5 81.5q0 63 50 112.5t120 53.5l21 107h41l-21 -107q68 -3 101 -31l-17 -36q-1 0 -15 7.5t-23 10.5t-28.5 7t-40.5 4
q-64 0 -102.5 -35.5t-38.5 -87.5q0 -38 20.5 -63t81.5 -55q116 -58 116 -149q0 -75 -49.5 -126t-131.5 -62z" />
    <glyph glyph-name="percent" unicode="%" horiz-adv-x="740" 
d="M253 662h1q55 0 81.5 -38t26.5 -88q0 -119 -48.5 -196.5t-123.5 -77.5q-53 0 -82.5 38.5t-29.5 104.5q0 98 50 177.5t125 79.5zM247 628h-1q-51 0 -88.5 -68.5t-37.5 -160.5q0 -103 77 -103q51 0 87 70t36 161q0 40 -16 70.5t-57 30.5zM156 -12h-45l511 674h45zM595 395
h1q55 0 81.5 -38t26.5 -88q0 -119 -48.5 -196.5t-123.5 -77.5q-53 0 -82.5 38.5t-29.5 104.5q0 98 50 177.5t125 79.5zM589 361h-1q-51 0 -88.5 -68.5t-37.5 -160.5q0 -103 77 -103q51 0 87 70t36 161q0 40 -16 70.5t-57 30.5z" />
    <glyph glyph-name="ampersand" unicode="&#x26;" horiz-adv-x="566" 
d="M518 0h-56q-18 20 -57 73q-91 -85 -209 -85q-85 0 -131 48t-46 117q0 74 53 131t125 89v4q-40 74 -40 130q0 73 49 126t117 53q61 0 90.5 -36.5t29.5 -88.5q0 -124 -182 -202v-3q77 -128 152 -222q62 70 112 219h46q-63 -177 -136 -250q55 -74 83 -103zM207 26h1
q100 0 175 78q-107 146 -166 241q-27 -14 -45.5 -26t-46.5 -35.5t-43.5 -55.5t-15.5 -70q0 -57 37 -94.5t104 -37.5zM320 649h-1q-48 0 -82.5 -39t-34.5 -100q0 -60 37 -122q84 38 121.5 77.5t37.5 93.5q0 36 -18.5 63t-59.5 27z" />
    <glyph glyph-name="quotesingle" unicode="'" horiz-adv-x="160" 
d="M143 695h59l-56 -222h-32z" />
    <glyph glyph-name="parenleft" unicode="(" horiz-adv-x="270" 
d="M301 692h49q-229 -238 -229 -542q0 -125 72 -270h-40q-39 68 -58 132.5t-19 148.5q0 289 225 531z" />
    <glyph glyph-name="parenright" unicode=")" horiz-adv-x="270" 
d="M-3 -120h-49q229 243 229 544q0 125 -72 268h40q39 -67 58 -131t19 -148q0 -285 -225 -533z" />
    <glyph glyph-name="asterisk" unicode="*" horiz-adv-x="400" 
d="M340 686l41 -26l-105 -123v-2l149 11l-12 -47l-141 13v-3l76 -119l-48 -27l-52 134h-2l-86 -134l-35 27l104 120v3l-146 -14l10 47l140 -10v2l-76 121l47 27l55 -133h2z" />
    <glyph glyph-name="plus" unicode="+" horiz-adv-x="596" 
d="M291 532h40v-246h223v-38h-223v-248h-40v248h-223v38h223v246z" />
    <glyph glyph-name="comma" unicode="," horiz-adv-x="185" 
d="M8 -121l-40 -5q19 34 49 101t44 111l65 10q-22 -52 -61 -122.5t-57 -94.5z" />
    <glyph glyph-name="hyphen" unicode="-" horiz-adv-x="300" 
d="M56 304h225l-8 -43h-225z" />
    <glyph glyph-name="hyphen" unicode="&#xad;" horiz-adv-x="300" 
d="M56 304h225l-8 -43h-225z" />
    <glyph glyph-name="period" unicode="." horiz-adv-x="185" 
d="M67 -12h-1q-18 0 -29.5 13.5t-11.5 32.5q0 20 12 33.5t31 13.5t30.5 -13.5t11.5 -33.5q0 -19 -12 -32.5t-31 -13.5z" />
    <glyph glyph-name="slash" unicode="/" horiz-adv-x="342" 
d="M-26 -40h-46l466 726h49z" />
    <glyph glyph-name="zero" unicode="0" horiz-adv-x="496" 
d="M213 -12h-1q-161 0 -161 226q0 121 40 225t105.5 163.5t140.5 59.5q83 0 120.5 -57.5t37.5 -142.5q0 -124 -35.5 -232t-101 -175t-145.5 -67zM218 27h1q66 0 120 71t81 166.5t27 185.5q0 173 -115 173q-60 0 -114 -57.5t-86.5 -154t-32.5 -203.5q0 -33 5 -61.5t17 -57
t36.5 -45.5t60.5 -17z" />
    <glyph glyph-name="one" unicode="1" horiz-adv-x="496" 
d="M193 0l115 597h-2l-96 -52l-14 37l122 68h45l-124 -650h-46z" />
    <glyph glyph-name="two" unicode="2" horiz-adv-x="496" 
d="M393 0h-390l7 35l73 60q194 159 266 243t72 170q0 18 -5 35.5t-16.5 36t-35.5 30t-58 11.5q-76 0 -147 -58l-18 35q36 30 83 47t88 17q46 0 79 -15t49.5 -39.5t23.5 -48t7 -48.5q0 -94 -81.5 -190.5t-254.5 -232.5l-58 -46v-2h324z" />
    <glyph glyph-name="three" unicode="3" horiz-adv-x="496" 
d="M25 34l21 36q63 -41 127 -41q96 0 144 54.5t48 118.5q0 66 -44.5 98t-108.5 32h-44l8 40h47q33 0 72.5 14.5t73.5 51t34 84.5q0 46 -26.5 72.5t-79.5 26.5q-74 0 -131 -45l-19 36q75 50 153 50q82 0 117.5 -41.5t35.5 -93.5q0 -62 -44.5 -109t-104.5 -64v-2
q57 -14 84.5 -56.5t27.5 -94.5q0 -86 -68.5 -149.5t-178.5 -63.5q-50 0 -89 14.5t-55 31.5z" />
    <glyph glyph-name="four" unicode="4" horiz-adv-x="496" 
d="M327 0h-45l36 191h-306l7 32l396 427h36l-80 -419h103l-8 -40h-103zM80 231h246l53 279q12 58 16 73l-3 1q-7 -9 -25 -36t-30 -39l-257 -276v-2z" />
    <glyph glyph-name="five" unicode="5" horiz-adv-x="496" 
d="M489 650l-8 -42h-239l-64 -203q21 3 41 3q52 0 100 -20t71 -61.5t23 -85.5q0 -116 -77 -184.5t-179 -68.5q-41 0 -80 12.5t-57 26.5l20 37q55 -35 131 -35q79 0 136.5 59t57.5 137q0 142 -164 142q-16 0 -78 -4l89 287h277z" />
    <glyph glyph-name="six" unicode="6" horiz-adv-x="496" 
d="M471 662l-7 -45q-47 0 -83 -9q-92 -24 -167 -102.5t-112 -189.5h2q31 49 86.5 81t107.5 32q83 0 124.5 -51t41.5 -128q0 -99 -72 -180.5t-171 -81.5q-88 0 -134 57t-46 153q0 112 54 211.5t123 153.5q86 69 178 90q37 9 75 9zM227 28h1q74 0 131 66.5t57 155.5
q0 67 -33.5 102.5t-95.5 35.5q-50 0 -99.5 -31.5t-83.5 -85.5q-11 -16 -12 -32q-4 -24 -4 -51q0 -74 35.5 -117t103.5 -43z" />
    <glyph glyph-name="seven" unicode="7" horiz-adv-x="496" 
d="M153 650h380l-7 -39q-46 -68 -188.5 -281.5t-220.5 -329.5h-51q46 69 188 280.5t219 326.5l-1 3h-327z" />
    <glyph glyph-name="eight" unicode="8" horiz-adv-x="496" 
d="M321 662h1q70 0 115.5 -40t45.5 -108q0 -111 -139 -172v-4q107 -51 107 -157q0 -90 -67 -141.5t-154 -51.5q-91 0 -145 46.5t-54 117.5q0 72 46.5 122.5t118.5 75.5v4q-76 48 -76 128q0 75 58.5 127.5t142.5 52.5zM227 26h1q76 0 125.5 41.5t49.5 108.5q0 57 -35 93.5
t-116 59.5q-73 -15 -123 -58t-50 -116q0 -51 38.5 -90t109.5 -39zM312 624h-1q-61 0 -103.5 -41.5t-42.5 -95.5q0 -93 121 -127q64 15 106.5 54.5t42.5 94.5q0 44 -27.5 79.5t-95.5 35.5z" />
    <glyph glyph-name="nine" unicode="9" horiz-adv-x="496" 
d="M69 -12l8 44q39 -2 72 5q85 15 159 85q83 76 130 204h-4q-38 -47 -86.5 -71.5t-96.5 -24.5q-81 0 -120.5 53t-39.5 116q0 102 71.5 182.5t168.5 80.5q86 0 127 -57.5t41 -144.5q0 -121 -59.5 -228.5t-123.5 -157.5q-77 -61 -165 -79q-43 -9 -82 -7zM326 622h-1
q-74 0 -130 -64t-56 -156q0 -54 30.5 -92.5t91.5 -38.5q51 0 96 27.5t76 74.5q11 16 13 28q6 34 6 66q0 72 -30.5 113.5t-95.5 41.5z" />
    <glyph glyph-name="colon" unicode=":" horiz-adv-x="185" 
d="M137 353h-1q-18 0 -29.5 13.5t-11.5 32.5q0 20 12 33.5t31 13.5t30.5 -13.5t11.5 -33.5q0 -19 -12 -32.5t-31 -13.5zM67 -12h-1q-18 0 -29.5 13.5t-11.5 32.5q0 20 12 33.5t31 13.5t30.5 -13.5t11.5 -33.5q0 -19 -12 -32.5t-31 -13.5z" />
    <glyph glyph-name="semicolon" unicode=";" horiz-adv-x="185" 
d="M8 -121l-40 -5q19 34 49 101t44 111l65 10q-22 -52 -61 -122.5t-57 -94.5zM144 353h-1q-18 0 -29.5 13.5t-11.5 32.5q0 20 12 33.5t31 13.5t30.5 -13.5t11.5 -33.5q0 -19 -12 -32.5t-31 -13.5z" />
    <glyph glyph-name="less" unicode="&#x3c;" horiz-adv-x="596" 
d="M101 250v32l424 250v-45l-377 -220v-2l377 -220v-45z" />
    <glyph glyph-name="equal" unicode="=" horiz-adv-x="596" 
d="M556 347h-486v38h486v-38zM556 155h-486v38h486v-38z" />
    <glyph glyph-name="greater" unicode="&#x3e;" horiz-adv-x="596" 
d="M531 282v-32l-424 -250v45l377 220v2l-377 220v45z" />
    <glyph glyph-name="question" unicode="?" horiz-adv-x="370" 
d="M180 177h-45q2 22 2 31q7 87 109 186q89 87 89 161q0 36 -20.5 62t-71.5 26q-54 0 -103 -29l-14 38q61 34 125 34q71 0 102.5 -39t31.5 -81q0 -54 -26.5 -100.5t-81.5 -100.5q-84 -81 -92 -152q-1 -12 -5 -36zM129 -12h-1q-18 0 -29.5 13.5t-11.5 32.5q0 20 12 33.5
t31 13.5t30.5 -13.5t11.5 -33.5q0 -19 -12 -32.5t-31 -13.5z" />
    <glyph glyph-name="at" unicode="@" horiz-adv-x="749" 
d="M481 266l23 113q-31 12 -73 12q-80 0 -137.5 -56.5t-57.5 -140.5q0 -38 23 -64t66 -26q54 0 100 53.5t56 108.5zM522 -25l16 -37q-72 -44 -179 -44q-142 0 -233 90t-91 232q0 75 25.5 142.5t72 119.5t118.5 83t158 31q141 0 227.5 -88t86.5 -221q0 -97 -53.5 -157
t-122.5 -60q-33 0 -56 25.5t-18 74.5h-4q-59 -100 -163 -100q-45 0 -79.5 36.5t-34.5 92.5q0 98 72.5 166t172.5 68q63 0 115 -22l-34 -167q-28 -133 38 -135q46 -2 83.5 46.5t37.5 126.5q0 122 -74.5 199.5t-201.5 77.5q-137 0 -229 -91.5t-92 -242.5q0 -127 79 -207.5
t204 -80.5q96 0 159 42z" />
    <glyph glyph-name="A" unicode="A" horiz-adv-x="578" 
d="M438 238h-286l-134 -238h-48l386 674h46l126 -674h-46zM177 278h253l-43 237q-13 70 -17 108h-2q-44 -85 -55 -105z" />
    <glyph glyph-name="B" unicode="B" horiz-adv-x="516" 
d="M49 2l126 663q70 14 136 14q116 0 163 -59q27 -34 27 -91q0 -62 -47 -110t-108 -61v-3q48 -12 84 -49.5t35 -101.5q0 -46 -21.5 -86t-52.5 -65q-74 -58 -210 -58q-83 0 -132 7zM216 633l-49 -257h82q87 0 145 42.5t58 113.5q0 109 -149 109q-63 0 -87 -8zM159 338
l-56 -298q35 -5 85 -5q44 0 82 8t72 26.5t54 54.5t20 85q0 63 -47.5 96t-111.5 33h-98z" />
    <glyph glyph-name="C" unicode="C" horiz-adv-x="604" 
d="M535 67l11 -39q-92 -40 -202 -40q-135 0 -213 76.5t-78 212.5q0 85 33.5 164t94.5 135q120 110 288 110q63 0 110 -13.5t63 -29.5l-21 -36q-56 39 -168 39q-65 0 -129.5 -26t-113.5 -72q-51 -48 -80 -118t-29 -147q0 -51 13 -94.5t40.5 -81t78.5 -58.5t120 -21
q110 0 182 39z" />
    <glyph glyph-name="D" unicode="D" horiz-adv-x="698" 
d="M49 0l126 665q84 14 180 14q205 0 285 -112q49 -63 50 -168q0 -83 -34 -162t-101 -137q-124 -105 -334 -105q-98 0 -172 5zM215 630l-112 -589q48 -6 122 -6q201 0 310 104q106 100 106 253q0 51 -13.5 93t-45 78t-91 56.5t-143.5 20.5q-88 0 -133 -10z" />
    <glyph glyph-name="E" unicode="E" horiz-adv-x="481" 
d="M439 376l-8 -40h-272l-56 -296h306l-8 -40h-353l129 674h336l-8 -40h-289l-49 -258h272z" />
    <glyph glyph-name="F" unicode="F" horiz-adv-x="480" 
d="M48 0l129 674h336l-8 -40h-289l-51 -267h262l-8 -40h-262l-62 -327h-47z" />
    <glyph glyph-name="G" unicode="G" horiz-adv-x="655" 
d="M615 332l-56 -300q-86 -39 -198 -39q-167 0 -245 97q-63 77 -63 196q0 76 33 153t93 132q123 110 293 110q64 0 110.5 -12.5t63.5 -25.5l-19 -39q-66 37 -167 37q-150 0 -259 -109q-47 -48 -73.5 -113.5t-26.5 -129.5q0 -118 66 -187t208 -69q81 0 142 28l44 231h-174
l7 40h221z" />
    <glyph glyph-name="H" unicode="H" horiz-adv-x="664" 
d="M177 674h47l-57 -296h394l57 296h47l-129 -674h-47l64 338h-394l-64 -338h-47z" />
    <glyph glyph-name="I" unicode="I" horiz-adv-x="223" 
d="M177 674h47l-129 -674h-47z" />
    <glyph glyph-name="J" unicode="J" horiz-adv-x="376" 
d="M251 216l87 458h47l-87 -459q-22 -118 -73.5 -172.5t-144.5 -54.5q-73 0 -106 21l13 40q38 -19 102 -19t103.5 41.5t58.5 144.5z" />
    <glyph glyph-name="K" unicode="K" horiz-adv-x="508" 
d="M48 0l129 674h47l-66 -348l6 1q15 17 42.5 43t30.5 29l293 275h60l-311 -291l209 -383h-52l-193 354l-96 -84l-52 -270h-47z" />
    <glyph glyph-name="L" unicode="L" horiz-adv-x="450" 
d="M48 0l129 674h47l-122 -634h307l-8 -40h-353z" />
    <glyph glyph-name="M" unicode="M" horiz-adv-x="818" 
d="M710 0h-46l49 403q19 156 33 222h-3q-83 -158 -108 -200l-252 -425h-37l-77 407q-17 91 -33 218h-2q0 -1 -21.5 -94t-31.5 -128l-108 -403h-46l183 674h54l87 -478q17 -92 24 -139h2q5 9 17.5 33t27 50.5t28.5 49.5l283 484h56z" />
    <glyph glyph-name="N" unicode="N" horiz-adv-x="674" 
d="M94 0h-46l129 674h43l233 -470q43 -86 66 -155l2 2q3 68 26 194l82 429h46l-129 -674h-41l-227 463q-54 110 -70 159l-3 -2q-11 -92 -30 -193z" />
    <glyph glyph-name="O" unicode="O" horiz-adv-x="721" 
d="M337 -12h-1q-137 0 -210 83t-73 208q0 85 33.5 165.5t94.5 140.5q46 46 113 73.5t135 27.5q74 0 130.5 -24t89 -66t48.5 -92.5t16 -108.5q0 -178 -121 -301q-106 -106 -255 -106zM342 28h1q124 0 215 93q107 107 107 273q0 34 -5.5 65.5t-22 66.5t-42.5 61t-70.5 42.5
t-102.5 16.5q-120 0 -212 -92q-51 -51 -80 -122t-29 -148q0 -111 60 -183.5t181 -72.5z" />
    <glyph glyph-name="P" unicode="P" horiz-adv-x="516" 
d="M48 0l128 665q65 14 141 14q122 0 172 -61q34 -43 34 -110q0 -51 -23.5 -96t-56.5 -71q-79 -63 -212 -63q-47 0 -82 6l-54 -284h-47zM215 630l-58 -304q38 -8 83 -8q105 0 170.5 51t65.5 139q0 68 -46 100t-121 32q-64 0 -94 -10z" />
    <glyph glyph-name="Q" unicode="Q" horiz-adv-x="721" 
d="M641 -34l-18 -43q-135 23 -256 53q-46 12 -54 12q-108 6 -184 79t-76 212q0 84 33.5 164.5t92.5 139.5q47 47 114 75t136 28q74 0 130.5 -24t89 -66t48.5 -92.5t16 -108.5q0 -83 -30 -160.5t-87 -134.5q-37 -37 -86 -65t-91 -35v-4q169 -25 222 -30zM335 27h1
q127 0 219 90q52 52 81 124.5t29 152.5q0 34 -5.5 65.5t-22 66.5t-42.5 61t-70.5 42.5t-102.5 16.5q-120 0 -209 -89q-52 -52 -82 -124t-30 -149q0 -109 57 -183t177 -74z" />
    <glyph glyph-name="R" unicode="R" horiz-adv-x="527" 
d="M48 0l127 665q65 14 139 14q117 0 166 -60q35 -41 35 -99q0 -70 -52 -124.5t-120 -69.5v-2q76 -20 85 -136q14 -162 21 -188h-50q-8 34 -15 163q-7 147 -120 147h-110l-59 -310h-47zM216 631l-54 -282h98q94 0 150 49.5t56 116.5q0 64 -44 95t-117 31q-57 0 -89 -10z" />
    <glyph glyph-name="S" unicode="S" horiz-adv-x="477" 
d="M27 40l20 37q68 -49 149 -49q71 0 125.5 41t54.5 115q0 45 -26 79t-88 64q-79 38 -112.5 79.5t-33.5 90.5q0 85 63.5 137t151.5 52q44 0 82.5 -13t56.5 -28l-21 -36q-57 38 -124 38q-71 0 -117 -42t-46 -94q0 -49 25.5 -79t94.5 -64q75 -36 107.5 -78t32.5 -107
q0 -76 -61.5 -135.5t-174.5 -59.5q-42 0 -89.5 15t-69.5 37z" />
    <glyph glyph-name="T" unicode="T" horiz-adv-x="480" 
d="M172 0l121 634h-237l8 40h521l-8 -40h-237l-121 -634h-47z" />
    <glyph glyph-name="U" unicode="U" horiz-adv-x="659" 
d="M177 674h47l-74 -389q-9 -47 -9 -89q0 -85 43.5 -126t116.5 -41q88 0 150 62.5t87 193.5l75 389h47l-77 -399q-29 -149 -107.5 -218t-182.5 -69q-86 0 -142.5 51t-56.5 157q0 49 9 94z" />
    <glyph glyph-name="V" unicode="V" horiz-adv-x="525" 
d="M230 0h-48l-102 674h47l75 -514q15 -103 15 -110h3q1 1 21 44t46 88l276 492h51z" />
    <glyph glyph-name="W" unicode="W" horiz-adv-x="865" 
d="M196 0h-49l-47 674h47l29 -472q1 -9 6 -151h2q14 35 68 143l244 480h48l30 -436q10 -144 10 -187h2q25 71 65 150l237 473h49l-342 -674h-48l-32 440q-8 104 -3 188h-3q-31 -85 -65 -149z" />
    <glyph glyph-name="X" unicode="X" horiz-adv-x="530" 
d="M479 0h-50l-88 187q-13 27 -55 120h-2q-8 -9 -38 -46.5t-53 -65.5l-160 -195h-56l290 342l-149 332h50l91 -209q7 -17 16 -37.5t15 -33.5t9 -20h2q9 10 35.5 42.5t38.5 46.5l180 211h57l-293 -332z" />
    <glyph glyph-name="Y" unicode="Y" horiz-adv-x="515" 
d="M229 0h-47l53 277l-146 397h50l91 -256q28 -80 34 -106h2q35 53 78 111l188 251h53l-304 -399z" />
    <glyph glyph-name="Z" unicode="Z" horiz-adv-x="560" 
d="M-13 0l6 33l548 598l-1 3h-394l8 40h458l-7 -34l-546 -597l2 -3h437l-8 -40h-503z" />
    <glyph glyph-name="bracketleft" unicode="[" horiz-adv-x="270" 
d="M206 -111h-170l152 797h170l-7 -37h-127l-138 -723h127z" />
    <glyph glyph-name="backslash" unicode="\" horiz-adv-x="338" 
d="M316 -40h-45l-195 726h44z" />
    <glyph glyph-name="bracketright" unicode="]" horiz-adv-x="270" 
d="M93 686h170l-152 -797h-170l7 37h127l138 723h-127z" />
    <glyph glyph-name="asciicircum" unicode="^" horiz-adv-x="596" 
d="M526 196h-43l-174 409h-2l-174 -409h-43l197 454l43 -1z" />
    <glyph glyph-name="underscore" unicode="_" horiz-adv-x="500" 
d="M-39 -75h500l-10 -50h-500z" />
    <glyph glyph-name="grave" unicode="`" horiz-adv-x="400" 
d="M179 682h69l54 -140h-33z" />
    <glyph glyph-name="a" unicode="a" 
d="M450 0h-45q-3 42 15 157h-2q-82 -169 -226 -169q-70 0 -110.5 47t-40.5 114q0 137 101 240t247 103q70 0 127 -15l-45 -240q-27 -143 -21 -237zM434 286l29 156q-26 10 -81 10q-117 0 -205 -85.5t-88 -212.5q0 -22 5 -42.5t16.5 -40.5t35 -32t56.5 -12q73 0 142.5 76
t89.5 183z" />
    <glyph glyph-name="b" unicode="b" 
d="M175 716h47l-73 -356l2 -1q37 64 92 98.5t115 34.5q84 0 124 -55t40 -133q0 -76 -37.5 -148t-110 -120t-160.5 -48q-152 0 -152 131q0 29 8 73zM120 213l-5 -22q-7 -31 -7 -71q0 -93 108 -93q77 0 138 43.5t90.5 106.5t29.5 130q0 59 -31 102t-95 43q-73 0 -138.5 -67
t-89.5 -172z" />
    <glyph glyph-name="c" unicode="c" horiz-adv-x="463" 
d="M385 65l14 -39q-73 -38 -164 -38q-96 0 -144 54t-48 127q0 131 88 227t213 96q39 0 75.5 -11t46.5 -20l-18 -39q-52 27 -111 27q-106 0 -176 -83t-70 -188q0 -68 38 -109t114 -41q73 0 142 37z" />
    <glyph glyph-name="d" unicode="d" 
d="M515 716h47l-115 -600q-14 -79 -18 -116h-43l20 115h-2q-86 -127 -206 -127q-79 0 -118 53t-39 128q0 132 95 227.5t224 95.5q70 0 111 -19zM427 249l36 182q-44 21 -106 21q-110 0 -189 -80.5t-79 -200.5q0 -25 4.5 -47t16.5 -45.5t37.5 -37.5t62.5 -14q68 0 134.5 67.5
t82.5 154.5z" />
    <glyph glyph-name="e" unicode="e" horiz-adv-x="460" 
d="M373 65l14 -37q-63 -40 -162 -40q-92 0 -138 57t-46 138q0 116 80.5 212.5t188.5 96.5q68 0 103.5 -33.5t35.5 -81.5q0 -49 -28.5 -81t-83 -46.5t-111.5 -19.5t-133 -3q-6 -22 -3.5 -57t12.5 -59q34 -83 129 -83q78 0 142 37zM401 373v1q0 38 -27.5 58t-71.5 20
q-70 0 -126.5 -57.5t-76.5 -128.5q66 -1 116 2.5t94.5 14.5t68 33.5t23.5 56.5z" />
    <glyph glyph-name="f" unicode="f" horiz-adv-x="275" 
d="M102 0h-47l84 442h-68l8 38h68l4 23q23 129 82 184q44 41 103 41q47 0 68 -15l-15 -38q-21 12 -55 12q-58 0 -89 -48t-47 -137l-4 -22h123l-8 -38h-123z" />
    <glyph glyph-name="g" unicode="g" 
d="M14 -172l18 38q58 -39 145 -39q166 0 214 212l21 93h-3q-34 -62 -89 -97t-119 -35q-78 0 -119 53.5t-41 117.5q0 133 92.5 227t221.5 94q39 0 85.5 -12t73.5 -26l-73 -390q-30 -158 -102 -221q-62 -55 -173 -55q-100 0 -152 40zM431 264l31 163q-50 25 -113 25
q-111 0 -185.5 -81.5t-74.5 -192.5q0 -23 5 -44.5t18 -44t39.5 -36.5t64.5 -14q69 0 134 70t81 155z" />
    <glyph glyph-name="h" unicode="h" horiz-adv-x="567" 
d="M95 0h-47l137 716h47l-68 -344h2q34 55 87 87.5t118 32.5q18 0 37 -5t42 -18.5t38 -43.5t15 -73q0 -45 -7 -80l-52 -272h-47l52 272q7 35 7 72q0 47 -26 77t-79 30q-63 0 -129 -58.5t-82 -146.5z" />
    <glyph glyph-name="i" unicode="i" horiz-adv-x="223" 
d="M95 0h-47l92 480h47zM189 581h-1q-16 0 -26 12.5t-10 29.5t10.5 29.5t27.5 12.5t27 -12t11 -30q-1 -17 -11 -29.5t-28 -12.5z" />
    <glyph glyph-name="j" unicode="j" horiz-adv-x="208" 
d="M135 480h47l-93 -484q-24 -123 -62 -164q-41 -44 -102 -44q-33 0 -50 6l7 38q13 -5 45 -5q42 0 69 33.5t42 112.5zM179 581h-1q-16 0 -26 12.5t-10 29.5t10.5 29.5t27.5 12.5t27 -12t11 -30q-1 -17 -11 -29.5t-28 -12.5z" />
    <glyph glyph-name="k" unicode="k" horiz-adv-x="444" 
d="M95 0h-47l137 716h47l-90 -469h2q16 17 51 47l216 186h58l-227 -197l164 -283h-51l-149 257l-74 -59z" />
    <glyph glyph-name="l" unicode="l" horiz-adv-x="223" 
d="M95 0h-47l137 716h47z" />
    <glyph glyph-name="m" unicode="m" horiz-adv-x="873" 
d="M95 0h-47l69 364q11 54 19 116h44l-17 -102h3q36 54 85 84t104 30q57 0 88.5 -32.5t34.5 -93.5q70 123 203 126q18 0 38 -5.5t42 -19t36 -42t14 -68.5q0 -42 -7 -81l-53 -276h-47l52 274q7 37 7 62q0 56 -23.5 85.5t-78.5 29.5q-59 0 -116.5 -52.5t-73.5 -138.5l-48 -260
h-47l55 284q6 33 6 56q0 111 -103 111q-57 0 -118 -59.5t-75 -140.5z" />
    <glyph glyph-name="n" unicode="n" horiz-adv-x="567" 
d="M95 0h-47l69 364q11 54 19 116h44l-16 -110h2q32 55 86.5 88.5t116.5 33.5q15 0 30 -2.5t34.5 -12t34.5 -24.5t25.5 -43.5t10.5 -66.5q0 -27 -9 -77l-51 -266h-47l52 273q7 42 7 63q0 115 -107 115q-61 0 -127.5 -59.5t-83.5 -155.5z" />
    <glyph glyph-name="o" unicode="o" 
d="M249 -12h-1q-96 0 -150 62t-54 146q0 126 79.5 211t192.5 85q102 0 154 -64t52 -154q0 -111 -78.5 -198.5t-194.5 -87.5zM252 27h1q87 0 154 71t67 178q0 27 -8 55.5t-25.5 57t-50.5 46.5t-76 18q-94 0 -158 -74t-64 -181q0 -75 45.5 -123t114.5 -48z" />
    <glyph glyph-name="p" unicode="p" 
d="M45 -200h-47l100 525q17 89 26 155h45l-18 -110h2q38 57 92 89.5t112 32.5q82 0 123.5 -54t41.5 -127q0 -133 -92 -228t-213 -95q-78 0 -131 24h-2zM120 197l-26 -139q43 -31 127 -31q98 0 175 79.5t77 201.5q0 33 -11 64t-41.5 55.5t-77.5 24.5q-66 0 -133 -66.5
t-90 -188.5z" />
    <glyph glyph-name="q" unicode="q" 
d="M387 -200h-47l58 304h-2q-33 -51 -88 -83.5t-110 -32.5q-80 0 -118.5 54.5t-38.5 125.5q0 131 93.5 227.5t217.5 96.5q103 0 158 -38zM427 252l32 175q-40 25 -112 25q-103 0 -180.5 -80.5t-77.5 -201.5q0 -67 31 -105t80 -38q79 0 145 67.5t82 157.5z" />
    <glyph glyph-name="r" unicode="r" horiz-adv-x="308" 
d="M95 0h-47l62 325q17 89 26 155h43q-12 -74 -19 -112h3q25 56 64 90t87 34q17 0 26 -3l-9 -46q-11 3 -29 3q-46 0 -97 -63.5t-69 -162.5z" />
    <glyph glyph-name="s" unicode="s" horiz-adv-x="374" 
d="M27 19l17 38q43 -29 95 -29q50 0 83.5 30t33.5 71q0 34 -16 57t-62 48q-82 44 -82 120q0 56 45.5 97t111.5 41q61 0 92 -25l-17 -40q-35 25 -81 25q-44 0 -74.5 -27t-30.5 -65q0 -32 18 -53.5t60 -44.5q83 -45 83 -122q0 -68 -49 -110t-118 -42q-68 0 -109 31z" />
    <glyph glyph-name="t" unicode="t" horiz-adv-x="318" 
d="M177 571l50 15l-20 -106h133l-8 -38h-133l-50 -268q-11 -59 -11 -91q0 -56 54 -56q26 0 43 6l5 -37q-19 -8 -56 -8q-50 0 -72 28t-22 68q0 41 11 94l51 264h-78l8 38h78z" />
    <glyph glyph-name="u" unicode="u" 
d="M469 480h47l-70 -364q-14 -79 -18 -116h-44l17 104h-2q-31 -49 -82 -82.5t-104 -33.5q-147 0 -147 159q0 31 10 81l49 252h47l-50 -259q-9 -46 -9 -75q0 -116 110 -116q58 0 119.5 55.5t77.5 138.5z" />
    <glyph glyph-name="v" unicode="v" horiz-adv-x="456" 
d="M55 480h47l66 -316q21 -102 22 -111h2q51 96 52 98l194 329h50l-286 -480h-44z" />
    <glyph glyph-name="w" unicode="w" horiz-adv-x="746" 
d="M70 480h44l32 -314q6 -60 8 -117h2q48 96 52 103l187 328h48l51 -323q9 -58 15 -108h2q22 60 41 98l171 333h49l-251 -480h-44l-52 322q-12 74 -12 115h-2q-7 -13 -27 -51.5t-34 -63.5l-185 -322h-44z" />
    <glyph glyph-name="x" unicode="x" horiz-adv-x="440" 
d="M76 480h50l67 -129q7 -13 36 -71h3q28 37 53 65l124 135h55l-216 -233l130 -247h-51l-69 131q-29 53 -42 83h-3q-21 -33 -48 -62l-138 -152h-55l228 247z" />
    <glyph glyph-name="y" unicode="y" horiz-adv-x="437" 
d="M50 480h48l71 -288q23 -90 31 -138h3q2 4 22 45t38 76l155 305h51l-194 -371q-30 -57 -46 -86t-45.5 -73t-60.5 -77q-71 -77 -151 -97l-12 40q61 22 97 52q63 52 108 130q4 7 2 18z" />
    <glyph glyph-name="z" unicode="z" horiz-adv-x="430" 
d="M-14 0l6 30l303 315q19 20 98 93v4h-302l8 38h358l-8 -34l-298 -310q-48 -50 -98 -94v-4h323l-8 -38h-382z" />
    <glyph glyph-name="braceleft" unicode="{" horiz-adv-x="270" 
d="M31 271l6 35q50 -1 71 20t27 58q5 28 6 84t7 85q12 67 55.5 100t106.5 33h13l-7 -37h-19q-88 0 -108 -102q-5 -27 -5 -79t-5 -79q-7 -39 -28.5 -65.5t-52.5 -35.5v-2q45 -14 45 -68q0 -50 -28 -117q-29 -68 -29 -98q0 -34 18 -55.5t55 -21.5h19l-7 -37h-13
q-53 0 -83.5 28.5t-30.5 75.5q0 43 29 118t29 103q0 9 -1 15t-6.5 18t-22 18.5t-41.5 5.5z" />
    <glyph glyph-name="bar" unicode="|" horiz-adv-x="215" 
d="M108 750h40v-1000h-40v1000z" />
    <glyph glyph-name="braceright" unicode="}" horiz-adv-x="270" 
d="M253 302l-6 -35q-50 1 -71 -20t-27 -58q-6 -28 -7 -84t-6 -84q-12 -66 -55.5 -99t-106.5 -33h-13l7 37h19q87 0 108 101q5 27 5 79t5 79q7 37 28.5 64t52.5 36v2q-45 15 -45 69q0 36 29 115q28 74 28 100q0 35 -17.5 56.5t-55.5 21.5h-19l7 37h13q53 0 83.5 -28.5
t30.5 -75.5q0 -50 -29 -122q-29 -70 -29 -101q0 -9 1 -15t6.5 -18t22 -18.5t41.5 -5.5z" />
    <glyph glyph-name="asciitilde" unicode="~" horiz-adv-x="596" 
d="M106 221h-39q-4 58 29.5 93t79.5 35q52 0 134 -41q90 -45 144 -45q67 0 67 85h38q3 -66 -29 -97t-79 -31q-55 0 -136 40q-92 46 -142 46q-29 0 -48 -22.5t-19 -62.5z" />
    <glyph glyph-name="exclamdown" unicode="&#xa1;" horiz-adv-x="225" 
d="M63 -200h-59l103 488h41zM157 480h1q18 0 29.5 -13.5t11.5 -32.5q0 -20 -12 -33.5t-31 -13.5t-30.5 13.5t-11.5 33.5q0 19 12 32.5t31 13.5z" />
    <glyph glyph-name="cent" unicode="&#xa2;" horiz-adv-x="496" 
d="M266 -20h-40l21 107q-83 11 -128 70q-37 49 -37 122q0 117 78 201.5t185 93.5l20 108h40l-20 -108q29 0 61 -10t46 -21l-21 -37q-54 30 -120 30q-81 0 -151 -72t-70 -184q0 -66 39 -110t113 -44q63 0 126 28l9 -38q-15 -9 -54 -18.5t-76 -9.5z" />
    <glyph glyph-name="sterling" unicode="&#xa3;" horiz-adv-x="496" 
d="M443 0h-402l7 35q112 56 136 183q3 16 7 92h-89l7 38h85q2 85 11 131q16 85 68.5 134t133.5 49q53 0 88 -22l-17 -38q-36 20 -84 20q-59 0 -96 -38.5t-49 -105.5q-9 -53 -11 -130h172l-7 -38h-167q-2 -55 -9 -92q-21 -108 -108 -174v-3h332z" />
    <glyph glyph-name="currency" unicode="&#xa4;" horiz-adv-x="496" 
d="M271 524h1q79 0 124 -43l69 68l30 -33l-71 -62q40 -45 40 -121q0 -82 -38 -124l69 -65l-32 -33l-67 69q-47 -44 -125 -44t-120 39l-63 -64l-32 33l64 60q-41 47 -41 121q0 79 46 129l-69 62l32 33l65 -68q46 43 118 43zM271 487h-1q-68 0 -107.5 -48t-39.5 -110
q0 -79 46.5 -117.5t101.5 -38.5q62 0 105.5 37t43.5 121q0 60 -38 108t-111 48z" />
    <glyph glyph-name="yen" unicode="&#xa5;" horiz-adv-x="496" 
d="M223 0h-45l34 181h-151l7 36h151l15 77h-151l7 36h133l-114 320h46l84 -246q3 -9 12 -34.5t14 -41.5h4q18 33 52 79l184 243h50l-247 -320h129l-7 -36h-151l-15 -77h151l-7 -36h-151z" />
    <glyph glyph-name="brokenbar" unicode="&#xa6;" horiz-adv-x="215" 
d="M108 174h40v-350h-40v350zM108 674h40v-350h-40v350z" />
    <glyph glyph-name="section" unicode="&#xa7;" horiz-adv-x="496" 
d="M149 362v-1q0 -22 4.5 -35.5t26 -33.5t63.5 -41q55 -27 87 -54q63 47 63 105q0 13 -2 22t-9.5 23.5t-27 30.5t-49.5 32q-59 31 -86 52q-33 -19 -51.5 -46t-18.5 -54zM458 655l-17 -34q-46 30 -103 30q-44 0 -81 -27.5t-37 -70.5q0 -20 6 -34t24 -28t31.5 -21.5
t47.5 -24.5q55 -28 80.5 -57.5t25.5 -71.5q0 -47 -21 -80t-60 -63q19 -26 19 -68q0 -76 -53.5 -116t-127.5 -39q-82 0 -122 32l17 36q2 -1 11 -6t12.5 -6.5t12.5 -5.5t15.5 -5.5t16 -4t20 -3.5t21.5 -1q57 0 96.5 31t39.5 81q0 31 -20.5 57t-84.5 57q-66 32 -94 64t-28 74
q0 36 24 72t68 64q-20 27 -20 61q0 60 49.5 99.5t119.5 39.5q68 0 112 -31z" />
    <glyph glyph-name="dieresis" unicode="&#xa8;" horiz-adv-x="400" 
d="M191 585h-1q-16 0 -26.5 12t-10.5 28t11 28t27 12t27 -11.5t11 -28.5q0 -16 -10.5 -28t-27.5 -12zM370 585h-1q-16 0 -26 12t-10 28t11 28t27 12t26.5 -11.5t10.5 -28.5q0 -16 -10 -28t-28 -12z" />
    <glyph glyph-name="copyright" unicode="&#xa9;" horiz-adv-x="677" 
d="M377 648h1q125 0 210.5 -90t85.5 -218q0 -130 -86 -220t-211 -90q-126 0 -213 90.5t-87 219.5q0 128 87 218t213 90zM377 616h-1q-110 0 -184.5 -80t-74.5 -200q0 -116 74.5 -195t185.5 -79q109 -2 183 78.5t74 199.5q0 117 -74 196.5t-183 79.5zM511 493l-10 -31
q-39 25 -99 25q-74 0 -111.5 -42t-37.5 -108q0 -65 39 -108t112 -43q63 0 103 28l10 -29q-45 -32 -123 -32q-84 0 -133 51t-49 130q0 82 55.5 134t133.5 52q37 0 67.5 -8.5t42.5 -18.5z" />
    <glyph glyph-name="ordfeminine" unicode="&#xaa;" horiz-adv-x="330" 
d="M316 267h-38q0 47 6 76l-2 -1q-21 -35 -56 -57.5t-73 -22.5q-47 0 -72.5 34t-25.5 83q0 88 60 150.5t155 62.5q49 0 90 -13l-36 -205q-8 -51 -8 -107zM295 432l23 117q-24 8 -59 8q-66 0 -114.5 -47t-48.5 -126q0 -34 15.5 -60t53.5 -26q43 0 81.5 39t48.5 95z" />
    <glyph glyph-name="guillemotleft" unicode="&#xab;" horiz-adv-x="390" 
d="M261 436l-168 -186l115 -182h-48l-117 184l166 184h52zM411 436l-168 -186l115 -182h-48l-117 184l166 184h52z" />
    <glyph glyph-name="logicalnot" unicode="&#xac;" horiz-adv-x="596" 
d="M65 384h486v-256h-42v218h-444v38z" />
    <glyph glyph-name="registered" unicode="&#xae;" horiz-adv-x="395" 
d="M223 503v-71h-32v169q30 5 60 5q35 0 53 -13q17 -12 17 -36q0 -29 -33 -40v-2q21 -8 28 -41q6 -32 13 -42h-33q-6 7 -14 44q-6 27 -39 27h-20zM223 580v-53h21q44 0 44 27q0 28 -41 28q-14 0 -24 -2zM252 682h1q69 0 116 -46.5t47 -114.5q0 -69 -47 -116t-117 -47
q-69 0 -117 47t-48 116q0 67 48 114t117 47zM252 654h-1q-54 0 -91 -39t-37 -94q0 -57 37 -95.5t93 -38.5q54 -1 90.5 38t36.5 95t-36.5 95t-91.5 39z" />
    <glyph glyph-name="macron" unicode="&#xaf;" horiz-adv-x="400" 
d="M182 641h207l-7 -39h-207z" />
    <glyph glyph-name="macron" unicode="&#x2c9;" horiz-adv-x="400" 
d="M182 641h207l-7 -39h-207z" />
    <glyph glyph-name="degree" unicode="&#xb0;" horiz-adv-x="300" 
d="M221 686h1q53 0 83 -33.5t30 -77.5q0 -54 -36.5 -88t-80.5 -34q-49 0 -81 34t-32 80q0 50 34.5 84.5t81.5 34.5zM219 653h-1q-37 0 -56 -27.5t-19 -57.5q0 -34 22.5 -58t53.5 -24q33 0 55.5 25t22.5 62q0 27 -18 53.5t-60 26.5z" />
    <glyph glyph-name="plusminus" unicode="&#xb1;" horiz-adv-x="596" 
d="M301 567h40v-208h223v-38h-223v-216h-40v216h-223v38h223v208zM78 38h486v-38h-486v38z" />
    <glyph glyph-name="twosuperior" unicode="&#xb2;" horiz-adv-x="285" 
d="M299 407h-248l5 29l83 67q95 76 131 116.5t36 86.5q0 24 -15 42.5t-53 18.5q-44 0 -88 -34l-15 28q55 41 112 41q52 0 77 -29t25 -67q0 -53 -47 -104t-145 -126l-42 -32v-2h191z" />
    <glyph glyph-name="threesuperior" unicode="&#xb3;" horiz-adv-x="278" 
d="M149 739l-11 30q43 33 99 33q54 0 77 -25t23 -58q0 -34 -25 -60.5t-65 -39.5v-2q33 -8 50.5 -34t17.5 -55q0 -55 -41.5 -90.5t-113.5 -35.5q-30 0 -56.5 8t-38.5 18l15 31q36 -24 84 -24q53 0 82 27t29 62q0 38 -30 57t-68 19h-27l6 32h29q38 0 74 23.5t36 57.5
q0 55 -67 55q-42 0 -79 -29z" />
    <glyph glyph-name="acute" unicode="&#xb4;" horiz-adv-x="400" 
d="M339 682h79l-144 -140h-43z" />
    <glyph glyph-name="mu" unicode="&#xb5;" 
d="M176 480l-53 -283q-14 -75 13.5 -121.5t99.5 -46.5q43 0 85.5 31t71.5 80q25 43 32 84l49 256h47l-67 -351q-10 -56 -3 -77t36 -24l-12 -39q-11 -1 -15 -1q-69 0 -55 111h-3q-27 -46 -74 -78.5t-101 -32.5q-45 0 -80.5 22t-49.5 64l-13 -74q-27 -146 -22 -200h-43
q-9 53 19 200l92 480h46z" />
    <glyph glyph-name="paragraph" unicode="&#xb6;" horiz-adv-x="496" 
d="M223 -52h-41l60 310h-9q-54 0 -104 47t-50 132q0 98 80.5 167.5t227.5 69.5q61 0 92 -7l-138 -719h-41l131 686h-77z" />
    <glyph glyph-name="periodcentered" unicode="&#xb7;" horiz-adv-x="185" 
d="M103 218h-1q-18 0 -29.5 13.5t-11.5 32.5q0 20 12 33.5t31 13.5t30.5 -13.5t11.5 -33.5q0 -19 -12 -32.5t-31 -13.5z" />
    <glyph glyph-name="periodcentered" unicode="&#x2219;" horiz-adv-x="185" 
d="M103 218h-1q-18 0 -29.5 13.5t-11.5 32.5q0 20 12 33.5t31 13.5t30.5 -13.5t11.5 -33.5q0 -19 -12 -32.5t-31 -13.5z" />
    <glyph glyph-name="cedilla" unicode="&#xb8;" horiz-adv-x="400" 
d="M152 0h38l-43 -54q23 -4 36 -20.5t13 -40.5q0 -36 -29.5 -59.5t-74.5 -23.5q-35 0 -57 14l16 36q19 -13 51 -13q20 0 34.5 11.5t14.5 30.5q0 32 -62 38z" />
    <glyph glyph-name="onesuperior" unicode="&#xb9;" horiz-adv-x="207" 
d="M179 407h-40l67 350h-2l-63 -30l-6 31l81 39h37z" />
    <glyph glyph-name="ordmasculine" unicode="&#xba;" horiz-adv-x="330" 
d="M225 592h1q72 0 106.5 -41t34.5 -98q0 -84 -54.5 -137.5t-126.5 -53.5q-68 0 -103.5 41.5t-35.5 93.5q0 86 55 140.5t123 54.5zM222 557h-1q-53 0 -92.5 -45t-39.5 -112q0 -49 28 -76t70 -27q51 0 93.5 41.5t42.5 119.5q0 37 -22.5 68t-78.5 31z" />
    <glyph glyph-name="guillemotright" unicode="&#xbb;" horiz-adv-x="390" 
d="M178 255l-115 181h48l117 -184l-167 -184h-51zM328 255l-115 181h48l117 -184l-167 -184h-51z" />
    <glyph glyph-name="onequarter" unicode="&#xbc;" horiz-adv-x="740" 
d="M601 0h-41l21 108h-207l5 26l262 261h35l-48 -253h65l-6 -34h-65zM587 142l29 154q8 38 12 49h-2q-6 -7 -17 -21.5t-17 -20.5l-160 -160v-1h155zM173 267h-41l67 350h-2l-63 -30l-6 31l81 39h38zM134 -12h-47l501 674h47z" />
    <glyph glyph-name="onehalf" unicode="&#xbd;" horiz-adv-x="740" 
d="M173 267h-41l67 350h-2l-63 -30l-6 31l81 39h38zM119 -12h-47l501 674h47zM641 0h-248l5 29l83 67q95 76 131 116.5t36 86.5q0 24 -15 42.5t-53 18.5q-44 0 -88 -34l-15 28q55 41 112 41q52 0 77 -29t25 -67q0 -53 -47 -104t-145 -126l-42 -32v-2h191z" />
    <glyph glyph-name="threequarters" unicode="&#xbe;" horiz-adv-x="740" 
d="M174 -12h-47l501 674h47zM134 599l-11 30q43 33 99 33q54 0 77 -25t23 -58q0 -34 -25 -60.5t-65 -39.5v-2q33 -8 50.5 -34t17.5 -55q0 -55 -41.5 -90.5t-113.5 -35.5q-30 0 -56.5 8t-38.5 18l15 31q36 -24 84 -24q53 0 82 27t29 62q0 38 -30 57t-68 19h-27l6 32h29
q38 0 74 23.5t36 57.5q0 55 -67 55q-42 0 -79 -29zM616 0h-41l21 108h-207l5 26l262 261h35l-48 -253h65l-6 -34h-65zM602 142l29 154q8 38 12 49h-2q-6 -7 -17 -21.5t-17 -20.5l-160 -160v-1h155z" />
    <glyph glyph-name="questiondown" unicode="&#xbf;" horiz-adv-x="370" 
d="M220 292h45q0 -9 -2 -31q-5 -84 -112 -185q-85 -82 -85 -161q0 -37 20.5 -63t70.5 -26q55 0 103 29l14 -39q-62 -33 -121 -33q-40 0 -69 13.5t-42.5 35t-19.5 41.5t-6 40q0 89 106 192q86 83 93 151zM268 480h1q18 0 29.5 -13.5t11.5 -32.5q0 -20 -12 -33.5t-31 -13.5
t-30.5 13.5t-11.5 33.5q0 19 12 32.5t31 13.5z" />
    <glyph glyph-name="Agrave" unicode="&#xc0;" horiz-adv-x="578" 
d="M438 238h-286l-134 -238h-48l386 674h46l126 -674h-46zM177 278h253l-43 237q-13 70 -17 108h-2q-44 -85 -55 -105zM264 825h71l64 -115h-35z" />
    <glyph glyph-name="Aacute" unicode="&#xc1;" horiz-adv-x="578" 
d="M438 238h-286l-134 -238h-48l386 674h46l126 -674h-46zM177 278h253l-43 237q-13 70 -17 108h-2q-44 -85 -55 -105zM449 825h81l-144 -115h-45z" />
    <glyph glyph-name="Acircumflex" unicode="&#xc2;" horiz-adv-x="578" 
d="M438 238h-286l-134 -238h-48l386 674h46l126 -674h-46zM177 278h253l-43 237q-13 70 -17 108h-2q-44 -85 -55 -105zM376 825h36l86 -115h-49l-59 79h-2l-85 -79h-53z" />
    <glyph glyph-name="Atilde" unicode="&#xc3;" horiz-adv-x="578" 
d="M438 238h-286l-134 -238h-48l386 674h46l126 -674h-46zM177 278h253l-43 237q-13 70 -17 108h-2q-44 -85 -55 -105zM291 715h-33q7 35 27 61t47 26q31 0 64 -22q26 -17 48 -17q24 0 35 39h33q-17 -82 -74 -82q-26 0 -62 20q-34 20 -48 19q-25 -1 -37 -44z" />
    <glyph glyph-name="Adieresis" unicode="&#xc4;" horiz-adv-x="578" 
d="M438 238h-286l-134 -238h-48l386 674h46l126 -674h-46zM177 278h253l-43 237q-13 70 -17 108h-2q-44 -85 -55 -105zM299 724h-1q-15 0 -26 12.5t-11 28.5q0 15 11.5 28t27.5 13t27 -13t11 -28q0 -16 -11 -28.5t-28 -12.5zM479 724h-1q-15 0 -26 12.5t-11 28.5
q0 15 11.5 28t27.5 13t27 -13t11 -28q0 -16 -11 -28.5t-28 -12.5z" />
    <glyph glyph-name="Aring" unicode="&#xc5;" horiz-adv-x="578" 
d="M438 238h-286l-134 -238h-48l386 674h46l126 -674h-46zM177 278h253l-43 237q-13 70 -17 108h-2q-44 -85 -55 -105zM387 863h1q38 0 62.5 -24.5t24.5 -61.5q0 -35 -25.5 -59t-62.5 -24q-39 0 -64 24t-25 59q0 36 24.5 61t64.5 25zM386 836h-1q-21 0 -33.5 -17t-12.5 -42
q0 -22 13.5 -38.5t33.5 -16.5q21 0 34.5 16.5t13.5 40.5t-13.5 40.5t-34.5 16.5z" />
    <glyph glyph-name="AE" unicode="&#xc6;" horiz-adv-x="797" 
d="M-10 0h-50l516 674h337l-8 -40h-269l-28 -260h256l-8 -40h-254l-32 -294h284l-8 -40h-325l30 279h-229zM232 318h206l23 208q8 79 13 111h-4q-34 -52 -73 -102z" />
    <glyph glyph-name="Ccedilla" unicode="&#xc7;" horiz-adv-x="604" 
d="M535 67l11 -39q-80 -35 -177 -39l-35 -43q24 -5 36 -21.5t12 -38.5q0 -38 -29.5 -61t-72.5 -23q-37 0 -58 15l15 35q21 -13 48 -13q21 0 35.5 10.5t14.5 29.5q0 34 -60 40l55 70q-129 4 -203 80t-74 208q0 85 33.5 164t94.5 135q121 110 288 110q63 0 110 -13.5t63 -29.5
l-21 -36q-56 39 -168 39q-65 0 -129.5 -26t-113.5 -72q-51 -47 -80 -117.5t-29 -146.5q0 -52 13 -95.5t40.5 -81t78.5 -58.5t120 -21q110 0 182 39z" />
    <glyph glyph-name="Egrave" unicode="&#xc8;" horiz-adv-x="481" 
d="M439 376l-8 -40h-272l-56 -296h306l-8 -40h-353l129 674h336l-8 -40h-289l-49 -258h272zM258 825h71l64 -115h-35z" />
    <glyph glyph-name="Eacute" unicode="&#xc9;" horiz-adv-x="481" 
d="M439 376l-8 -40h-272l-56 -296h306l-8 -40h-353l129 674h336l-8 -40h-289l-49 -258h272zM421 825h81l-144 -115h-45z" />
    <glyph glyph-name="Ecircumflex" unicode="&#xca;" horiz-adv-x="481" 
d="M439 376l-8 -40h-272l-56 -296h306l-8 -40h-353l129 674h336l-8 -40h-289l-49 -258h272zM350 825h36l86 -115h-49l-59 79h-2l-85 -79h-53z" />
    <glyph glyph-name="Edieresis" unicode="&#xcb;" horiz-adv-x="481" 
d="M439 376l-8 -40h-272l-56 -296h306l-8 -40h-353l129 674h336l-8 -40h-289l-49 -258h272zM276 724h-1q-15 0 -26 12.5t-11 28.5q0 15 11.5 28t27.5 13t27 -13t11 -28q0 -16 -11 -28.5t-28 -12.5zM456 724h-1q-15 0 -26 12.5t-11 28.5q0 15 11.5 28t27.5 13t27 -13t11 -28
q0 -16 -11 -28.5t-28 -12.5z" />
    <glyph glyph-name="Igrave" unicode="&#xcc;" horiz-adv-x="223" 
d="M177 674h47l-129 -674h-47zM109 825h71l64 -115h-35z" />
    <glyph glyph-name="Iacute" unicode="&#xcd;" horiz-adv-x="223" 
d="M177 674h47l-129 -674h-47zM266 825h81l-144 -115h-45z" />
    <glyph glyph-name="Icircumflex" unicode="&#xce;" horiz-adv-x="223" 
d="M177 674h47l-129 -674h-47zM198 825h36l86 -115h-49l-59 79h-2l-85 -79h-53z" />
    <glyph glyph-name="Idieresis" unicode="&#xcf;" horiz-adv-x="223" 
d="M177 674h47l-129 -674h-47zM127 724h-1q-15 0 -26 12.5t-11 28.5q0 15 11.5 28t27.5 13t27 -13t11 -28q0 -16 -11 -28.5t-28 -12.5zM307 724h-1q-15 0 -26 12.5t-11 28.5q0 15 11.5 28t27.5 13t27 -13t11 -28q0 -16 -11 -28.5t-28 -12.5z" />
    <glyph glyph-name="Eth" unicode="&#xd0;" horiz-adv-x="698" 
d="M17 336l10 40h93l55 289q95 14 190 14q92 0 164.5 -29.5t110.5 -82.5q49 -63 50 -166q0 -80 -37 -160.5t-106 -137.5q-126 -106 -326 -106q-101 0 -172 6l63 333h-95zM377 376l-9 -40h-209l-56 -293q48 -6 129 -6q183 0 296 105q113 103 113 255q0 49 -14 90t-45 77
t-91 56t-143 20q-87 0 -132 -7l-49 -257h210z" />
    <glyph glyph-name="Ntilde" unicode="&#xd1;" horiz-adv-x="674" 
d="M94 0h-46l129 674h43l233 -470q43 -86 66 -155l2 2q3 68 26 194l82 429h46l-129 -674h-41l-227 463q-54 110 -70 159l-3 -2q-11 -92 -30 -193zM349 715h-33q7 35 27 61t47 26q31 0 64 -22q25 -17 48 -17q24 0 35 39h33q-17 -82 -74 -82q-26 0 -62 20q-34 20 -48 19
q-25 -1 -37 -44z" />
    <glyph glyph-name="Ograve" unicode="&#xd2;" horiz-adv-x="721" 
d="M337 -12h-1q-137 0 -210 83t-73 208q0 85 33.5 165.5t94.5 140.5q46 46 113 73.5t135 27.5q74 0 130.5 -24t89 -66t48.5 -92.5t16 -108.5q0 -178 -121 -301q-106 -106 -255 -106zM342 28h1q124 0 215 93q107 107 107 273q0 34 -5.5 65.5t-22 66.5t-42.5 61t-70.5 42.5
t-102.5 16.5q-120 0 -212 -92q-51 -51 -80 -122t-29 -148q0 -111 60 -183.5t181 -72.5zM349 825h71l64 -115h-35z" />
    <glyph glyph-name="Oacute" unicode="&#xd3;" horiz-adv-x="721" 
d="M337 -12h-1q-137 0 -210 83t-73 208q0 85 33.5 165.5t94.5 140.5q46 46 113 73.5t135 27.5q74 0 130.5 -24t89 -66t48.5 -92.5t16 -108.5q0 -178 -121 -301q-106 -106 -255 -106zM342 28h1q124 0 215 93q107 107 107 273q0 34 -5.5 65.5t-22 66.5t-42.5 61t-70.5 42.5
t-102.5 16.5q-120 0 -212 -92q-51 -51 -80 -122t-29 -148q0 -111 60 -183.5t181 -72.5zM521 825h81l-144 -115h-45z" />
    <glyph glyph-name="Ocircumflex" unicode="&#xd4;" horiz-adv-x="721" 
d="M337 -12h-1q-137 0 -210 83t-73 208q0 85 33.5 165.5t94.5 140.5q46 46 113 73.5t135 27.5q74 0 130.5 -24t89 -66t48.5 -92.5t16 -108.5q0 -178 -121 -301q-106 -106 -255 -106zM342 28h1q124 0 215 93q107 107 107 273q0 34 -5.5 65.5t-22 66.5t-42.5 61t-70.5 42.5
t-102.5 16.5q-120 0 -212 -92q-51 -51 -80 -122t-29 -148q0 -111 60 -183.5t181 -72.5zM450 825h36l86 -115h-49l-59 79h-2l-85 -79h-53z" />
    <glyph glyph-name="Otilde" unicode="&#xd5;" horiz-adv-x="721" 
d="M337 -12h-1q-137 0 -210 83t-73 208q0 85 33.5 165.5t94.5 140.5q46 46 113 73.5t135 27.5q74 0 130.5 -24t89 -66t48.5 -92.5t16 -108.5q0 -178 -121 -301q-106 -106 -255 -106zM342 28h1q124 0 215 93q107 107 107 273q0 34 -5.5 65.5t-22 66.5t-42.5 61t-70.5 42.5
t-102.5 16.5q-120 0 -212 -92q-51 -51 -80 -122t-29 -148q0 -111 60 -183.5t181 -72.5zM373 715h-33q7 35 27 61t47 26q31 0 64 -22q25 -17 48 -17q24 0 35 39h33q-17 -82 -74 -82q-26 0 -62 20q-34 20 -48 19q-25 -1 -37 -44z" />
    <glyph glyph-name="Odieresis" unicode="&#xd6;" horiz-adv-x="721" 
d="M337 -12h-1q-137 0 -210 83t-73 208q0 85 33.5 165.5t94.5 140.5q46 46 113 73.5t135 27.5q74 0 130.5 -24t89 -66t48.5 -92.5t16 -108.5q0 -178 -121 -301q-106 -106 -255 -106zM342 28h1q124 0 215 93q107 107 107 273q0 34 -5.5 65.5t-22 66.5t-42.5 61t-70.5 42.5
t-102.5 16.5q-120 0 -212 -92q-51 -51 -80 -122t-29 -148q0 -111 60 -183.5t181 -72.5zM376 724h-1q-15 0 -26 12.5t-11 28.5q0 15 11.5 28t27.5 13t27 -13t11 -28q0 -16 -11 -28.5t-28 -12.5zM556 724h-1q-15 0 -26 12.5t-11 28.5q0 15 11.5 28t27.5 13t27 -13t11 -28
q0 -16 -11 -28.5t-28 -12.5z" />
    <glyph glyph-name="multiply" unicode="&#xd7;" horiz-adv-x="596" 
d="M88 495l31 31l204 -236l207 236l30 -29l-209 -234l209 -233l-31 -30l-208 236l-207 -236l-26 32l205 231z" />
    <glyph glyph-name="Oslash" unicode="&#xd8;" horiz-adv-x="721" 
d="M48 -28l-24 26l88 87q-31 44 -45 88t-14 107q0 174 123 297q51 51 119.5 80t137.5 29q127 0 195 -69l88 85l27 -25l-89 -86q59 -78 59 -189q0 -183 -123 -308q-47 -49 -115 -77.5t-137 -28.5q-127 0 -202 71zM146 118l453 468q-60 60 -174 60q-104 0 -189.5 -69
t-117.5 -180q-22 -64 -16.5 -144t42.5 -135h2zM621 555l-453 -467q63 -60 182 -60q92 0 174.5 63.5t118.5 171.5q15 45 20.5 93.5t-4 102.5t-36.5 96h-2z" />
    <glyph glyph-name="Ugrave" unicode="&#xd9;" horiz-adv-x="659" 
d="M177 674h47l-74 -389q-9 -47 -9 -89q0 -85 43.5 -126t116.5 -41q88 0 150 62.5t87 193.5l75 389h47l-77 -399q-29 -149 -107.5 -218t-182.5 -69q-86 0 -142.5 51t-56.5 157q0 49 9 94zM328 825h71l64 -115h-35z" />
    <glyph glyph-name="Uacute" unicode="&#xda;" horiz-adv-x="659" 
d="M177 674h47l-74 -389q-9 -47 -9 -89q0 -85 43.5 -126t116.5 -41q88 0 150 62.5t87 193.5l75 389h47l-77 -399q-29 -149 -107.5 -218t-182.5 -69q-86 0 -142.5 51t-56.5 157q0 49 9 94zM480 825h81l-144 -115h-45z" />
    <glyph glyph-name="Ucircumflex" unicode="&#xdb;" horiz-adv-x="659" 
d="M177 674h47l-74 -389q-9 -47 -9 -89q0 -85 43.5 -126t116.5 -41q88 0 150 62.5t87 193.5l75 389h47l-77 -399q-29 -149 -107.5 -218t-182.5 -69q-86 0 -142.5 51t-56.5 157q0 49 9 94zM432 825h36l86 -115h-49l-59 79h-2l-85 -79h-53z" />
    <glyph glyph-name="Udieresis" unicode="&#xdc;" horiz-adv-x="659" 
d="M177 674h47l-74 -389q-9 -47 -9 -89q0 -85 43.5 -126t116.5 -41q88 0 150 62.5t87 193.5l75 389h47l-77 -399q-29 -149 -107.5 -218t-182.5 -69q-86 0 -142.5 51t-56.5 157q0 49 9 94zM340 724h-1q-15 0 -26 12.5t-11 28.5q0 15 11.5 28t27.5 13t27 -13t11 -28
q0 -16 -11 -28.5t-28 -12.5zM520 724h-1q-15 0 -26 12.5t-11 28.5q0 15 11.5 28t27.5 13t27 -13t11 -28q0 -16 -11 -28.5t-28 -12.5z" />
    <glyph glyph-name="Yacute" unicode="&#xdd;" horiz-adv-x="515" 
d="M229 0h-47l53 277l-146 397h50l91 -256q28 -80 34 -106h2q35 53 78 111l188 251h53l-304 -399zM408 825h81l-144 -115h-45z" />
    <glyph glyph-name="Thorn" unicode="&#xde;" horiz-adv-x="516" 
d="M48 0l129 674h46l-26 -136q43 11 101 11q114 0 164 -59q35 -41 35 -102q0 -103 -84 -164t-197 -61q-54 0 -90 6l-32 -169h-46zM189 498l-55 -287q39 -8 90 -8q89 0 157.5 49.5t68.5 130.5q0 65 -45 96t-117 31q-65 0 -99 -12z" />
    <glyph glyph-name="germandbls" unicode="&#xdf;" horiz-adv-x="556" 
d="M95 0h-47l89 469q48 259 235 259q69 0 108 -39t39 -98q0 -31 -13 -62t-26 -46q-44 -11 -73 -36.5t-29 -62.5q0 -17 6.5 -33t14 -25.5t27.5 -33.5q59 -67 59 -130q0 -77 -58 -125.5t-139 -48.5q-58 0 -97 25l17 37q42 -23 83 -23q62 0 104 36.5t42 96.5q0 53 -46 101
q-61 66 -61 113q0 49 33 85t84 53q9 8 17 29t8 47q0 41 -26 70.5t-82 29.5q-67 0 -112 -52.5t-63 -144.5z" />
    <glyph glyph-name="agrave" unicode="&#xe0;" 
d="M450 0h-45q-3 42 15 157h-2q-82 -169 -226 -169q-70 0 -110.5 47t-40.5 114q0 137 101 240t247 103q70 0 127 -15l-45 -240q-27 -143 -21 -237zM434 286l29 156q-26 10 -81 10q-117 0 -205 -85.5t-88 -212.5q0 -22 5 -42.5t16.5 -40.5t35 -32t56.5 -12q73 0 142.5 76
t89.5 183zM276 682h69l54 -140h-33z" />
    <glyph glyph-name="aacute" unicode="&#xe1;" 
d="M450 0h-45q-3 42 15 157h-2q-82 -169 -226 -169q-70 0 -110.5 47t-40.5 114q0 137 101 240t247 103q70 0 127 -15l-45 -240q-27 -143 -21 -237zM434 286l29 156q-26 10 -81 10q-117 0 -205 -85.5t-88 -212.5q0 -22 5 -42.5t16.5 -40.5t35 -32t56.5 -12q73 0 142.5 76
t89.5 183zM431 682h79l-144 -140h-43z" />
    <glyph glyph-name="acircumflex" unicode="&#xe2;" 
d="M450 0h-45q-3 42 15 157h-2q-82 -169 -226 -169q-70 0 -110.5 47t-40.5 114q0 137 101 240t247 103q70 0 127 -15l-45 -240q-27 -143 -21 -237zM434 286l29 156q-26 10 -81 10q-117 0 -205 -85.5t-88 -212.5q0 -22 5 -42.5t16.5 -40.5t35 -32t56.5 -12q73 0 142.5 76
t89.5 183zM354 682h38l68 -140h-45l-47 102h-2l-81 -102h-49z" />
    <glyph glyph-name="atilde" unicode="&#xe3;" 
d="M450 0h-45q-3 42 15 157h-2q-82 -169 -226 -169q-70 0 -110.5 47t-40.5 114q0 137 101 240t247 103q70 0 127 -15l-45 -240q-27 -143 -21 -237zM434 286l29 156q-26 10 -81 10q-117 0 -205 -85.5t-88 -212.5q0 -22 5 -42.5t16.5 -40.5t35 -32t56.5 -12q73 0 142.5 76
t89.5 183zM269 578h-34q5 36 22.5 61t45.5 25q8 0 14 -1t13.5 -4t11 -4.5t13.5 -7.5t14 -8q26 -15 41 -15q13 0 19 9t10 34h34q-6 -41 -20.5 -62t-44.5 -21q-27 0 -61 21q-31 19 -46 19q-10 0 -17 -7t-9.5 -15t-5.5 -24z" />
    <glyph glyph-name="adieresis" unicode="&#xe4;" 
d="M450 0h-45q-3 42 15 157h-2q-82 -169 -226 -169q-70 0 -110.5 47t-40.5 114q0 137 101 240t247 103q70 0 127 -15l-45 -240q-27 -143 -21 -237zM434 286l29 156q-26 10 -81 10q-117 0 -205 -85.5t-88 -212.5q0 -22 5 -42.5t16.5 -40.5t35 -32t56.5 -12q73 0 142.5 76
t89.5 183zM268 585h-1q-17 0 -27 12t-10 28t11 28t27 12t27 -11.5t11 -28.5q0 -16 -10.5 -28t-27.5 -12zM447 585h-1q-16 0 -26 12t-10 28t11 28t27 12t26.5 -11.5t10.5 -28.5q0 -16 -10 -28t-28 -12z" />
    <glyph glyph-name="aring" unicode="&#xe5;" 
d="M450 0h-45q-3 42 15 157h-2q-82 -169 -226 -169q-70 0 -110.5 47t-40.5 114q0 137 101 240t247 103q70 0 127 -15l-45 -240q-27 -143 -21 -237zM434 286l29 156q-26 10 -81 10q-117 0 -205 -85.5t-88 -212.5q0 -22 5 -42.5t16.5 -40.5t35 -32t56.5 -12q73 0 142.5 76
t89.5 183zM359 716h1q38 0 63.5 -26.5t25.5 -66.5q0 -38 -27 -64t-63 -26q-39 0 -65.5 26t-26.5 64q0 39 26.5 66t65.5 27zM357 686h-1q-22 0 -36 -18t-14 -45q0 -23 15 -41.5t36 -18.5q23 0 38 18.5t15 47.5q0 24 -15 40.5t-38 16.5z" />
    <glyph glyph-name="ae" unicode="&#xe6;" horiz-adv-x="755" 
d="M666 64l15 -36q-73 -40 -160 -40q-67 0 -113 34t-59 96h-2q-30 -62 -86 -96t-121 -34q-63 0 -96.5 34t-34.5 87q0 87 90.5 137t254.5 42l3 20q8 52 -17.5 98t-92.5 46q-69 0 -136 -44l-16 35q78 49 155 49q68 0 105 -33t43 -91h2q34 61 92 92.5t118 31.5q62 0 97.5 -31.5
t35.5 -78.5q0 -48 -29.5 -78.5t-78 -41.5t-112 -14.5t-132.5 1.5q-17 -83 6 -140q34 -81 128 -81q75 0 141 36zM336 194l10 55q-45 3 -90 -1t-92.5 -16.5t-77 -43.5t-29.5 -76q0 -39 24.5 -61.5t65.5 -22.5q66 0 120.5 45.5t68.5 120.5zM695 381v1q0 30 -24.5 50.5
t-64.5 20.5q-76 0 -132 -53.5t-75 -111.5q55 -3 108.5 -1t95 8.5t67 28t25.5 57.5z" />
    <glyph glyph-name="ccedilla" unicode="&#xe7;" horiz-adv-x="463" 
d="M385 65l14 -38q-71 -32 -131 -36l-36 -45q23 -4 36 -20.5t13 -40.5q0 -36 -29.5 -59.5t-74.5 -23.5q-35 0 -57 14l16 36q19 -13 51 -13q20 0 34.5 11.5t14.5 30.5q0 32 -62 38l54 70q-63 1 -106.5 29t-61 67t-17.5 84q0 131 88 227t213 96q39 0 75.5 -11t46.5 -20
l-18 -39q-52 27 -111 27q-106 0 -176 -83t-70 -190q0 -66 38 -107t113 -41q69 0 143 37z" />
    <glyph glyph-name="egrave" unicode="&#xe8;" horiz-adv-x="460" 
d="M373 65l14 -37q-63 -40 -162 -40q-92 0 -138 57t-46 138q0 116 80.5 212.5t188.5 96.5q68 0 103.5 -33.5t35.5 -81.5q0 -49 -28.5 -81t-83 -46.5t-111.5 -19.5t-133 -3q-6 -22 -3.5 -57t12.5 -59q34 -83 129 -83q78 0 142 37zM401 373v1q0 38 -27.5 58t-71.5 20
q-70 0 -126.5 -57.5t-76.5 -128.5q66 -1 116 2.5t94.5 14.5t68 33.5t23.5 56.5zM234 682h69l54 -140h-33z" />
    <glyph glyph-name="eacute" unicode="&#xe9;" horiz-adv-x="460" 
d="M373 65l14 -37q-63 -40 -162 -40q-92 0 -138 57t-46 138q0 116 80.5 212.5t188.5 96.5q68 0 103.5 -33.5t35.5 -81.5q0 -49 -28.5 -81t-83 -46.5t-111.5 -19.5t-133 -3q-6 -22 -3.5 -57t12.5 -59q34 -83 129 -83q78 0 142 37zM401 373v1q0 38 -27.5 58t-71.5 20
q-70 0 -126.5 -57.5t-76.5 -128.5q66 -1 116 2.5t94.5 14.5t68 33.5t23.5 56.5zM374 682h79l-144 -140h-43z" />
    <glyph glyph-name="ecircumflex" unicode="&#xea;" horiz-adv-x="460" 
d="M373 65l14 -37q-63 -40 -162 -40q-92 0 -138 57t-46 138q0 116 80.5 212.5t188.5 96.5q68 0 103.5 -33.5t35.5 -81.5q0 -49 -28.5 -81t-83 -46.5t-111.5 -19.5t-133 -3q-6 -22 -3.5 -57t12.5 -59q34 -83 129 -83q78 0 142 37zM401 373v1q0 38 -27.5 58t-71.5 20
q-70 0 -126.5 -57.5t-76.5 -128.5q66 -1 116 2.5t94.5 14.5t68 33.5t23.5 56.5zM323 682h38l68 -140h-45l-47 102h-2l-81 -102h-49z" />
    <glyph glyph-name="edieresis" unicode="&#xeb;" horiz-adv-x="460" 
d="M373 65l14 -37q-63 -40 -162 -40q-92 0 -138 57t-46 138q0 116 80.5 212.5t188.5 96.5q68 0 103.5 -33.5t35.5 -81.5q0 -49 -28.5 -81t-83 -46.5t-111.5 -19.5t-133 -3q-6 -22 -3.5 -57t12.5 -59q34 -83 129 -83q78 0 142 37zM401 373v1q0 38 -27.5 58t-71.5 20
q-70 0 -126.5 -57.5t-76.5 -128.5q66 -1 116 2.5t94.5 14.5t68 33.5t23.5 56.5zM241 585h-1q-16 0 -26.5 12t-10.5 28t11 28t27 12t27 -11.5t11 -28.5q0 -16 -10.5 -28t-27.5 -12zM420 585h-1q-16 0 -26 12t-10 28t11 28t27 12t26.5 -11.5t10.5 -28.5q0 -16 -10 -28t-28 -12
z" />
    <glyph glyph-name="igrave" unicode="&#xec;" horiz-adv-x="223" 
d="M95 0h-47l92 480h47zM74 682h69l54 -140h-33z" />
    <glyph glyph-name="iacute" unicode="&#xed;" horiz-adv-x="223" 
d="M95 0h-47l92 480h47zM240 682h79l-144 -140h-43z" />
    <glyph glyph-name="icircumflex" unicode="&#xee;" horiz-adv-x="223" 
d="M95 0h-47l92 480h47zM170 682h38l68 -140h-45l-47 102h-2l-81 -102h-49z" />
    <glyph glyph-name="idieresis" unicode="&#xef;" horiz-adv-x="223" 
d="M95 0h-47l92 480h47zM92 585h-1q-17 0 -27 12t-10 28t11 28t27 12t27 -11.5t11 -28.5q0 -16 -10.5 -28t-27.5 -12zM271 585h-1q-16 0 -26 12t-10 28t11 28t27 12t26.5 -11.5t10.5 -28.5q0 -16 -10 -28t-28 -12z" />
    <glyph glyph-name="eth" unicode="&#xf0;" horiz-adv-x="540" 
d="M239 27h1q89 0 155 78.5t67 203.5q0 52 -27 87q-43 57 -121 57q-96 0 -159.5 -78.5t-63.5 -186.5q0 -72 39.5 -116.5t108.5 -44.5zM190 530l-14 34l142 66q-42 39 -103 63l21 35q56 -24 121 -78l134 62l16 -34l-120 -54q122 -120 122 -284q0 -95 -27 -167t-69.5 -110
t-86.5 -56.5t-86 -18.5q-100 0 -148.5 58t-48.5 140q0 130 81.5 218t190.5 88q101 0 146 -79h5q-36 111 -121 191z" />
    <glyph glyph-name="ntilde" unicode="&#xf1;" horiz-adv-x="567" 
d="M95 0h-47l69 364q11 54 19 116h44l-16 -110h2q32 55 86.5 88.5t116.5 33.5q15 0 30 -2.5t34.5 -12t34.5 -24.5t25.5 -43.5t10.5 -66.5q0 -27 -9 -77l-51 -266h-47l52 273q7 42 7 63q0 115 -107 115q-61 0 -127.5 -59.5t-83.5 -155.5zM266 578h-34q5 36 22.5 61t45.5 25
q8 0 14 -1t13.5 -4t11 -4.5t13.5 -7.5t14 -8q26 -15 41 -15q13 0 19 9t10 34h34q-6 -41 -20.5 -62t-44.5 -21q-27 0 -61 21q-31 19 -46 19q-10 0 -17 -7t-9.5 -15t-5.5 -24z" />
    <glyph glyph-name="ograve" unicode="&#xf2;" 
d="M249 -12h-1q-96 0 -150 62t-54 146q0 126 79.5 211t192.5 85q102 0 154 -64t52 -154q0 -111 -78.5 -198.5t-194.5 -87.5zM252 27h1q87 0 154 71t67 178q0 27 -8 55.5t-25.5 57t-50.5 46.5t-76 18q-94 0 -158 -74t-64 -181q0 -75 45.5 -123t114.5 -48zM241 682h69l54 -140
h-33z" />
    <glyph glyph-name="oacute" unicode="&#xf3;" 
d="M249 -12h-1q-96 0 -150 62t-54 146q0 126 79.5 211t192.5 85q102 0 154 -64t52 -154q0 -111 -78.5 -198.5t-194.5 -87.5zM252 27h1q87 0 154 71t67 178q0 27 -8 55.5t-25.5 57t-50.5 46.5t-76 18q-94 0 -158 -74t-64 -181q0 -75 45.5 -123t114.5 -48zM401 682h79
l-144 -140h-43z" />
    <glyph glyph-name="ocircumflex" unicode="&#xf4;" 
d="M249 -12h-1q-96 0 -150 62t-54 146q0 126 79.5 211t192.5 85q102 0 154 -64t52 -154q0 -111 -78.5 -198.5t-194.5 -87.5zM252 27h1q87 0 154 71t67 178q0 27 -8 55.5t-25.5 57t-50.5 46.5t-76 18q-94 0 -158 -74t-64 -181q0 -75 45.5 -123t114.5 -48zM346 682h38l68 -140
h-45l-47 102h-2l-81 -102h-49z" />
    <glyph glyph-name="otilde" unicode="&#xf5;" 
d="M249 -12h-1q-96 0 -150 62t-54 146q0 126 79.5 211t192.5 85q102 0 154 -64t52 -154q0 -111 -78.5 -198.5t-194.5 -87.5zM252 27h1q87 0 154 71t67 178q0 27 -8 55.5t-25.5 57t-50.5 46.5t-76 18q-94 0 -158 -74t-64 -181q0 -75 45.5 -123t114.5 -48zM249 578h-34
q5 36 22.5 61t45.5 25q8 0 14 -1t13.5 -4t11 -4.5t13.5 -7.5t14 -8q26 -15 41 -15q13 0 19 9t10 34h34q-6 -41 -20.5 -62t-44.5 -21q-27 0 -61 21q-31 19 -46 19q-10 0 -17 -7t-9.5 -15t-5.5 -24z" />
    <glyph glyph-name="odieresis" unicode="&#xf6;" 
d="M249 -12h-1q-96 0 -150 62t-54 146q0 126 79.5 211t192.5 85q102 0 154 -64t52 -154q0 -111 -78.5 -198.5t-194.5 -87.5zM252 27h1q87 0 154 71t67 178q0 27 -8 55.5t-25.5 57t-50.5 46.5t-76 18q-94 0 -158 -74t-64 -181q0 -75 45.5 -123t114.5 -48zM268 585h-1
q-17 0 -27 12t-10 28t11 28t27 12t27 -11.5t11 -28.5q0 -16 -10.5 -28t-27.5 -12zM447 585h-1q-16 0 -26 12t-10 28t11 28t27 12t26.5 -11.5t10.5 -28.5q0 -16 -10 -28t-28 -12z" />
    <glyph glyph-name="divide" unicode="&#xf7;" horiz-adv-x="596" 
d="M313 394h-1q-18 0 -30 14t-11 32q0 20 12 33.5t31 13.5t30.5 -13.5t11.5 -33.5q0 -19 -12 -32.5t-31 -13.5zM556 248h-486v38h486v-38zM313 47h-1q-18 0 -30 14t-11 32q0 20 12 33.5t31 13.5t30.5 -13.5t11.5 -33.5q0 -19 -12 -32.5t-31 -13.5z" />
    <glyph glyph-name="oslash" unicode="&#xf8;" 
d="M59 -27l-24 24l57 60q-48 57 -48 149q0 120 80 203t189 83q86 0 136 -43l56 58l26 -23l-57 -60q48 -62 48 -145q0 -126 -82.5 -208.5t-184.5 -82.5q-87 0 -140 46zM126 90l292 326q-37 37 -108 37q-92 0 -155 -74.5t-63 -172.5q0 -72 32 -117zM441 388l-295 -323
q43 -38 112 -38q35 0 72 17t69.5 47t53 77.5t20.5 103.5q0 65 -30 116h-2z" />
    <glyph glyph-name="ugrave" unicode="&#xf9;" 
d="M469 480h47l-70 -364q-14 -79 -18 -116h-44l17 104h-2q-31 -49 -82 -82.5t-104 -33.5q-147 0 -147 159q0 31 10 81l49 252h47l-50 -259q-9 -46 -9 -75q0 -116 110 -116q58 0 119.5 55.5t77.5 138.5zM236 682h69l54 -140h-33z" />
    <glyph glyph-name="uacute" unicode="&#xfa;" 
d="M469 480h47l-70 -364q-14 -79 -18 -116h-44l17 104h-2q-31 -49 -82 -82.5t-104 -33.5q-147 0 -147 159q0 31 10 81l49 252h47l-50 -259q-9 -46 -9 -75q0 -116 110 -116q58 0 119.5 55.5t77.5 138.5zM386 682h79l-144 -140h-43z" />
    <glyph glyph-name="ucircumflex" unicode="&#xfb;" 
d="M469 480h47l-70 -364q-14 -79 -18 -116h-44l17 104h-2q-31 -49 -82 -82.5t-104 -33.5q-147 0 -147 159q0 31 10 81l49 252h47l-50 -259q-9 -46 -9 -75q0 -116 110 -116q58 0 119.5 55.5t77.5 138.5zM346 682h38l68 -140h-45l-47 102h-2l-81 -102h-49z" />
    <glyph glyph-name="udieresis" unicode="&#xfc;" 
d="M469 480h47l-70 -364q-14 -79 -18 -116h-44l17 104h-2q-31 -49 -82 -82.5t-104 -33.5q-147 0 -147 159q0 31 10 81l49 252h47l-50 -259q-9 -46 -9 -75q0 -116 110 -116q58 0 119.5 55.5t77.5 138.5zM258 585h-1q-17 0 -27 12t-10 28t11 28t27 12t27 -11.5t11 -28.5
q0 -16 -10.5 -28t-27.5 -12zM437 585h-1q-16 0 -26 12t-10 28t11 28t27 12t26.5 -11.5t10.5 -28.5q0 -16 -10 -28t-28 -12z" />
    <glyph glyph-name="yacute" unicode="&#xfd;" horiz-adv-x="437" 
d="M50 480h48l71 -288q23 -90 31 -138h3q2 4 22 45t38 76l155 305h51l-194 -371q-30 -57 -46 -86t-45.5 -73t-60.5 -77q-71 -77 -151 -97l-12 40q61 22 97 52q63 52 108 130q4 7 2 18zM337 682h79l-144 -140h-43z" />
    <glyph glyph-name="thorn" unicode="&#xfe;" 
d="M-2 -200l165 866h47l-57 -296h2q39 59 92 90.5t110 31.5q81 0 123 -53.5t42 -129.5q0 -134 -93.5 -227.5t-212.5 -93.5q-83 0 -128 24h-4l-39 -212h-47zM121 202l-28 -145q39 -30 129 -30q96 0 173.5 79.5t77.5 198.5q0 57 -30.5 102t-95.5 45q-67 0 -134.5 -63.5
t-91.5 -186.5z" />
    <glyph glyph-name="ydieresis" unicode="&#xff;" horiz-adv-x="437" 
d="M50 480h48l71 -288q23 -90 31 -138h3q2 4 22 45t38 76l155 305h51l-194 -371q-30 -57 -46 -86t-45.5 -73t-60.5 -77q-71 -77 -151 -97l-12 40q61 22 97 52q63 52 108 130q4 7 2 18zM200 585h-1q-17 0 -27 12t-10 28t11 28t27 12t27 -11.5t11 -28.5q0 -16 -10.5 -28
t-27.5 -12zM379 585h-1q-16 0 -26 12t-10 28t11 28t27 12t26.5 -11.5t10.5 -28.5q0 -16 -10 -28t-28 -12z" />
    <glyph glyph-name="Amacron" unicode="&#x100;" horiz-adv-x="578" 
d="M438 238h-286l-134 -238h-48l386 674h46l126 -674h-46zM177 278h253l-43 237q-13 70 -17 108h-2q-44 -85 -55 -105zM278 772h227l-7 -40h-227z" />
    <glyph glyph-name="amacron" unicode="&#x101;" 
d="M450 0h-45q-3 42 15 157h-2q-82 -169 -226 -169q-70 0 -110.5 47t-40.5 114q0 137 101 240t247 103q70 0 127 -15l-45 -240q-27 -143 -21 -237zM434 286l29 156q-26 10 -81 10q-117 0 -205 -85.5t-88 -212.5q0 -22 5 -42.5t16.5 -40.5t35 -32t56.5 -12q73 0 142.5 76
t89.5 183zM259 641h207l-7 -39h-207z" />
    <glyph glyph-name="Abreve" unicode="&#x102;" horiz-adv-x="578" 
d="M438 238h-286l-134 -238h-48l386 674h46l126 -674h-46zM177 278h253l-43 237q-13 70 -17 108h-2q-44 -85 -55 -105zM283 820h37q0 -57 68 -57q66 0 83 57h40q-8 -41 -40 -69t-83 -28q-58 0 -84 28t-21 69z" />
    <glyph glyph-name="abreve" unicode="&#x103;" 
d="M450 0h-45q-3 42 15 157h-2q-82 -169 -226 -169q-70 0 -110.5 47t-40.5 114q0 137 101 240t247 103q70 0 127 -15l-45 -240q-27 -143 -21 -237zM434 286l29 156q-26 10 -81 10q-117 0 -205 -85.5t-88 -212.5q0 -22 5 -42.5t16.5 -40.5t35 -32t56.5 -12q73 0 142.5 76
t89.5 183zM252 684h38q-3 -32 14 -54.5t48 -22.5q68 0 91 77h41q-10 -53 -47 -85t-82 -32q-63 0 -86 35.5t-17 81.5z" />
    <glyph glyph-name="Aogonek" unicode="&#x104;" horiz-adv-x="578" 
d="M402 674l126 -674h-10q-66 -71 -66 -120q0 -18 10.5 -29t27.5 -11q20 0 41 11l10 -29q-22 -20 -66 -20q-33 0 -51.5 19.5t-18.5 50.5q0 11 3 23.5t9.5 24.5t12.5 22.5t15 21.5t14 17t13 15l8 9l-42 233h-286l-134 -238h-48l386 674h46zM177 278h253l-43 237
q-13 70 -17 108h-2q-44 -85 -55 -105z" />
    <glyph glyph-name="aogonek" unicode="&#x105;" 
d="M516 477l-45 -240q-27 -143 -21 -237h-7q-66 -71 -66 -120q0 -18 10.5 -29t27.5 -11q20 0 41 11l10 -29q-22 -20 -66 -20q-33 0 -51.5 19.5t-18.5 50.5q0 11 3 23.5t9.5 24.5t12.5 22.5t15 21.5t14 17t13 15l8 9q0 52 15 152h-2q-82 -169 -226 -169q-70 0 -110.5 47
t-40.5 114q0 137 101 240t247 103q70 0 127 -15zM434 286l29 156q-26 10 -81 10q-117 0 -205 -85.5t-88 -212.5q0 -22 5 -42.5t16.5 -40.5t35 -32t56.5 -12q73 0 142.5 76t89.5 183z" />
    <glyph glyph-name="Cacute" unicode="&#x106;" horiz-adv-x="604" 
d="M535 67l11 -39q-92 -40 -202 -40q-135 0 -213 76.5t-78 212.5q0 85 33.5 164t94.5 135q120 110 288 110q63 0 110 -13.5t63 -29.5l-21 -36q-56 39 -168 39q-65 0 -129.5 -26t-113.5 -72q-51 -48 -80 -118t-29 -147q0 -51 13 -94.5t40.5 -81t78.5 -58.5t120 -21
q110 0 182 39zM512 831h81l-144 -115h-45z" />
    <glyph glyph-name="cacute" unicode="&#x107;" horiz-adv-x="463" 
d="M385 65l14 -39q-73 -38 -164 -38q-96 0 -144 54t-48 127q0 131 88 227t213 96q39 0 75.5 -11t46.5 -20l-18 -39q-52 27 -111 27q-106 0 -176 -83t-70 -188q0 -68 38 -109t114 -41q73 0 142 37zM381 682h79l-144 -140h-43z" />
    <glyph glyph-name="Ccircumflex" unicode="&#x108;" horiz-adv-x="604" 
d="M535 67l11 -39q-92 -40 -202 -40q-135 0 -213 76.5t-78 212.5q0 85 33.5 164t94.5 135q120 110 288 110q63 0 110 -13.5t63 -29.5l-21 -36q-56 39 -168 39q-65 0 -129.5 -26t-113.5 -72q-51 -48 -80 -118t-29 -147q0 -51 13 -94.5t40.5 -81t78.5 -58.5t120 -21
q110 0 182 39zM449 825h36l86 -115h-49l-59 79h-2l-85 -79h-53z" />
    <glyph glyph-name="ccircumflex" unicode="&#x109;" horiz-adv-x="463" 
d="M385 65l14 -39q-73 -38 -164 -38q-96 0 -144 54t-48 127q0 131 88 227t213 96q39 0 75.5 -11t46.5 -20l-18 -39q-52 27 -111 27q-106 0 -176 -83t-70 -188q0 -68 38 -109t114 -41q73 0 142 37zM321 682h38l68 -140h-45l-47 102h-2l-81 -102h-49z" />
    <glyph glyph-name="Cdotaccent" unicode="&#x10a;" horiz-adv-x="604" 
d="M535 67l11 -39q-92 -40 -202 -40q-135 0 -213 76.5t-78 212.5q0 85 33.5 164t94.5 135q120 110 288 110q63 0 110 -13.5t63 -29.5l-21 -36q-56 39 -168 39q-65 0 -129.5 -26t-113.5 -72q-51 -48 -80 -118t-29 -147q0 -51 13 -94.5t40.5 -81t78.5 -58.5t120 -21
q110 0 182 39zM467 724h-1q-15 0 -26 12.5t-11 28.5q0 15 11.5 28t27.5 13t27 -13t11 -28q0 -16 -11 -28.5t-28 -12.5z" />
    <glyph glyph-name="cdotaccent" unicode="&#x10b;" horiz-adv-x="463" 
d="M385 65l14 -39q-73 -38 -164 -38q-96 0 -144 54t-48 127q0 131 88 227t213 96q39 0 75.5 -11t46.5 -20l-18 -39q-52 27 -111 27q-106 0 -176 -83t-70 -188q0 -68 38 -109t114 -41q73 0 142 37zM350 585h-1q-16 0 -26 12t-10 28t11 28t27 12t26.5 -11.5t10.5 -28.5
t-10 -28.5t-28 -11.5z" />
    <glyph glyph-name="Ccaron" unicode="&#x10c;" horiz-adv-x="604" 
d="M535 67l11 -39q-92 -40 -202 -40q-135 0 -213 76.5t-78 212.5q0 85 33.5 164t94.5 135q120 110 288 110q63 0 110 -13.5t63 -29.5l-21 -36q-56 39 -168 39q-65 0 -129.5 -26t-113.5 -72q-51 -48 -80 -118t-29 -147q0 -51 13 -94.5t40.5 -81t78.5 -58.5t120 -21
q110 0 182 39zM465 716h-36l-86 115h52l55 -78h4l84 78h53z" />
    <glyph glyph-name="ccaron" unicode="&#x10d;" horiz-adv-x="463" 
d="M385 65l14 -39q-73 -38 -164 -38q-96 0 -144 54t-48 127q0 131 88 227t213 96q39 0 75.5 -11t46.5 -20l-18 -39q-52 27 -111 27q-106 0 -176 -83t-70 -188q0 -68 38 -109t114 -41q73 0 142 37zM346 542h-38l-70 140h45l48 -103h3l84 103h48z" />
    <glyph glyph-name="Dcaron" unicode="&#x10e;" horiz-adv-x="698" 
d="M49 0l126 665q84 14 180 14q205 0 285 -112q49 -63 50 -168q0 -83 -34 -162t-101 -137q-124 -105 -334 -105q-98 0 -172 5zM215 630l-112 -589q48 -6 122 -6q201 0 310 104q106 100 106 253q0 51 -13.5 93t-45 78t-91 56.5t-143.5 20.5q-88 0 -133 -10zM424 710h-36
l-86 115h52l55 -78h4l84 78h53z" />
    <glyph glyph-name="dcaron" unicode="&#x10f;" horiz-adv-x="563" 
d="M515 716h47l-115 -600q-14 -79 -18 -116h-43l20 115h-2q-86 -127 -206 -127q-79 0 -118 53t-39 128q0 132 95 227.5t224 95.5q70 0 111 -19zM427 249l36 182q-44 21 -106 21q-110 0 -189 -80.5t-79 -200.5q0 -25 4.5 -47t16.5 -45.5t37.5 -37.5t62.5 -14q68 0 134.5 67.5
t82.5 154.5zM578 550l-8 27q58 19 58 75q0 34 -26 54l41 12q12 -7 21 -24.5t9 -35.5q0 -47 -28.5 -74.5t-66.5 -33.5z" />
    <glyph glyph-name="Dcroat" unicode="&#x110;" horiz-adv-x="698" 
d="M17 336l10 40h93l55 289q95 14 190 14q92 0 164.5 -29.5t110.5 -82.5q49 -63 50 -166q0 -80 -37 -160.5t-106 -137.5q-126 -106 -326 -106q-101 0 -172 6l63 333h-95zM377 376l-9 -40h-209l-56 -293q48 -6 129 -6q183 0 296 105q113 103 113 255q0 49 -14 90t-45 77
t-91 56t-143 20q-87 0 -132 -7l-49 -257h210z" />
    <glyph glyph-name="dcroat" unicode="&#x111;" 
d="M427 249l36 182q-44 21 -106 21q-110 0 -189 -80.5t-79 -200.5q0 -25 4.5 -47t16.5 -45.5t37.5 -37.5t62.5 -14q68 0 134 67.5t83 154.5zM271 598h223l21 118h47l-23 -118h90l-7 -37h-90l-85 -445q-14 -79 -18 -116h-43l20 115h-2q-86 -127 -206 -127q-79 0 -118 53
t-39 128q0 132 95 227.5t224 95.5q70 0 111 -19l16 88h-223z" />
    <glyph glyph-name="Emacron" unicode="&#x112;" horiz-adv-x="481" 
d="M439 376l-8 -40h-272l-56 -296h306l-8 -40h-353l129 674h336l-8 -40h-289l-49 -258h272zM245 772h227l-7 -40h-227z" />
    <glyph glyph-name="emacron" unicode="&#x113;" horiz-adv-x="460" 
d="M373 65l14 -37q-63 -40 -162 -40q-92 0 -138 57t-46 138q0 116 80.5 212.5t188.5 96.5q68 0 103.5 -33.5t35.5 -81.5q0 -49 -28.5 -81t-83 -46.5t-111.5 -19.5t-133 -3q-6 -22 -3.5 -57t12.5 -59q34 -83 129 -83q78 0 142 37zM401 373v1q0 38 -27.5 58t-71.5 20
q-70 0 -126.5 -57.5t-76.5 -128.5q66 -1 116 2.5t94.5 14.5t68 33.5t23.5 56.5zM212 641h207l-7 -39h-207z" />
    <glyph glyph-name="Ebreve" unicode="&#x114;" horiz-adv-x="481" 
d="M439 376l-8 -40h-272l-56 -296h306l-8 -40h-353l129 674h336l-8 -40h-289l-49 -258h272zM245 830h37q0 -57 68 -57q66 0 83 57h40q-8 -41 -40 -69t-83 -28q-58 0 -84 28t-21 69z" />
    <glyph glyph-name="ebreve" unicode="&#x115;" horiz-adv-x="460" 
d="M373 65l14 -37q-63 -40 -162 -40q-92 0 -138 57t-46 138q0 116 80.5 212.5t188.5 96.5q68 0 103.5 -33.5t35.5 -81.5q0 -49 -28.5 -81t-83 -46.5t-111.5 -19.5t-133 -3q-6 -22 -3.5 -57t12.5 -59q34 -83 129 -83q78 0 142 37zM401 373v1q0 38 -27.5 58t-71.5 20
q-70 0 -126.5 -57.5t-76.5 -128.5q66 -1 116 2.5t94.5 14.5t68 33.5t23.5 56.5zM205 684h38q-3 -32 14 -54.5t48 -22.5q68 0 91 77h41q-10 -53 -47 -85t-82 -32q-63 0 -86 35.5t-17 81.5z" />
    <glyph glyph-name="Edotaccent" unicode="&#x116;" horiz-adv-x="481" 
d="M439 376l-8 -40h-272l-56 -296h306l-8 -40h-353l129 674h336l-8 -40h-289l-49 -258h272zM356 724h-1q-15 0 -26 12.5t-11 28.5q0 15 11.5 28t27.5 13t27 -13t11 -28q0 -16 -11 -28.5t-28 -12.5z" />
    <glyph glyph-name="edotaccent" unicode="&#x117;" horiz-adv-x="460" 
d="M373 65l14 -37q-63 -40 -162 -40q-92 0 -138 57t-46 138q0 116 80.5 212.5t188.5 96.5q68 0 103.5 -33.5t35.5 -81.5q0 -49 -28.5 -81t-83 -46.5t-111.5 -19.5t-133 -3q-6 -22 -3.5 -57t12.5 -59q34 -83 129 -83q78 0 142 37zM401 373v1q0 38 -27.5 58t-71.5 20
q-70 0 -126.5 -57.5t-76.5 -128.5q66 -1 116 2.5t94.5 14.5t68 33.5t23.5 56.5zM328 585h-1q-16 0 -26 12t-10 28t11 28t27 12t26.5 -11.5t10.5 -28.5t-10 -28.5t-28 -11.5z" />
    <glyph glyph-name="Eogonek" unicode="&#x118;" horiz-adv-x="481" 
d="M48 0l129 674h336l-8 -40h-289l-49 -258h272l-8 -40h-272l-56 -296h306l-8 -40h-17q-37 -23 -65.5 -59.5t-28.5 -68.5q0 -34 34 -34q23 0 44 10l9 -30q-31 -18 -67 -18q-31 0 -49 18t-18 45q0 30 19 60.5t37 47t36 29.5h-287z" />
    <glyph glyph-name="eogonek" unicode="&#x119;" horiz-adv-x="460" 
d="M401 373v1q0 38 -27.5 58t-71.5 20q-70 0 -126.5 -57.5t-76.5 -128.5q66 -1 116 2.5t94.5 14.5t68 33.5t23.5 56.5zM328 -139l3 -33q-31 -12 -63 -12t-49 18t-17 47q0 60 67 109v1q-21 -3 -44 -3q-92 0 -138 57t-46 138q0 116 80.5 212.5t188.5 96.5q68 0 103.5 -33.5
t35.5 -81.5q0 -49 -28.5 -81t-83 -46.5t-111.5 -19.5t-133 -3q-6 -22 -3.5 -57t12.5 -59q34 -83 129 -83q78 0 142 37l14 -37q-3 -2 -11 -6l-12 -6q-115 -59 -115 -124q0 -40 35 -40q24 0 44 9z" />
    <glyph glyph-name="Ecaron" unicode="&#x11a;" horiz-adv-x="481" 
d="M439 376l-8 -40h-272l-56 -296h306l-8 -40h-353l129 674h336l-8 -40h-289l-49 -258h272zM356 710h-36l-86 115h52l55 -78h4l84 78h53z" />
    <glyph glyph-name="ecaron" unicode="&#x11b;" horiz-adv-x="460" 
d="M373 65l14 -37q-63 -40 -162 -40q-92 0 -138 57t-46 138q0 116 80.5 212.5t188.5 96.5q68 0 103.5 -33.5t35.5 -81.5q0 -49 -28.5 -81t-83 -46.5t-111.5 -19.5t-133 -3q-6 -22 -3.5 -57t12.5 -59q34 -83 129 -83q78 0 142 37zM401 373v1q0 38 -27.5 58t-71.5 20
q-70 0 -126.5 -57.5t-76.5 -128.5q66 -1 116 2.5t94.5 14.5t68 33.5t23.5 56.5zM314 542h-38l-70 140h45l48 -103h3l84 103h48z" />
    <glyph glyph-name="Gcircumflex" unicode="&#x11c;" horiz-adv-x="655" 
d="M615 332l-56 -300q-86 -39 -198 -39q-167 0 -245 97q-63 77 -63 196q0 76 33 153t93 132q123 110 293 110q64 0 110.5 -12.5t63.5 -25.5l-19 -39q-66 37 -167 37q-150 0 -259 -109q-47 -48 -73.5 -113.5t-26.5 -129.5q0 -118 66 -187t208 -69q81 0 142 28l44 231h-174
l7 40h221zM455 825h36l86 -115h-49l-59 79h-2l-85 -79h-53z" />
    <glyph glyph-name="gcircumflex" unicode="&#x11d;" 
d="M14 -172l18 38q58 -39 145 -39q166 0 214 212l21 93h-3q-34 -62 -89 -97t-119 -35q-78 0 -119 53.5t-41 117.5q0 133 92.5 227t221.5 94q39 0 85.5 -12t73.5 -26l-73 -390q-30 -158 -102 -221q-62 -55 -173 -55q-100 0 -152 40zM431 264l31 163q-50 25 -113 25
q-111 0 -185.5 -81.5t-74.5 -192.5q0 -23 5 -44.5t18 -44t39.5 -36.5t64.5 -14q69 0 134 70t81 155zM346 682h38l68 -140h-45l-47 102h-2l-81 -102h-49z" />
    <glyph glyph-name="Gbreve" unicode="&#x11e;" horiz-adv-x="655" 
d="M615 332l-56 -300q-86 -39 -198 -39q-167 0 -245 97q-63 77 -63 196q0 76 33 153t93 132q123 110 293 110q64 0 110.5 -12.5t63.5 -25.5l-19 -39q-66 37 -167 37q-150 0 -259 -109q-47 -48 -73.5 -113.5t-26.5 -129.5q0 -118 66 -187t208 -69q81 0 142 28l44 231h-174
l7 40h221zM340 824h37q0 -57 68 -57q66 0 83 57h40q-8 -41 -40 -69t-83 -28q-58 0 -84 28t-21 69z" />
    <glyph glyph-name="gbreve" unicode="&#x11f;" 
d="M14 -172l18 38q58 -39 145 -39q166 0 214 212l21 93h-3q-34 -62 -89 -97t-119 -35q-78 0 -119 53.5t-41 117.5q0 133 92.5 227t221.5 94q39 0 85.5 -12t73.5 -26l-73 -390q-30 -158 -102 -221q-62 -55 -173 -55q-100 0 -152 40zM431 264l31 163q-50 25 -113 25
q-111 0 -185.5 -81.5t-74.5 -192.5q0 -23 5 -44.5t18 -44t39.5 -36.5t64.5 -14q69 0 134 70t81 155zM252 684h38q-3 -32 14 -54.5t48 -22.5q68 0 91 77h41q-10 -53 -47 -85t-82 -32q-63 0 -86 35.5t-17 81.5z" />
    <glyph glyph-name="Gdotaccent" unicode="&#x120;" horiz-adv-x="655" 
d="M615 332l-56 -300q-86 -39 -198 -39q-167 0 -245 97q-63 77 -63 196q0 76 33 153t93 132q123 110 293 110q64 0 110.5 -12.5t63.5 -25.5l-19 -39q-66 37 -167 37q-150 0 -259 -109q-47 -48 -73.5 -113.5t-26.5 -129.5q0 -118 66 -187t208 -69q81 0 142 28l44 231h-174
l7 40h221zM465 724h-1q-15 0 -26 12.5t-11 28.5q0 15 11.5 28t27.5 13t27 -13t11 -28q0 -16 -11 -28.5t-28 -12.5z" />
    <glyph glyph-name="gdotaccent" unicode="&#x121;" 
d="M14 -172l18 38q58 -39 145 -39q166 0 214 212l21 93h-3q-34 -62 -89 -97t-119 -35q-78 0 -119 53.5t-41 117.5q0 133 92.5 227t221.5 94q39 0 85.5 -12t73.5 -26l-73 -390q-30 -158 -102 -221q-62 -55 -173 -55q-100 0 -152 40zM431 264l31 163q-50 25 -113 25
q-111 0 -185.5 -81.5t-74.5 -192.5q0 -23 5 -44.5t18 -44t39.5 -36.5t64.5 -14q69 0 134 70t81 155zM355 585h-1q-16 0 -26 12t-10 28t11 28t27 12t26.5 -11.5t10.5 -28.5t-10 -28.5t-28 -11.5z" />
    <glyph glyph-name="Gcommaaccent" unicode="&#x122;" horiz-adv-x="655" 
d="M615 332l-56 -300q-86 -39 -198 -39q-167 0 -245 97q-63 77 -63 196q0 76 33 153t93 132q123 110 293 110q64 0 110.5 -12.5t63.5 -25.5l-19 -39q-66 37 -167 37q-150 0 -259 -109q-47 -48 -73.5 -113.5t-26.5 -129.5q0 -118 66 -187t208 -69q81 0 142 28l44 231h-174
l7 40h221zM191 -210l-8 27q98 15 98 80q0 29 -26 49l41 12q30 -20 30 -57q0 -49 -40 -77t-95 -34z" />
    <glyph glyph-name="gcommaaccent" unicode="&#x123;" 
d="M14 -172l18 38q58 -39 145 -39q166 0 214 212l21 93h-3q-34 -62 -89 -97t-119 -35q-78 0 -119 53.5t-41 117.5q0 133 92.5 227t221.5 94q39 0 85.5 -12t73.5 -26l-73 -390q-30 -158 -102 -221q-62 -55 -173 -55q-100 0 -152 40zM431 264l31 163q-50 25 -113 25
q-111 0 -185.5 -81.5t-74.5 -192.5q0 -23 5 -44.5t18 -44t39.5 -36.5t64.5 -14q69 0 134 70t81 155zM435 702l8 -27q-98 -15 -98 -80q0 -29 26 -49l-41 -12q-30 20 -30 57q0 49 40 77t95 34z" />
    <glyph glyph-name="Hcircumflex" unicode="&#x124;" horiz-adv-x="664" 
d="M177 674h47l-57 -296h394l57 296h47l-129 -674h-47l64 338h-394l-64 -338h-47zM429 825h36l86 -115h-49l-59 79h-2l-85 -79h-53z" />
    <glyph glyph-name="hcircumflex" unicode="&#x125;" horiz-adv-x="567" 
d="M95 0h-47l137 716h47l-68 -344h2q34 55 87 87.5t118 32.5q18 0 37 -5t42 -18.5t38 -43.5t15 -73q0 -45 -7 -80l-52 -272h-47l52 272q7 35 7 72q0 47 -26 77t-79 30q-63 0 -129 -58.5t-82 -146.5zM203 855h36l86 -115h-49l-59 79h-2l-85 -79h-53z" />
    <glyph glyph-name="Hbar" unicode="&#x126;" horiz-adv-x="664" 
d="M581 485h-394l-22 -115h394zM74 522h74l29 152h47l-29 -152h394l29 152h47l-29 -152h66l-7 -37h-66l-93 -485h-47l62 330h-394l-62 -330h-47l93 485h-74z" />
    <glyph glyph-name="hbar" unicode="&#x127;" horiz-adv-x="567" 
d="M71 599h92l22 117h47l-23 -117h221l-7 -37h-221l-38 -190h2q34 55 87 87.5t118 32.5q18 0 37 -5t42 -18.5t38 -43.5t15 -73q0 -45 -7 -80l-52 -272h-47l52 272q7 35 7 72q0 47 -26 77t-79 30q-63 0 -129 -58.5t-82 -146.5l-45 -246h-47l108 562h-92z" />
    <glyph glyph-name="Itilde" unicode="&#x128;" horiz-adv-x="223" 
d="M177 674h47l-129 -674h-47zM124 715h-33q7 35 27 61t47 26q31 0 64 -22q25 -17 48 -17q24 0 35 39h33q-17 -82 -74 -82q-26 0 -62 20q-34 20 -48 19q-25 -1 -37 -44z" />
    <glyph glyph-name="itilde" unicode="&#x129;" horiz-adv-x="223" 
d="M95 0h-47l92 480h47zM104 578h-34q5 36 22.5 61t45.5 25q8 0 14 -1t13.5 -4t11 -4.5t13.5 -7.5t14 -8q26 -15 41 -15q13 0 19 9t10 34h34q-6 -41 -20.5 -62t-44.5 -21q-27 0 -61 21q-31 19 -46 19q-10 0 -17 -7t-9.5 -15t-5.5 -24z" />
    <glyph glyph-name="Imacron" unicode="&#x12a;" horiz-adv-x="223" 
d="M177 674h47l-129 -674h-47zM106 772h227l-7 -40h-227z" />
    <glyph glyph-name="imacron" unicode="&#x12b;" horiz-adv-x="223" 
d="M95 0h-47l92 480h47zM94 641h207l-7 -39h-207z" />
    <glyph glyph-name="Ibreve" unicode="&#x12c;" horiz-adv-x="223" 
d="M177 674h47l-129 -674h-47zM116 830h37q0 -57 68 -57q66 0 83 57h40q-8 -41 -40 -69t-83 -28q-58 0 -84 28t-21 69z" />
    <glyph glyph-name="ibreve" unicode="&#x12d;" horiz-adv-x="223" 
d="M95 0h-47l92 480h47zM87 684h38q-3 -32 14 -54.5t48 -22.5q68 0 91 77h41q-10 -53 -47 -85t-82 -32q-63 0 -86 35.5t-17 81.5z" />
    <glyph glyph-name="Iogonek" unicode="&#x12e;" horiz-adv-x="223" 
d="M224 674l-129 -674h-8q-66 -71 -66 -120q0 -18 10.5 -29t27.5 -11q20 0 41 11l10 -29q-22 -20 -66 -20q-33 0 -51.5 19.5t-18.5 50.5q0 11 3 23.5t9.5 24.5t12.5 22.5t15 21.5t14 17t13 15l8 9l128 669h47z" />
    <glyph glyph-name="iogonek" unicode="&#x12f;" horiz-adv-x="223" 
d="M189 588h-1q-17 0 -27 13t-10 30t11 30t28 13t27.5 -12.5t11.5 -30.5q-1 -18 -11.5 -30.5t-28.5 -12.5zM187 480l-92 -480h-8q-66 -71 -66 -120q0 -18 10.5 -29t27.5 -11q20 0 41 11l10 -29q-22 -20 -66 -20q-33 0 -51.5 19.5t-18.5 50.5q0 11 3 23.5t9.5 24.5t12.5 22.5
t15 21.5t14 17t13 15l8 9l91 475h47z" />
    <glyph glyph-name="Idotaccent" unicode="&#x130;" horiz-adv-x="223" 
d="M177 674h47l-129 -674h-47zM217 724h-1q-15 0 -26 12.5t-11 28.5q0 15 11.5 28t27.5 13t27 -13t11 -28q0 -16 -11 -28.5t-28 -12.5z" />
    <glyph glyph-name="dotlessi" unicode="&#x131;" horiz-adv-x="223" 
d="M95 0h-47l92 480h47z" />
    <glyph glyph-name="IJ" unicode="&#x132;" horiz-adv-x="599" 
d="M177 674h47l-129 -674h-47zM474 216l87 458h47l-87 -459q-22 -118 -73.5 -172.5t-144.5 -54.5q-73 0 -106 21l13 40q38 -19 102 -19t103.5 41.5t58.5 144.5z" />
    <glyph glyph-name="ij" unicode="&#x133;" horiz-adv-x="431" 
d="M95 0h-47l92 480h47zM189 581h-1q-16 0 -26 12.5t-10 29.5t10.5 29.5t27.5 12.5t27 -12t11 -30q-1 -17 -11 -29.5t-28 -12.5zM358 480h47l-93 -484q-24 -123 -62 -164q-41 -44 -102 -44q-33 0 -50 6l7 38q13 -5 45 -5q42 0 69 33.5t42 112.5zM402 581h-1q-16 0 -26 12.5
t-10 29.5t10.5 29.5t27.5 12.5t27 -12t11 -30q-1 -17 -11 -29.5t-28 -12.5z" />
    <glyph glyph-name="Jcircumflex" unicode="&#x134;" horiz-adv-x="376" 
d="M251 216l87 458h47l-87 -459q-22 -118 -73.5 -172.5t-144.5 -54.5q-73 0 -106 21l13 40q38 -19 102 -19t103.5 41.5t58.5 144.5zM375 825h36l86 -115h-49l-59 79h-2l-85 -79h-53z" />
    <glyph glyph-name="jcircumflex" unicode="&#x135;" horiz-adv-x="208" 
d="M135 480h47l-93 -484q-24 -123 -62 -164q-41 -44 -102 -44q-33 0 -50 6l7 38q13 -5 45 -5q42 0 69 33.5t42 112.5zM174 682h38l68 -140h-45l-47 102h-2l-81 -102h-49z" />
    <glyph glyph-name="Kcommaaccent" unicode="&#x136;" horiz-adv-x="508" 
d="M48 0l129 674h47l-66 -348l6 1q15 17 42.5 43t30.5 29l293 275h60l-311 -291l209 -383h-52l-193 354l-96 -84l-52 -270h-47zM107 -210l-8 27q98 15 98 80q0 29 -26 49l41 12q30 -20 30 -57q0 -49 -40 -77t-95 -34z" />
    <glyph glyph-name="kcommaaccent" unicode="&#x137;" horiz-adv-x="444" 
d="M95 0h-47l137 716h47l-90 -469h2q16 17 51 47l216 186h58l-227 -197l164 -283h-51l-149 257l-74 -59zM75 -210l-8 27q98 15 98 80q0 29 -26 49l41 12q30 -20 30 -57q0 -49 -40 -77t-95 -34z" />
    <glyph glyph-name="kgreenlandic" unicode="&#x138;" horiz-adv-x="444" 
d="M95 0h-47l92 480h47l-45 -233h2q16 17 51 47l216 186h58l-227 -197l164 -283h-51l-149 257l-74 -59z" />
    <glyph glyph-name="Lacute" unicode="&#x139;" horiz-adv-x="450" 
d="M48 0l129 674h47l-122 -634h307l-8 -40h-353zM300 825h81l-144 -115h-45z" />
    <glyph glyph-name="lacute" unicode="&#x13a;" horiz-adv-x="223" 
d="M95 0h-47l137 716h47zM283 861h81l-144 -115h-45z" />
    <glyph glyph-name="Lcommaaccent" unicode="&#x13b;" horiz-adv-x="450" 
d="M48 0l129 674h47l-122 -634h307l-8 -40h-353zM103 -210l-8 27q98 15 98 80q0 29 -26 49l41 12q30 -20 30 -57q0 -49 -40 -77t-95 -34z" />
    <glyph glyph-name="lcommaaccent" unicode="&#x13c;" horiz-adv-x="223" 
d="M95 0h-47l137 716h47zM-35 -210l-8 27q98 15 98 80q0 29 -26 49l41 12q30 -20 30 -57q0 -49 -40 -77t-95 -34z" />
    <glyph glyph-name="Lcaron" unicode="&#x13d;" horiz-adv-x="450" 
d="M48 0l129 674h47l-122 -634h307l-8 -40h-353zM278 510l-8 27q98 15 98 80q0 29 -26 49l41 12q30 -20 30 -57q0 -49 -40 -77t-95 -34z" />
    <glyph glyph-name="lcaron" unicode="&#x13e;" horiz-adv-x="233" 
d="M95 0h-47l137 716h47zM243 550l-8 27q58 19 58 75q0 34 -26 54l41 12q12 -7 21 -24.5t9 -35.5q0 -47 -28.5 -74.5t-66.5 -33.5z" />
    <glyph glyph-name="Ldot" unicode="&#x13f;" horiz-adv-x="450" 
d="M48 0l129 674h47l-122 -634h307l-8 -40h-353zM330 320h-1q-15 0 -26 12.5t-11 28.5q0 15 11.5 28t27.5 13t27 -13t11 -28q0 -16 -11 -28.5t-28 -12.5z" />
    <glyph glyph-name="ldot" unicode="&#x140;" horiz-adv-x="223" 
d="M95 0h-47l137 716h47zM253 335h-1q-16 0 -26 12t-10 28t11 28t27 12t26.5 -11.5t10.5 -28.5t-10 -28.5t-28 -11.5z" />
    <glyph glyph-name="Lslash" unicode="&#x141;" horiz-adv-x="450" 
d="M401 0h-353l57 298l-107 -65l9 44l106 64l64 333h47l-58 -302l148 90l-9 -45l-147 -89l-55 -288h306z" />
    <glyph glyph-name="lslash" unicode="&#x142;" horiz-adv-x="223" 
d="M95 0h-47l61 321l-76 -49l8 42l76 49l68 353h47l-61 -319l76 50l-8 -42l-76 -50z" />
    <glyph glyph-name="Nacute" unicode="&#x143;" horiz-adv-x="674" 
d="M94 0h-46l129 674h43l233 -470q43 -86 66 -155l2 2q3 68 26 194l82 429h46l-129 -674h-41l-227 463q-54 110 -70 159l-3 -2q-11 -92 -30 -193zM497 825h81l-144 -115h-45z" />
    <glyph glyph-name="nacute" unicode="&#x144;" horiz-adv-x="567" 
d="M95 0h-47l69 364q11 54 19 116h44l-16 -110h2q32 55 86.5 88.5t116.5 33.5q15 0 30 -2.5t34.5 -12t34.5 -24.5t25.5 -43.5t10.5 -66.5q0 -27 -9 -77l-51 -266h-47l52 273q7 42 7 63q0 115 -107 115q-61 0 -127.5 -59.5t-83.5 -155.5zM423 682h79l-144 -140h-43z" />
    <glyph glyph-name="Ncommaaccent" unicode="&#x145;" horiz-adv-x="674" 
d="M94 0h-46l129 674h43l233 -470q43 -86 66 -155l2 2q3 68 26 194l82 429h46l-129 -674h-41l-227 463q-54 110 -70 159l-3 -2q-11 -92 -30 -193zM205 -210l-8 27q98 15 98 80q0 29 -26 49l41 12q30 -20 30 -57q0 -49 -40 -77t-95 -34z" />
    <glyph glyph-name="ncommaaccent" unicode="&#x146;" horiz-adv-x="567" 
d="M95 0h-47l69 364q11 54 19 116h44l-16 -110h2q32 55 86.5 88.5t116.5 33.5q15 0 30 -2.5t34.5 -12t34.5 -24.5t25.5 -43.5t10.5 -66.5q0 -27 -9 -77l-51 -266h-47l52 273q7 42 7 63q0 115 -107 115q-61 0 -127.5 -59.5t-83.5 -155.5zM137 -210l-8 27q98 15 98 80
q0 29 -26 49l41 12q30 -20 30 -57q0 -49 -40 -77t-95 -34z" />
    <glyph glyph-name="Ncaron" unicode="&#x147;" horiz-adv-x="674" 
d="M94 0h-46l129 674h43l233 -470q43 -86 66 -155l2 2q3 68 26 194l82 429h46l-129 -674h-41l-227 463q-54 110 -70 159l-3 -2q-11 -92 -30 -193zM452 710h-36l-86 115h52l55 -78h4l84 78h53z" />
    <glyph glyph-name="ncaron" unicode="&#x148;" horiz-adv-x="567" 
d="M95 0h-47l69 364q11 54 19 116h44l-16 -110h2q32 55 86.5 88.5t116.5 33.5q15 0 30 -2.5t34.5 -12t34.5 -24.5t25.5 -43.5t10.5 -66.5q0 -27 -9 -77l-51 -266h-47l52 273q7 42 7 63q0 115 -107 115q-61 0 -127.5 -59.5t-83.5 -155.5zM353 542h-38l-70 140h45l48 -103h3
l84 103h48z" />
    <glyph glyph-name="napostrophe" unicode="&#x149;" horiz-adv-x="567" 
d="M95 0h-47l69 364q11 54 19 116h44l-16 -110h2q32 55 86.5 88.5t116.5 33.5q15 0 30 -2.5t34.5 -12t34.5 -24.5t25.5 -43.5t10.5 -66.5q0 -27 -9 -77l-51 -266h-47l52 273q7 42 7 63q0 115 -107 115q-61 0 -127.5 -59.5t-83.5 -155.5zM93 550l-8 27q58 19 58 75
q0 34 -26 54l41 12q12 -7 21 -24.5t9 -35.5q0 -47 -28.5 -74.5t-66.5 -33.5z" />
    <glyph glyph-name="Eng" unicode="&#x14a;" horiz-adv-x="674" 
d="M332 -194l1 38q72 5 111.5 40.5t58.5 119.5l-225 459q-54 110 -70 159l-3 -2q-11 -92 -30 -193l-81 -427h-46l129 674h43l233 -470q43 -86 66 -155l2 2q3 76 26 194l82 429h46l-127 -664q-12 -62 -33 -104t-51 -62.5t-60.5 -28.5t-71.5 -9z" />
    <glyph glyph-name="eng" unicode="&#x14b;" horiz-adv-x="567" 
d="M229 -171l-3 41q36 6 60.5 15t51 30.5t44.5 61.5t30 100l37 196q7 42 7 63q0 115 -107 115q-61 0 -127.5 -59.5t-83.5 -155.5l-43 -236h-47l69 364q14 80 19 116h44l-16 -110h2q32 55 86.5 88.5t116.5 33.5q15 0 30 -2.5t34.5 -12t34.5 -24.5t25.5 -43.5t10.5 -66.5
q0 -27 -9 -77l-40 -208q-22 -111 -78.5 -164.5t-147.5 -64.5z" />
    <glyph glyph-name="Omacron" unicode="&#x14c;" horiz-adv-x="721" 
d="M337 -12h-1q-137 0 -210 83t-73 208q0 85 33.5 165.5t94.5 140.5q46 46 113 73.5t135 27.5q74 0 130.5 -24t89 -66t48.5 -92.5t16 -108.5q0 -178 -121 -301q-106 -106 -255 -106zM342 28h1q124 0 215 93q107 107 107 273q0 34 -5.5 65.5t-22 66.5t-42.5 61t-70.5 42.5
t-102.5 16.5q-120 0 -212 -92q-51 -51 -80 -122t-29 -148q0 -111 60 -183.5t181 -72.5zM355 772h227l-7 -40h-227z" />
    <glyph glyph-name="omacron" unicode="&#x14d;" 
d="M249 -12h-1q-96 0 -150 62t-54 146q0 126 79.5 211t192.5 85q102 0 154 -64t52 -154q0 -111 -78.5 -198.5t-194.5 -87.5zM252 27h1q87 0 154 71t67 178q0 27 -8 55.5t-25.5 57t-50.5 46.5t-76 18q-94 0 -158 -74t-64 -181q0 -75 45.5 -123t114.5 -48zM259 641h207l-7 -39
h-207z" />
    <glyph glyph-name="Obreve" unicode="&#x14e;" horiz-adv-x="721" 
d="M337 -12h-1q-137 0 -210 83t-73 208q0 85 33.5 165.5t94.5 140.5q46 46 113 73.5t135 27.5q74 0 130.5 -24t89 -66t48.5 -92.5t16 -108.5q0 -178 -121 -301q-106 -106 -255 -106zM342 28h1q124 0 215 93q107 107 107 273q0 34 -5.5 65.5t-22 66.5t-42.5 61t-70.5 42.5
t-102.5 16.5q-120 0 -212 -92q-51 -51 -80 -122t-29 -148q0 -111 60 -183.5t181 -72.5zM365 830h37q0 -57 68 -57q66 0 83 57h40q-8 -41 -40 -69t-83 -28q-58 0 -84 28t-21 69z" />
    <glyph glyph-name="obreve" unicode="&#x14f;" 
d="M249 -12h-1q-96 0 -150 62t-54 146q0 126 79.5 211t192.5 85q102 0 154 -64t52 -154q0 -111 -78.5 -198.5t-194.5 -87.5zM252 27h1q87 0 154 71t67 178q0 27 -8 55.5t-25.5 57t-50.5 46.5t-76 18q-94 0 -158 -74t-64 -181q0 -75 45.5 -123t114.5 -48zM244 684h38
q-3 -32 14 -54.5t48 -22.5q68 0 91 77h41q-10 -53 -47 -85t-82 -32q-63 0 -86 35.5t-17 81.5z" />
    <glyph glyph-name="Ohungarumlaut" unicode="&#x150;" horiz-adv-x="721" 
d="M337 -12h-1q-137 0 -210 83t-73 208q0 85 33.5 165.5t94.5 140.5q46 46 113 73.5t135 27.5q74 0 130.5 -24t89 -66t48.5 -92.5t16 -108.5q0 -178 -121 -301q-106 -106 -255 -106zM342 28h1q124 0 215 93q107 107 107 273q0 34 -5.5 65.5t-22 66.5t-42.5 61t-70.5 42.5
t-102.5 16.5q-120 0 -212 -92q-51 -51 -80 -122t-29 -148q0 -111 60 -183.5t181 -72.5zM451 825h69l-134 -115h-38zM581 825h69l-134 -115h-38z" />
    <glyph glyph-name="ohungarumlaut" unicode="&#x151;" 
d="M249 -12h-1q-96 0 -150 62t-54 146q0 126 79.5 211t192.5 85q102 0 154 -64t52 -154q0 -111 -78.5 -198.5t-194.5 -87.5zM252 27h1q87 0 154 71t67 178q0 27 -8 55.5t-25.5 57t-50.5 46.5t-76 18q-94 0 -158 -74t-64 -181q0 -75 45.5 -123t114.5 -48zM331 681h69
l-136 -140h-38zM461 681h69l-136 -140h-38z" />
    <glyph glyph-name="OE" unicode="&#x152;" horiz-adv-x="930" 
d="M857 40l-8 -40h-336q-20 0 -72 -2q-31 -3 -76 -3q-155 0 -233.5 86.5t-78.5 209.5q0 78 28 147t81.5 123.5t139.5 86t194 31.5q49 0 78 -2q45 -3 73 -3h314l-8 -40h-304l-49 -260h287l-8 -40h-287l-56 -294h321zM490 43l111 589q-35 7 -106 7q-190 0 -292 -97t-102 -249
q0 -52 14.5 -96t45.5 -81.5t88.5 -59t135.5 -21.5q56 0 105 8z" />
    <glyph glyph-name="oe" unicode="&#x153;" horiz-adv-x="865" 
d="M777 67l15 -37q-21 -15 -63.5 -28.5t-93.5 -13.5q-69 0 -117 34.5t-60 101.5h-3q-37 -68 -95 -102t-123 -34q-88 0 -140.5 61.5t-52.5 145.5q0 125 78.5 211t193.5 86q74 0 121 -38t59 -103h2q37 68 99.5 104.5t122.5 36.5q73 0 103.5 -34t30.5 -76q0 -30 -11.5 -53
t-27.5 -37.5t-47.5 -25t-55.5 -16t-68.5 -8.5t-69.5 -3.5t-74 -0.5q-16 -68 9 -129q34 -80 132 -80q77 0 136 38zM247 27h1q86 0 149 79t63 177q0 44 -12 80t-46.5 63t-88.5 27q-96 0 -158.5 -75t-62.5 -180q0 -76 43.5 -123.5t111.5 -47.5zM807 380v1q0 33 -26.5 52.5
t-69.5 19.5q-73 0 -128.5 -55.5t-75.5 -121.5q47 0 74.5 1t67.5 4t64 10t48 18t35 29t11 42z" />
    <glyph glyph-name="Racute" unicode="&#x154;" horiz-adv-x="527" 
d="M48 0l127 665q65 14 139 14q117 0 166 -60q35 -41 35 -99q0 -70 -52 -124.5t-120 -69.5v-2q76 -20 85 -136q14 -162 21 -188h-50q-8 34 -15 163q-7 147 -120 147h-110l-59 -310h-47zM216 631l-54 -282h98q94 0 150 49.5t56 116.5q0 64 -44 95t-117 31q-57 0 -89 -10z
M404 825h81l-144 -115h-45z" />
    <glyph glyph-name="racute" unicode="&#x155;" horiz-adv-x="308" 
d="M95 0h-47l62 325q17 89 26 155h43q-12 -74 -19 -112h3q25 56 64 90t87 34q17 0 26 -3l-9 -46q-11 3 -29 3q-46 0 -97 -63.5t-69 -162.5zM313 682h79l-144 -140h-43z" />
    <glyph glyph-name="Rcommaaccent" unicode="&#x156;" horiz-adv-x="527" 
d="M48 0l127 665q65 14 139 14q117 0 166 -60q35 -41 35 -99q0 -70 -52 -124.5t-120 -69.5v-2q76 -20 85 -136q14 -162 21 -188h-50q-8 34 -15 163q-7 147 -120 147h-110l-59 -310h-47zM216 631l-54 -282h98q94 0 150 49.5t56 116.5q0 64 -44 95t-117 31q-57 0 -89 -10z
M117 -210l-8 27q98 15 98 80q0 29 -26 49l41 12q30 -20 30 -57q0 -49 -40 -77t-95 -34z" />
    <glyph glyph-name="rcommaaccent" unicode="&#x157;" horiz-adv-x="308" 
d="M95 0h-47l62 325q17 89 26 155h43q-12 -74 -19 -112h3q25 56 64 90t87 34q17 0 26 -3l-9 -46q-11 3 -29 3q-46 0 -97 -63.5t-69 -162.5zM7 -210l-8 27q98 15 98 80q0 29 -26 49l41 12q30 -20 30 -57q0 -49 -40 -77t-95 -34z" />
    <glyph glyph-name="Rcaron" unicode="&#x158;" horiz-adv-x="527" 
d="M48 0l127 665q65 14 139 14q117 0 166 -60q35 -41 35 -99q0 -70 -52 -124.5t-120 -69.5v-2q76 -20 85 -136q14 -162 21 -188h-50q-8 34 -15 163q-7 147 -120 147h-110l-59 -310h-47zM216 631l-54 -282h98q94 0 150 49.5t56 116.5q0 64 -44 95t-117 31q-57 0 -89 -10z
M343 710h-36l-86 115h52l55 -78h4l84 78h53z" />
    <glyph glyph-name="rcaron" unicode="&#x159;" horiz-adv-x="308" 
d="M95 0h-47l62 325q17 89 26 155h43q-12 -74 -19 -112h3q25 56 64 90t87 34q17 0 26 -3l-9 -46q-11 3 -29 3q-46 0 -97 -63.5t-69 -162.5zM254 542h-38l-70 140h45l48 -103h3l84 103h48z" />
    <glyph glyph-name="Sacute" unicode="&#x15a;" horiz-adv-x="477" 
d="M27 40l20 37q68 -49 149 -49q71 0 125.5 41t54.5 115q0 45 -26 79t-88 64q-79 38 -112.5 79.5t-33.5 90.5q0 85 63.5 137t151.5 52q44 0 82.5 -13t56.5 -28l-21 -36q-57 38 -124 38q-71 0 -117 -42t-46 -94q0 -49 25.5 -79t94.5 -64q75 -36 107.5 -78t32.5 -107
q0 -76 -61.5 -135.5t-174.5 -59.5q-42 0 -89.5 15t-69.5 37zM399 826h81l-144 -115h-45z" />
    <glyph glyph-name="sacute" unicode="&#x15b;" horiz-adv-x="374" 
d="M27 19l17 38q43 -29 95 -29q50 0 83.5 30t33.5 71q0 34 -16 57t-62 48q-82 44 -82 120q0 56 45.5 97t111.5 41q61 0 92 -25l-17 -40q-35 25 -81 25q-44 0 -74.5 -27t-30.5 -65q0 -32 18 -53.5t60 -44.5q83 -45 83 -122q0 -68 -49 -110t-118 -42q-68 0 -109 31zM316 682
h79l-144 -140h-43z" />
    <glyph glyph-name="Scircumflex" unicode="&#x15c;" horiz-adv-x="477" 
d="M27 40l20 37q68 -49 149 -49q71 0 125.5 41t54.5 115q0 45 -26 79t-88 64q-79 38 -112.5 79.5t-33.5 90.5q0 85 63.5 137t151.5 52q44 0 82.5 -13t56.5 -28l-21 -36q-57 38 -124 38q-71 0 -117 -42t-46 -94q0 -49 25.5 -79t94.5 -64q75 -36 107.5 -78t32.5 -107
q0 -76 -61.5 -135.5t-174.5 -59.5q-42 0 -89.5 15t-69.5 37zM336 825h36l86 -115h-49l-59 79h-2l-85 -79h-53z" />
    <glyph glyph-name="scircumflex" unicode="&#x15d;" horiz-adv-x="374" 
d="M27 19l17 38q43 -29 95 -29q50 0 83.5 30t33.5 71q0 34 -16 57t-62 48q-82 44 -82 120q0 56 45.5 97t111.5 41q61 0 92 -25l-17 -40q-35 25 -81 25q-44 0 -74.5 -27t-30.5 -65q0 -32 18 -53.5t60 -44.5q83 -45 83 -122q0 -68 -49 -110t-118 -42q-68 0 -109 31zM256 682
h38l68 -140h-45l-47 102h-2l-81 -102h-49z" />
    <glyph glyph-name="Scedilla" unicode="&#x15e;" horiz-adv-x="477" 
d="M470 645l-21 -36q-57 38 -124 38q-71 0 -117 -42t-46 -94q0 -49 25.5 -79t94.5 -64q75 -36 107.5 -78t32.5 -107q0 -64 -45 -118.5t-128 -70.5l-38 -48q23 -4 36 -20.5t13 -40.5q0 -36 -29.5 -59.5t-74.5 -23.5q-35 0 -57 14l16 36q19 -13 51 -13q20 0 34.5 11.5
t14.5 30.5q0 32 -62 38l54 70q-3 0 -10 -0.5t-11 -0.5q-42 0 -89.5 15t-69.5 37l20 37q68 -49 149 -49q71 0 125.5 41t54.5 115q0 45 -26 79t-88 64q-79 38 -112.5 79.5t-33.5 90.5q0 85 63.5 137t151.5 52q44 0 82.5 -13t56.5 -28z" />
    <glyph glyph-name="Scedilla" unicode="&#xf6c1;" horiz-adv-x="477" 
d="M470 645l-21 -36q-57 38 -124 38q-71 0 -117 -42t-46 -94q0 -49 25.5 -79t94.5 -64q75 -36 107.5 -78t32.5 -107q0 -64 -45 -118.5t-128 -70.5l-38 -48q23 -4 36 -20.5t13 -40.5q0 -36 -29.5 -59.5t-74.5 -23.5q-35 0 -57 14l16 36q19 -13 51 -13q20 0 34.5 11.5
t14.5 30.5q0 32 -62 38l54 70q-3 0 -10 -0.5t-11 -0.5q-42 0 -89.5 15t-69.5 37l20 37q68 -49 149 -49q71 0 125.5 41t54.5 115q0 45 -26 79t-88 64q-79 38 -112.5 79.5t-33.5 90.5q0 85 63.5 137t151.5 52q44 0 82.5 -13t56.5 -28z" />
    <glyph glyph-name="scedilla" unicode="&#x15f;" horiz-adv-x="374" 
d="M345 467l-17 -40q-35 25 -81 25q-44 0 -74.5 -27t-30.5 -65q0 -32 18 -53.5t60 -44.5q83 -45 83 -122q0 -55 -34 -94t-86 -52l-38 -48q23 -4 36 -20.5t13 -40.5q0 -36 -29.5 -59.5t-74.5 -23.5q-35 0 -57 14l16 36q19 -13 51 -13q20 0 34.5 11.5t14.5 30.5q0 32 -62 38
l54 69h-5q-68 0 -109 31l17 38q43 -29 95 -29q50 0 83.5 30t33.5 71q0 34 -16 57t-62 48q-82 44 -82 120q0 56 45.5 97t111.5 41q61 0 92 -25z" />
    <glyph glyph-name="scedilla" unicode="&#xf6c2;" horiz-adv-x="374" 
d="M345 467l-17 -40q-35 25 -81 25q-44 0 -74.5 -27t-30.5 -65q0 -32 18 -53.5t60 -44.5q83 -45 83 -122q0 -55 -34 -94t-86 -52l-38 -48q23 -4 36 -20.5t13 -40.5q0 -36 -29.5 -59.5t-74.5 -23.5q-35 0 -57 14l16 36q19 -13 51 -13q20 0 34.5 11.5t14.5 30.5q0 32 -62 38
l54 69h-5q-68 0 -109 31l17 38q43 -29 95 -29q50 0 83.5 30t33.5 71q0 34 -16 57t-62 48q-82 44 -82 120q0 56 45.5 97t111.5 41q61 0 92 -25z" />
    <glyph glyph-name="Scaron" unicode="&#x160;" horiz-adv-x="477" 
d="M27 40l20 37q68 -49 149 -49q71 0 125.5 41t54.5 115q0 45 -26 79t-88 64q-79 38 -112.5 79.5t-33.5 90.5q0 85 63.5 137t151.5 52q44 0 82.5 -13t56.5 -28l-21 -36q-57 38 -124 38q-71 0 -117 -42t-46 -94q0 -49 25.5 -79t94.5 -64q75 -36 107.5 -78t32.5 -107
q0 -76 -61.5 -135.5t-174.5 -59.5q-42 0 -89.5 15t-69.5 37zM344 710h-36l-86 115h52l55 -78h4l84 78h53z" />
    <glyph glyph-name="scaron" unicode="&#x161;" horiz-adv-x="374" 
d="M27 19l17 38q43 -29 95 -29q50 0 83.5 30t33.5 71q0 34 -16 57t-62 48q-82 44 -82 120q0 56 45.5 97t111.5 41q61 0 92 -25l-17 -40q-35 25 -81 25q-44 0 -74.5 -27t-30.5 -65q0 -32 18 -53.5t60 -44.5q83 -45 83 -122q0 -68 -49 -110t-118 -42q-68 0 -109 31zM271 542
h-38l-70 140h45l48 -103h3l84 103h48z" />
    <glyph glyph-name="Tcommaaccent" unicode="&#x162;" horiz-adv-x="480" 
d="M172 0l121 634h-237l8 40h521l-8 -40h-237l-121 -634h-47zM93 -210l-8 27q98 15 98 80q0 29 -26 49l41 12q30 -20 30 -57q0 -49 -40 -77t-95 -34z" />
    <glyph glyph-name="Tcommaaccent" unicode="&#x21a;" horiz-adv-x="480" 
d="M172 0l121 634h-237l8 40h521l-8 -40h-237l-121 -634h-47zM93 -210l-8 27q98 15 98 80q0 29 -26 49l41 12q30 -20 30 -57q0 -49 -40 -77t-95 -34z" />
    <glyph glyph-name="tcommaaccent" unicode="&#x163;" horiz-adv-x="318" 
d="M177 571l50 15l-20 -106h133l-8 -38h-133l-50 -268q-11 -59 -11 -91q0 -56 54 -56q26 0 43 6l5 -37q-19 -8 -56 -8q-50 0 -72 28t-22 68q0 41 11 94l51 264h-78l8 38h78zM22 -210l-8 27q98 15 98 80q0 29 -26 49l41 12q30 -20 30 -57q0 -49 -40 -77t-95 -34z" />
    <glyph glyph-name="tcommaaccent" unicode="&#x21b;" horiz-adv-x="318" 
d="M177 571l50 15l-20 -106h133l-8 -38h-133l-50 -268q-11 -59 -11 -91q0 -56 54 -56q26 0 43 6l5 -37q-19 -8 -56 -8q-50 0 -72 28t-22 68q0 41 11 94l51 264h-78l8 38h78zM22 -210l-8 27q98 15 98 80q0 29 -26 49l41 12q30 -20 30 -57q0 -49 -40 -77t-95 -34z" />
    <glyph glyph-name="Tcaron" unicode="&#x164;" horiz-adv-x="480" 
d="M172 0l121 634h-237l8 40h521l-8 -40h-237l-121 -634h-47zM348 710h-36l-86 115h52l55 -78h4l84 78h53z" />
    <glyph glyph-name="tcaron" unicode="&#x165;" horiz-adv-x="318" 
d="M177 571l50 15l-20 -106h133l-8 -38h-133l-50 -268q-11 -59 -11 -91q0 -56 54 -56q26 0 43 6l5 -37q-19 -8 -56 -8q-50 0 -72 28t-22 68q0 41 11 94l51 264h-78l8 38h78zM303 550l-8 27q58 19 58 75q0 34 -26 54l41 12q12 -7 21 -24.5t9 -35.5q0 -47 -28.5 -74.5
t-66.5 -33.5z" />
    <glyph glyph-name="Tbar" unicode="&#x166;" horiz-adv-x="480" 
d="M437 340h-153l-65 -340h-47l65 340h-145l8 39h144l49 255h-237l8 40h521l-8 -40h-237l-49 -255h154z" />
    <glyph glyph-name="tbar" unicode="&#x167;" horiz-adv-x="318" 
d="M57 299h67l28 143h-78l8 38h78l17 91l50 15l-20 -106h133l-8 -38h-133l-27 -143h101l-7 -37h-101l-16 -88q-11 -59 -11 -91q0 -56 54 -56q26 0 43 6l5 -37q-19 -8 -56 -8q-50 0 -72 28t-22 68q0 41 11 94l16 84h-67z" />
    <glyph glyph-name="Utilde" unicode="&#x168;" horiz-adv-x="659" 
d="M177 674h47l-74 -389q-9 -47 -9 -89q0 -85 43.5 -126t116.5 -41q88 0 150 62.5t87 193.5l75 389h47l-77 -399q-29 -149 -107.5 -218t-182.5 -69q-86 0 -142.5 51t-56.5 157q0 49 9 94zM342 715h-33q7 35 27 61t47 26q31 0 64 -22q25 -17 48 -17q24 0 35 39h33
q-17 -82 -74 -82q-26 0 -62 20q-34 20 -48 19q-25 -1 -37 -44z" />
    <glyph glyph-name="utilde" unicode="&#x169;" 
d="M469 480h47l-70 -364q-14 -79 -18 -116h-44l17 104h-2q-31 -49 -82 -82.5t-104 -33.5q-147 0 -147 159q0 31 10 81l49 252h47l-50 -259q-9 -46 -9 -75q0 -116 110 -116q58 0 119.5 55.5t77.5 138.5zM269 578h-34q5 36 22.5 61t45.5 25q8 0 14 -1t13.5 -4t11 -4.5
t13.5 -7.5t14 -8q26 -15 41 -15q13 0 19 9t10 34h34q-6 -41 -20.5 -62t-44.5 -21q-27 0 -61 21q-31 19 -46 19q-10 0 -17 -7t-9.5 -15t-5.5 -24z" />
    <glyph glyph-name="Umacron" unicode="&#x16a;" horiz-adv-x="659" 
d="M177 674h47l-74 -389q-9 -47 -9 -89q0 -85 43.5 -126t116.5 -41q88 0 150 62.5t87 193.5l75 389h47l-77 -399q-29 -149 -107.5 -218t-182.5 -69q-86 0 -142.5 51t-56.5 157q0 49 9 94zM324 772h227l-7 -40h-227z" />
    <glyph glyph-name="umacron" unicode="&#x16b;" 
d="M469 480h47l-70 -364q-14 -79 -18 -116h-44l17 104h-2q-31 -49 -82 -82.5t-104 -33.5q-147 0 -147 159q0 31 10 81l49 252h47l-50 -259q-9 -46 -9 -75q0 -116 110 -116q58 0 119.5 55.5t77.5 138.5zM244 641h207l-7 -39h-207z" />
    <glyph glyph-name="Ubreve" unicode="&#x16c;" horiz-adv-x="659" 
d="M177 674h47l-74 -389q-9 -47 -9 -89q0 -85 43.5 -126t116.5 -41q88 0 150 62.5t87 193.5l75 389h47l-77 -399q-29 -149 -107.5 -218t-182.5 -69q-86 0 -142.5 51t-56.5 157q0 49 9 94zM334 830h37q0 -57 68 -57q66 0 83 57h40q-8 -41 -40 -69t-83 -28q-58 0 -84 28
t-21 69z" />
    <glyph glyph-name="ubreve" unicode="&#x16d;" 
d="M469 480h47l-70 -364q-14 -79 -18 -116h-44l17 104h-2q-31 -49 -82 -82.5t-104 -33.5q-147 0 -147 159q0 31 10 81l49 252h47l-50 -259q-9 -46 -9 -75q0 -116 110 -116q58 0 119.5 55.5t77.5 138.5zM232 684h38q-3 -32 14 -54.5t48 -22.5q68 0 91 77h41q-10 -53 -47 -85
t-82 -32q-63 0 -86 35.5t-17 81.5z" />
    <glyph glyph-name="Uring" unicode="&#x16e;" horiz-adv-x="659" 
d="M177 674h47l-74 -389q-9 -47 -9 -89q0 -85 43.5 -126t116.5 -41q88 0 150 62.5t87 193.5l75 389h47l-77 -399q-29 -149 -107.5 -218t-182.5 -69q-86 0 -142.5 51t-56.5 157q0 49 9 94zM428 863h1q38 0 62.5 -24.5t24.5 -61.5q0 -35 -25.5 -59t-62.5 -24q-39 0 -64 24
t-25 59q0 36 24.5 61t64.5 25zM427 836h-1q-21 0 -33.5 -17t-12.5 -42q0 -22 13.5 -38.5t33.5 -16.5q21 0 34.5 16.5t13.5 40.5t-13.5 40.5t-34.5 16.5z" />
    <glyph glyph-name="uring" unicode="&#x16f;" 
d="M469 480h47l-70 -364q-14 -79 -18 -116h-44l17 104h-2q-31 -49 -82 -82.5t-104 -33.5q-147 0 -147 159q0 31 10 81l49 252h47l-50 -259q-9 -46 -9 -75q0 -116 110 -116q58 0 119.5 55.5t77.5 138.5zM357 716h1q38 0 63.5 -26.5t25.5 -66.5q0 -38 -27 -64t-63 -26
q-39 0 -65.5 26t-26.5 64q0 39 26.5 66t65.5 27zM355 686h-1q-22 0 -36 -18t-14 -45q0 -23 15 -41.5t36 -18.5q23 0 38 18.5t15 47.5q0 24 -15 40.5t-38 16.5z" />
    <glyph glyph-name="Uhungarumlaut" unicode="&#x170;" horiz-adv-x="659" 
d="M177 674h47l-74 -389q-9 -47 -9 -89q0 -85 43.5 -126t116.5 -41q88 0 150 62.5t87 193.5l75 389h47l-77 -399q-29 -149 -107.5 -218t-182.5 -69q-86 0 -142.5 51t-56.5 157q0 49 9 94zM430 825h69l-134 -115h-38zM560 825h69l-134 -115h-38z" />
    <glyph glyph-name="uhungarumlaut" unicode="&#x171;" 
d="M469 480h47l-70 -364q-14 -79 -18 -116h-44l17 104h-2q-31 -49 -82 -82.5t-104 -33.5q-147 0 -147 159q0 31 10 81l49 252h47l-50 -259q-9 -46 -9 -75q0 -116 110 -116q58 0 119.5 55.5t77.5 138.5zM336 681h69l-136 -140h-38zM466 681h69l-136 -140h-38z" />
    <glyph glyph-name="Uogonek" unicode="&#x172;" horiz-adv-x="659" 
d="M399 -130l3 -33q-24 -12 -55 -12q-35 0 -54.5 16.5t-19.5 45.5q0 47 56 103q-24 -2 -36 -2q-86 0 -142.5 51t-56.5 157q0 49 9 94l74 384h47l-74 -389q-9 -47 -9 -89q0 -85 43.5 -126t116.5 -41q88 0 150 62.5t87 193.5l75 389h47l-77 -399q-35 -183 -153 -252
q-50 -29 -68 -46q-42 -39 -42 -79q0 -35 38 -35q24 0 41 7z" />
    <glyph glyph-name="uogonek" unicode="&#x173;" 
d="M516 480l-70 -364q-14 -79 -18 -116l-3 7q-66 -71 -66 -120q0 -18 10.5 -29t27.5 -11q20 0 41 11l10 -29q-22 -20 -66 -20q-33 0 -51.5 19.5t-18.5 50.5q0 11 3 23.5t9.5 24.5t12.5 22.5t15 21.5t14 17t13 15l8 9l14 92h-2q-31 -49 -82 -82.5t-104 -33.5q-147 0 -147 159
q0 31 10 81l49 252h47l-50 -259q-9 -46 -9 -75q0 -116 110 -116q58 0 119.5 55.5t77.5 138.5l49 256h47z" />
    <glyph glyph-name="Wcircumflex" unicode="&#x174;" horiz-adv-x="865" 
d="M196 0h-49l-47 674h47l29 -472q1 -9 6 -151h2q14 35 68 143l244 480h48l30 -436q10 -144 10 -187h2q25 71 65 150l237 473h49l-342 -674h-48l-32 440q-8 104 -3 188h-3q-31 -85 -65 -149zM530 825h36l86 -115h-49l-59 79h-2l-85 -79h-53z" />
    <glyph glyph-name="wcircumflex" unicode="&#x175;" horiz-adv-x="746" 
d="M70 480h44l32 -314q6 -60 8 -117h2q48 96 52 103l187 328h48l51 -323q9 -58 15 -108h2q22 60 41 98l171 333h49l-251 -480h-44l-52 322q-12 74 -12 115h-2q-7 -13 -27 -51.5t-34 -63.5l-185 -322h-44zM436 682h38l68 -140h-45l-47 102h-2l-81 -102h-49z" />
    <glyph glyph-name="Ycircumflex" unicode="&#x176;" horiz-adv-x="515" 
d="M229 0h-47l53 277l-146 397h50l91 -256q28 -80 34 -106h2q35 53 78 111l188 251h53l-304 -399zM339 825h36l86 -115h-49l-59 79h-2l-85 -79h-53z" />
    <glyph glyph-name="ycircumflex" unicode="&#x177;" horiz-adv-x="437" 
d="M50 480h48l71 -288q23 -90 31 -138h3q2 4 22 45t38 76l155 305h51l-194 -371q-30 -57 -46 -86t-45.5 -73t-60.5 -77q-71 -77 -151 -97l-12 40q61 22 97 52q63 52 108 130q4 7 2 18zM278 682h38l68 -140h-45l-47 102h-2l-81 -102h-49z" />
    <glyph glyph-name="Ydieresis" unicode="&#x178;" horiz-adv-x="515" 
d="M229 0h-47l53 277l-146 397h50l91 -256q28 -80 34 -106h2q35 53 78 111l188 251h53l-304 -399zM263 724h-1q-15 0 -26 12.5t-11 28.5q0 15 11.5 28t27.5 13t27 -13t11 -28q0 -16 -11 -28.5t-28 -12.5zM443 724h-1q-15 0 -26 12.5t-11 28.5q0 15 11.5 28t27.5 13t27 -13
t11 -28q0 -16 -11 -28.5t-28 -12.5z" />
    <glyph glyph-name="Zacute" unicode="&#x179;" horiz-adv-x="560" 
d="M-13 0l6 33l548 598l-1 3h-394l8 40h458l-7 -34l-546 -597l2 -3h437l-8 -40h-503zM460 825h81l-144 -115h-45z" />
    <glyph glyph-name="zacute" unicode="&#x17a;" horiz-adv-x="430" 
d="M-14 0l6 30l303 315q19 20 98 93v4h-302l8 38h358l-8 -34l-298 -310q-48 -50 -98 -94v-4h323l-8 -38h-382zM354 682h79l-144 -140h-43z" />
    <glyph glyph-name="Zdotaccent" unicode="&#x17b;" horiz-adv-x="560" 
d="M-13 0l6 33l548 598l-1 3h-394l8 40h458l-7 -34l-546 -597l2 -3h437l-8 -40h-503zM385 724h-1q-15 0 -26 12.5t-11 28.5q0 15 11.5 28t27.5 13t27 -13t11 -28q0 -16 -11 -28.5t-28 -12.5z" />
    <glyph glyph-name="zdotaccent" unicode="&#x17c;" horiz-adv-x="430" 
d="M-14 0l6 30l303 315q19 20 98 93v4h-302l8 38h358l-8 -34l-298 -310q-48 -50 -98 -94v-4h323l-8 -38h-382zM293 585h-1q-16 0 -26 12t-10 28t11 28t27 12t26.5 -11.5t10.5 -28.5t-10 -28.5t-28 -11.5z" />
    <glyph glyph-name="Zcaron" unicode="&#x17d;" horiz-adv-x="560" 
d="M-13 0l6 33l548 598l-1 3h-394l8 40h458l-7 -34l-546 -597l2 -3h437l-8 -40h-503zM407 710h-36l-86 115h52l55 -78h4l84 78h53z" />
    <glyph glyph-name="zcaron" unicode="&#x17e;" horiz-adv-x="430" 
d="M-14 0l6 30l303 315q19 20 98 93v4h-302l8 38h358l-8 -34l-298 -310q-48 -50 -98 -94v-4h323l-8 -38h-382zM309 542h-38l-70 140h45l48 -103h3l84 103h48z" />
    <glyph glyph-name="florin" unicode="&#x192;" horiz-adv-x="496" 
d="M142 353l8 38h99l19 70q27 99 72.5 150t122.5 51q44 -2 62 -15l-16 -37q-32 13 -59 13q-101 0 -143 -180l-12 -52h136l-8 -38h-136l-54 -207q-30 -113 -71 -169.5t-112 -56.5q-47 0 -70 16l13 35q22 -13 63 -13q81 0 123 161l62 234h-99z" />
    <glyph glyph-name="AEacute" unicode="&#x1fc;" horiz-adv-x="797" 
d="M-10 0h-50l516 674h337l-8 -40h-269l-28 -260h256l-8 -40h-254l-32 -294h284l-8 -40h-325l30 279h-229zM232 318h206l23 208q8 79 13 111h-4q-34 -52 -73 -102zM649 825h81l-144 -115h-45z" />
    <glyph glyph-name="aeacute" unicode="&#x1fd;" horiz-adv-x="755" 
d="M666 64l15 -36q-73 -40 -160 -40q-67 0 -113 34t-59 96h-2q-30 -62 -86 -96t-121 -34q-63 0 -96.5 34t-34.5 87q0 87 90.5 137t254.5 42l3 20q8 52 -17.5 98t-92.5 46q-69 0 -136 -44l-16 35q78 49 155 49q68 0 105 -33t43 -91h2q34 61 92 92.5t118 31.5q62 0 97.5 -31.5
t35.5 -78.5q0 -48 -29.5 -78.5t-78 -41.5t-112 -14.5t-132.5 1.5q-17 -83 6 -140q34 -81 128 -81q75 0 141 36zM336 194l10 55q-45 3 -90 -1t-92.5 -16.5t-77 -43.5t-29.5 -76q0 -39 24.5 -61.5t65.5 -22.5q66 0 120.5 45.5t68.5 120.5zM695 381v1q0 30 -24.5 50.5
t-64.5 20.5q-76 0 -132 -53.5t-75 -111.5q55 -3 108.5 -1t95 8.5t67 28t25.5 57.5zM517 682h79l-144 -140h-43z" />
    <glyph glyph-name="Oslashacute" unicode="&#x1fe;" horiz-adv-x="721" 
d="M48 -28l-24 26l88 87q-31 44 -45 88t-14 107q0 174 123 297q51 51 119.5 80t137.5 29q127 0 195 -69l88 85l27 -25l-89 -86q59 -78 59 -189q0 -183 -123 -308q-47 -49 -115 -77.5t-137 -28.5q-127 0 -202 71zM146 118l453 468q-60 60 -174 60q-104 0 -189.5 -69
t-117.5 -180q-22 -64 -16.5 -144t42.5 -135h2zM621 555l-453 -467q63 -60 182 -60q92 0 174.5 63.5t118.5 171.5q15 45 20.5 93.5t-4 102.5t-36.5 96h-2zM521 831h81l-144 -115h-45z" />
    <glyph glyph-name="oslashacute" unicode="&#x1ff;" 
d="M59 -27l-24 24l57 60q-48 57 -48 149q0 120 80 203t189 83q86 0 136 -43l56 58l26 -23l-57 -60q48 -62 48 -145q0 -126 -82.5 -208.5t-184.5 -82.5q-87 0 -140 46zM126 90l292 326q-37 37 -108 37q-92 0 -155 -74.5t-63 -172.5q0 -72 32 -117zM441 388l-295 -323
q43 -38 112 -38q35 0 72 17t69.5 47t53 77.5t20.5 103.5q0 65 -30 116h-2zM401 682h79l-144 -140h-43z" />
    <glyph glyph-name="Scommaaccent" unicode="&#x218;" horiz-adv-x="477" 
d="M27 40l20 37q68 -49 149 -49q71 0 125.5 41t54.5 115q0 45 -26 79t-88 64q-79 38 -112.5 79.5t-33.5 90.5q0 85 63.5 137t151.5 52q44 0 82.5 -13t56.5 -28l-21 -36q-57 38 -124 38q-71 0 -117 -42t-46 -94q0 -49 25.5 -79t94.5 -64q75 -36 107.5 -78t32.5 -107
q0 -76 -61.5 -135.5t-174.5 -59.5q-42 0 -89.5 15t-69.5 37zM92 -210l-8 27q98 15 98 80q0 29 -26 49l41 12q30 -20 30 -57q0 -49 -40 -77t-95 -34z" />
    <glyph glyph-name="scommaaccent" unicode="&#x219;" horiz-adv-x="374" 
d="M27 19l17 38q43 -29 95 -29q50 0 83.5 30t33.5 71q0 34 -16 57t-62 48q-82 44 -82 120q0 56 45.5 97t111.5 41q61 0 92 -25l-17 -40q-35 25 -81 25q-44 0 -74.5 -27t-30.5 -65q0 -32 18 -53.5t60 -44.5q83 -45 83 -122q0 -68 -49 -110t-118 -42q-68 0 -109 31zM40 -210
l-8 27q98 15 98 80q0 29 -26 49l41 12q30 -20 30 -57q0 -49 -40 -77t-95 -34z" />
    <glyph glyph-name="circumflex" unicode="&#x2c6;" horiz-adv-x="400" 
d="M269 682h38l68 -140h-45l-47 102h-2l-81 -102h-49z" />
    <glyph glyph-name="caron" unicode="&#x2c7;" horiz-adv-x="400" 
d="M284 542h-38l-70 140h45l48 -103h3l84 103h48z" />
    <glyph glyph-name="breve" unicode="&#x2d8;" horiz-adv-x="400" 
d="M175 684h38q-3 -32 14 -54.5t48 -22.5q68 0 91 77h41q-10 -53 -47 -85t-82 -32q-63 0 -86 35.5t-17 81.5z" />
    <glyph glyph-name="dotaccent" unicode="&#x2d9;" horiz-adv-x="400" 
d="M278 585h-1q-16 0 -26 12t-10 28t11 28t27 12t26.5 -11.5t10.5 -28.5t-10 -28.5t-28 -11.5z" />
    <glyph glyph-name="ring" unicode="&#x2da;" horiz-adv-x="400" 
d="M280 716h1q38 0 63.5 -26.5t25.5 -66.5q0 -38 -27 -64t-63 -26q-39 0 -65.5 26t-26.5 64q0 39 26.5 66t65.5 27zM278 686h-1q-22 0 -36 -18t-14 -45q0 -23 15 -41.5t36 -18.5q23 0 38 18.5t15 47.5q0 24 -15 40.5t-38 16.5z" />
    <glyph glyph-name="ogonek" unicode="&#x2db;" horiz-adv-x="400" 
d="M156 2h53q-38 -23 -68 -59.5t-30 -68.5q0 -34 34 -34q23 0 44 10l9 -30q-31 -18 -67 -18q-31 0 -49 18t-18 45q0 30 19 60.5t37 47t36 29.5z" />
    <glyph glyph-name="tilde" unicode="&#x2dc;" horiz-adv-x="400" 
d="M192 578h-34q5 36 22.5 61t45.5 25q8 0 14 -1t13.5 -4t11 -4.5t13.5 -7.5t14 -8q26 -15 41 -15q13 0 19 9t10 34h34q-6 -41 -20.5 -62t-44.5 -21q-27 0 -61 21q-31 19 -46 19q-10 0 -17 -7t-9.5 -15t-5.5 -24z" />
    <glyph glyph-name="hungarumlaut" unicode="&#x2dd;" horiz-adv-x="400" 
d="M314 681h69l-136 -140h-38zM444 681h69l-136 -140h-38z" />
    <glyph glyph-name="uni037E" unicode="&#x37e;" horiz-adv-x="185" 
d="M15 -121l-40 -5q18 35 45.5 101.5t40.5 110.5l64 1q-20 -47 -57 -116t-53 -92zM138 343h-1q-18 0 -30.5 14.5t-12.5 33.5q0 22 12.5 36t32.5 14q19 0 31.5 -14t12.5 -36q0 -19 -12.5 -33.5t-32.5 -14.5z" />
    <glyph glyph-name="tonos" unicode="&#x384;" horiz-adv-x="400" 
d="M339 682h79l-144 -140h-43z" />
    <glyph glyph-name="dieresistonos" unicode="&#x385;" horiz-adv-x="287" 
d="M224 701h63l-102 -148h-32zM105 580h-1q-16 0 -25.5 11.5t-9.5 27.5q0 15 11 27t26 12t25.5 -11.5t10.5 -27.5t-10 -27.5t-27 -11.5zM322 580h-1q-16 0 -25.5 11.5t-9.5 27.5q0 15 11 27t26 12t25.5 -11.5t10.5 -27.5t-10 -27.5t-27 -11.5z" />
    <glyph glyph-name="Alphatonos" unicode="&#x386;" horiz-adv-x="578" 
d="M438 238h-286l-134 -238h-48l386 674h46l126 -674h-46zM177 278h253l-43 237q-13 70 -17 108h-2q-44 -85 -55 -105zM124 674h56l-42 -145h-31z" />
    <glyph glyph-name="anoteleia" unicode="&#x387;" horiz-adv-x="185" 
d="M115 276h-1q-18 0 -29.5 13.5t-11.5 32.5q0 20 12 33.5t31 13.5t30.5 -13.5t11.5 -33.5q0 -19 -12 -32.5t-31 -13.5z" />
    <glyph glyph-name="Epsilontonos" unicode="&#x388;" horiz-adv-x="481" 
d="M439 376l-8 -40h-272l-56 -296h306l-8 -40h-353l129 674h336l-8 -40h-289l-49 -258h272zM39 674h56l-42 -145h-31z" />
    <glyph glyph-name="Etatonos" unicode="&#x389;" horiz-adv-x="664" 
d="M177 674h47l-57 -296h394l57 296h47l-129 -674h-47l64 338h-394l-64 -338h-47zM37 674h56l-42 -145h-31z" />
    <glyph glyph-name="Iotatonos" unicode="&#x38a;" horiz-adv-x="223" 
d="M177 674h47l-129 -674h-47zM42 674h56l-42 -145h-31z" />
    <glyph glyph-name="Omicrontonos" unicode="&#x38c;" horiz-adv-x="721" 
d="M337 -12h-1q-137 0 -210 83t-73 208q0 82 32 161t91 140q47 48 115 77t138 29q74 0 130.5 -24t89 -66t48.5 -92.5t16 -108.5q0 -174 -115 -295q-106 -112 -261 -112zM342 28h1q130 0 226 104.5t96 261.5q0 34 -5.5 65.5t-22 66.5t-42.5 61t-70.5 42.5t-102.5 16.5
q-135 0 -228 -109t-93 -253q0 -111 60 -183.5t181 -72.5zM33 674h56l-42 -145h-31z" />
    <glyph glyph-name="Upsilontonos" unicode="&#x38e;" horiz-adv-x="609" 
d="M105 642l9 38q33 -5 75.5 -36.5t68.5 -72.5q72 -113 68 -254h2q30 79 80 148t103 115q90 78 169 100l6 -37q-29 -13 -60.5 -32.5t-77.5 -55.5t-92.5 -94.5t-81.5 -129.5q-35 -70 -49 -145l-34 -186h-47l35 188q14 83 8 146q-12 137 -68.5 214t-113.5 94zM15 674h56
l-42 -145h-31z" />
    <glyph glyph-name="Omegatonos" unicode="&#x38f;" horiz-adv-x="735" 
d="M171 40v4q-47 40 -78.5 106.5t-31.5 144.5q0 160 105 275.5t267 115.5q129 0 208.5 -85.5t79.5 -207.5q0 -113 -60 -204.5t-149 -144.5v-4h160l-7 -40h-241l5 34q94 45 169 140t75 214q0 37 -9 73.5t-29 70t-48.5 59t-69.5 41t-89 15.5q-76 0 -139.5 -34t-101 -86
t-58 -109t-20.5 -109q0 -99 37.5 -169t94.5 -106l-7 -34h-240l7 40h170zM41 674h56l-42 -145h-31z" />
    <glyph glyph-name="iotadieresistonos" unicode="&#x390;" horiz-adv-x="223" 
d="M186 480l-72 -378q-9 -41 -1.5 -57.5t38.5 -15.5l-11 -38q-6 -3 -22 -3q-56 0 -56 70q0 11 21 124l57 298h46zM204 686h63l-102 -148h-32zM85 565h-1q-16 0 -25.5 11.5t-9.5 27.5q0 15 11 27t26 12t25.5 -11.5t10.5 -27.5t-10 -27.5t-27 -11.5zM302 565h-1
q-16 0 -25.5 11.5t-9.5 27.5q0 15 11 27t26 12t25.5 -11.5t10.5 -27.5t-10 -27.5t-27 -11.5z" />
    <glyph glyph-name="Alpha" unicode="&#x391;" horiz-adv-x="578" 
d="M438 238h-286l-134 -238h-48l386 674h46l126 -674h-46zM177 278h253l-43 237q-13 70 -17 108h-2q-44 -85 -55 -105z" />
    <glyph glyph-name="Beta" unicode="&#x392;" horiz-adv-x="516" 
d="M49 2l126 663q70 14 136 14q116 0 163 -59q27 -34 27 -91q0 -62 -47 -110t-108 -61v-3q48 -12 84 -49.5t35 -101.5q0 -46 -21.5 -86t-52.5 -65q-74 -58 -210 -58q-83 0 -132 7zM216 633l-49 -257h82q87 0 145 42.5t58 113.5q0 109 -149 109q-63 0 -87 -8zM159 338
l-56 -298q35 -5 85 -5q44 0 82 8t72 26.5t54 54.5t20 85q0 63 -47.5 96t-111.5 33h-98z" />
    <glyph glyph-name="Gamma" unicode="&#x393;" horiz-adv-x="449" 
d="M177 674h342l-8 -40h-295l-121 -634h-47z" />
    <glyph glyph-name="Delta" unicode="&#x394;" horiz-adv-x="624" 
d="M-19 0l6 34l384 640h48l154 -640l-6 -34h-586zM42 40h485l-103 429q-21 86 -36 154h-2q-9 -16 -39 -65t-40 -67z" />
    <glyph glyph-name="Delta" unicode="&#xe000;" horiz-adv-x="624" 
d="M-19 0l6 34l384 640h48l154 -640l-6 -34h-586zM42 40h485l-103 429q-21 86 -36 154h-2q-9 -16 -39 -65t-40 -67z" />
    <glyph glyph-name="Epsilon" unicode="&#x395;" horiz-adv-x="481" 
d="M439 376l-8 -40h-272l-56 -296h306l-8 -40h-353l129 674h336l-8 -40h-289l-49 -258h272z" />
    <glyph glyph-name="Zeta" unicode="&#x396;" horiz-adv-x="560" 
d="M-13 0l6 33l548 598l-1 3h-394l8 40h458l-7 -34l-546 -597l2 -3h437l-8 -40h-503z" />
    <glyph glyph-name="Eta" unicode="&#x397;" horiz-adv-x="664" 
d="M177 674h47l-57 -296h394l57 296h47l-129 -674h-47l64 338h-394l-64 -338h-47z" />
    <glyph glyph-name="Theta" unicode="&#x398;" horiz-adv-x="721" 
d="M337 -12h-1q-137 0 -210 83t-73 208q0 82 32 161t91 140q47 48 115 77t138 29q74 0 130.5 -24t89 -66t48.5 -92.5t16 -108.5q0 -174 -115 -295q-106 -112 -261 -112zM342 28h1q130 0 226 104.5t96 261.5q0 34 -5.5 65.5t-22 66.5t-42.5 61t-70.5 42.5t-102.5 16.5
q-135 0 -228 -109t-93 -253q0 -111 60 -183.5t181 -72.5zM208 369h355l-6 -40h-355z" />
    <glyph glyph-name="Iota" unicode="&#x399;" horiz-adv-x="223" 
d="M177 674h47l-129 -674h-47z" />
    <glyph glyph-name="Kappa" unicode="&#x39a;" horiz-adv-x="508" 
d="M48 0l129 674h47l-66 -348l6 1q15 17 42.5 43t30.5 29l293 275h60l-311 -291l209 -383h-52l-193 354l-96 -84l-52 -270h-47z" />
    <glyph glyph-name="Lambda" unicode="&#x39b;" horiz-adv-x="578" 
d="M528 0h-45l-96 515q-13 71 -17 107h-2q-17 -36 -56 -104l-293 -518h-48l385 674h47z" />
    <glyph glyph-name="Mu" unicode="&#x39c;" horiz-adv-x="818" 
d="M710 0h-46l49 403q19 156 33 222h-3q-83 -158 -108 -200l-252 -425h-37l-77 407q-17 91 -33 218h-2q0 -1 -21.5 -94t-31.5 -128l-108 -403h-46l183 674h54l87 -478q17 -92 24 -139h2q5 9 17.5 33t27 50.5t28.5 49.5l283 484h56z" />
    <glyph glyph-name="Nu" unicode="&#x39d;" horiz-adv-x="674" 
d="M94 0h-46l129 674h43l233 -470q43 -86 66 -155l2 2q3 68 26 194l82 429h46l-129 -674h-41l-227 463q-54 110 -70 159l-3 -2q-11 -92 -30 -193z" />
    <glyph glyph-name="Xi" unicode="&#x39e;" horiz-adv-x="576" 
d="M143 674h469l-7 -40h-469zM127 370h389l-7 -40h-389zM17 40h487l-7 -40h-487z" />
    <glyph glyph-name="Omicron" unicode="&#x39f;" horiz-adv-x="721" 
d="M337 -12h-1q-137 0 -210 83t-73 208q0 82 32 161t91 140q47 48 115 77t138 29q74 0 130.5 -24t89 -66t48.5 -92.5t16 -108.5q0 -174 -115 -295q-106 -112 -261 -112zM342 28h1q130 0 226 104.5t96 261.5q0 34 -5.5 65.5t-22 66.5t-42.5 61t-70.5 42.5t-102.5 16.5
q-135 0 -228 -109t-93 -253q0 -111 60 -183.5t181 -72.5z" />
    <glyph glyph-name="Pi" unicode="&#x3a0;" horiz-adv-x="664" 
d="M665 674l-128 -674h-47l120 634h-394l-121 -634h-47l129 674h488z" />
    <glyph glyph-name="Rho" unicode="&#x3a1;" horiz-adv-x="516" 
d="M48 0l128 665q65 14 141 14q122 0 172 -61q34 -43 34 -110q0 -51 -23.5 -96t-56.5 -71q-79 -63 -212 -63q-47 0 -82 6l-54 -284h-47zM215 630l-58 -304q38 -8 83 -8q105 0 170.5 51t65.5 139q0 68 -46 100t-121 32q-64 0 -94 -10z" />
    <glyph glyph-name="Sigma" unicode="&#x3a3;" horiz-adv-x="565" 
d="M66 43v-3h449l-7 -40h-517l5 32l325 310l-197 298l5 34h465l-7 -40h-404v-3l193 -293z" />
    <glyph glyph-name="Tau" unicode="&#x3a4;" horiz-adv-x="480" 
d="M172 0l121 634h-237l8 40h521l-8 -40h-237l-121 -634h-47z" />
    <glyph glyph-name="Upsilon" unicode="&#x3a5;" horiz-adv-x="589" 
d="M85 642l9 38q33 -5 75.5 -36.5t68.5 -72.5q72 -113 68 -254h2q30 79 80 148t103 115q90 78 169 100l6 -37q-29 -13 -60.5 -32.5t-77.5 -55.5t-92.5 -94.5t-81.5 -129.5q-35 -70 -49 -145l-34 -186h-47l35 188q14 83 8 146q-12 137 -68.5 214t-113.5 94z" />
    <glyph glyph-name="Phi" unicode="&#x3a6;" horiz-adv-x="713" 
d="M286 -30l11 51q-106 6 -175 78t-69 185q0 92 35 166t90 117.5t116.5 66t120.5 21.5l11 49h46l-10 -49q105 -6 174 -77.5t69 -188.5q0 -86 -32.5 -158t-85.5 -117t-116.5 -69t-127.5 -24l-10 -51h-47zM305 60l103 556q-38 1 -79.5 -11t-82 -38.5t-73 -64t-52.5 -93
t-20 -120.5q0 -96 57 -158.5t147 -70.5zM454 616l-103 -556q135 5 220.5 100.5t85.5 226.5q0 98 -57 160t-146 69z" />
    <glyph glyph-name="Chi" unicode="&#x3a7;" horiz-adv-x="530" 
d="M479 0h-50l-88 187q-13 27 -55 120h-2q-8 -9 -38 -46.5t-53 -65.5l-160 -195h-56l290 342l-149 332h50l91 -209q7 -17 16 -37.5t15 -33.5t9 -20h2q9 10 35.5 42.5t38.5 46.5l180 211h57l-293 -332z" />
    <glyph glyph-name="Psi" unicode="&#x3a8;" horiz-adv-x="681" 
d="M713 674l-38 -205q-22 -120 -101.5 -185.5t-210.5 -66.5l-40 -217h-47l40 217q-28 0 -56 5.5t-58.5 19.5t-53.5 35.5t-38 58t-15 83.5q0 34 10 91l31 164h47l-33 -178q-8 -43 -8 -72q0 -76 42.5 -117.5t139.5 -48.5l77 416h47l-77 -416q218 7 257 213l38 203h47z" />
    <glyph glyph-name="Omega" unicode="&#x3a9;" horiz-adv-x="735" 
d="M171 40v4q-47 40 -78.5 106.5t-31.5 144.5q0 160 105 275.5t267 115.5q129 0 208.5 -85.5t79.5 -207.5q0 -113 -60.5 -204.5t-149.5 -144.5v-4h161l-7 -40h-241l5 34q94 45 169 140t75 214q0 37 -9 73.5t-29 70t-48.5 59t-69.5 41t-89 15.5q-76 0 -139.5 -34t-101 -86
t-58 -109t-20.5 -109q0 -99 37.5 -169t94.5 -106l-7 -34h-240l7 40h170z" />
    <glyph glyph-name="Omega" unicode="&#x2126;" horiz-adv-x="735" 
d="M171 40v4q-47 40 -78.5 106.5t-31.5 144.5q0 160 105 275.5t267 115.5q129 0 208.5 -85.5t79.5 -207.5q0 -113 -60.5 -204.5t-149.5 -144.5v-4h161l-7 -40h-241l5 34q94 45 169 140t75 214q0 37 -9 73.5t-29 70t-48.5 59t-69.5 41t-89 15.5q-76 0 -139.5 -34t-101 -86
t-58 -109t-20.5 -109q0 -99 37.5 -169t94.5 -106l-7 -34h-240l7 40h170z" />
    <glyph glyph-name="Iotadieresis" unicode="&#x3aa;" horiz-adv-x="223" 
d="M116 710h-1q-17 0 -27 12t-10 29q0 16 11.5 28.5t27.5 12.5t27 -12t11 -29t-10.5 -29t-28.5 -12zM296 710h-1q-17 0 -27 12t-10 29q0 16 11.5 28.5t27.5 12.5t27 -12t11 -29t-10.5 -29t-28.5 -12zM177 674h47l-129 -674h-47z" />
    <glyph glyph-name="Upsilondieresis" unicode="&#x3ab;" horiz-adv-x="589" 
d="M288 710h-1q-17 0 -27 12t-10 29q0 16 11.5 28.5t27.5 12.5t27 -12t11 -29t-10.5 -29t-28.5 -12zM468 710h-1q-17 0 -27 12t-10 29q0 16 11.5 28.5t27.5 12.5t27 -12t11 -29t-10.5 -29t-28.5 -12zM85 642l9 38q33 -5 75.5 -36.5t68.5 -72.5q72 -113 68 -254h2
q30 79 80 148t103 115q90 78 169 100l6 -37q-29 -13 -60.5 -32.5t-77.5 -55.5t-92.5 -94.5t-81.5 -129.5q-35 -70 -49 -145l-34 -186h-47l35 188q14 83 8 146q-12 137 -68.5 214t-113.5 94z" />
    <glyph glyph-name="alphatonos" unicode="&#x3ac;" horiz-adv-x="578" 
d="M389 682h79l-144 -140h-43zM424 106h-3q-31 -52 -82.5 -85t-118.5 -33q-81 0 -128.5 52t-47.5 133q0 129 81 224t195 95q66 0 105 -34t49 -86h4q9 37 29 108h39q-10 -33 -28 -117q-28 -117 -48 -224q-12 -54 -5 -82.5t40 -29.5l-12 -38q-6 -1 -17 -1q-30 0 -45.5 30
t-6.5 88zM92 184v-1q0 -70 37 -113t106 -43q57 0 108.5 43.5t80.5 102.5q13 25 23 79q5 32 5 60q0 54 -37 97.5t-103 43.5q-82 0 -151 -78t-69 -191z" />
    <glyph glyph-name="epsilontonos" unicode="&#x3ad;" horiz-adv-x="425" 
d="M312 682h79l-144 -140h-43zM335 238h-87q-75 0 -123.5 -30.5t-48.5 -88.5q0 -42 38 -67t100 -25q46 0 95.5 14t72.5 29l9 -36q-19 -16 -73.5 -31t-106.5 -15q-81 0 -131.5 31.5t-50.5 97.5q0 56 42.5 96t104.5 47v4q-46 9 -69.5 34t-23.5 59q0 52 55 93.5t149 41.5
q41 0 79 -10.5t52 -24.5l-15 -33q-49 30 -125 30q-67 0 -107.5 -27t-40.5 -70q0 -39 39.5 -60t100.5 -21h72z" />
    <glyph glyph-name="etatonos" unicode="&#x3ae;" horiz-adv-x="567" 
d="M409 682h79l-144 -140h-43zM164 370h2q32 55 86.5 88.5t116.5 33.5q15 0 30 -2.5t34.5 -12t34.5 -24.5t25.5 -43.5t10.5 -66.5q0 -27 -9 -77l-51 -266q-28 -153 -24 -200h-44q-10 32 21 200l52 273q7 42 7 63q0 115 -107 115q-61 0 -127 -59.5t-83 -155.5l-43 -236h-48
l69 364q15 84 10 116h43q8 -27 -6 -110z" />
    <glyph glyph-name="iotatonos" unicode="&#x3af;" horiz-adv-x="223" 
d="M251 682h79l-144 -140h-43zM186 480l-72 -378q-9 -41 -1.5 -57.5t38.5 -15.5l-11 -38q-6 -3 -22 -3q-56 0 -56 69q0 16 21 125l57 298h46z" />
    <glyph glyph-name="upsilondieresistonos" unicode="&#x3b0;" horiz-adv-x="525" 
d="M434 480h47q10 -25 10 -86q0 -52 -8.5 -105t-29 -108t-50.5 -97t-78 -69t-106 -27q-64 0 -108 43t-44 120q0 19 5 46l23 123q23 122 20 160h42q13 -15 -1 -84l-36 -197q-4 -21 -4 -43q0 -63 35 -95t80 -32q95 0 153.5 106t58.5 261q0 62 -9 84zM327 686h63l-102 -148h-32
zM208 565h-1q-16 0 -25.5 11.5t-9.5 27.5q0 15 11 27t26 12t25.5 -11.5t10.5 -27.5t-10 -27.5t-27 -11.5zM425 565h-1q-16 0 -25.5 11.5t-9.5 27.5q0 15 11 27t26 12t25.5 -11.5t10.5 -27.5t-10 -27.5t-27 -11.5z" />
    <glyph glyph-name="alpha" unicode="&#x3b1;" horiz-adv-x="578" 
d="M424 106h-3q-31 -52 -82.5 -85t-118.5 -33q-81 0 -128.5 52t-47.5 133q0 129 81 224t195 95q66 0 105 -34t49 -86h4q9 37 29 108h39q-10 -33 -28 -117q-28 -117 -48 -224q-12 -54 -5 -82.5t40 -29.5l-12 -38q-6 -1 -17 -1q-30 0 -45.5 30t-6.5 88zM92 184v-1
q0 -70 37 -113t106 -43q57 0 108.5 43.5t80.5 102.5q13 25 23 79q5 32 5 60q0 54 -37 97.5t-103 43.5q-82 0 -151 -78t-69 -191z" />
    <glyph glyph-name="beta" unicode="&#x3b2;" horiz-adv-x="568" 
d="M71 -200h-46q-6 46 21 188l82 441q33 181 115 249q59 50 135 50q59 0 101.5 -39t42.5 -104t-35 -117t-84 -74l-1 -4q58 -11 95 -58.5t37 -114.5q0 -58 -23 -104t-59.5 -72t-76.5 -39.5t-79 -13.5q-119 0 -185 88h-2l-14 -76q-28 -153 -24 -200zM278 366l6 39h19
q80 0 125.5 51.5t45.5 120.5q0 53 -28.5 82.5t-74.5 29.5q-149 0 -197 -262l-53 -288q14 -39 60.5 -75.5t116.5 -36.5q71 0 129.5 50t58.5 136q0 70 -48.5 111.5t-125.5 41.5h-34z" />
    <glyph glyph-name="gamma" unicode="&#x3b3;" horiz-adv-x="454" 
d="M165 -200h-49q1 3 7.5 34t7.5 37t7.5 38.5t6.5 40t4.5 41t2 41t-1.5 40.5q-7 111 -45 231t-73 177h53q36 -62 70.5 -181t37.5 -230h3q68 79 129.5 185.5t78.5 200.5q4 18 4 25h47q1 -8 -3 -30q-35 -193 -243 -425q-7 -8 -10 -23q-11 -73 -34 -202z" />
    <glyph glyph-name="delta" unicode="&#x3b4;" horiz-adv-x="560" 
d="M518 647l-25 -30q-25 30 -65.5 51t-84.5 21q-39 0 -60 -16t-21 -40q0 -5 1 -10t3.5 -10l4.5 -9t7 -9.5t8.5 -9t10.5 -9.5t11 -9.5t13 -11t14 -11.5l82 -69q56 -48 82.5 -98.5t26.5 -114.5q0 -109 -76 -191.5t-190 -82.5q-92 0 -154 59.5t-62 155.5q0 111 73 190.5
t183 119.5v4l-21 18q-21 19 -29.5 27t-20.5 29t-12 42q0 37 34 66t92 29q107 0 175 -81zM386 444l-55 46q-43 -16 -81.5 -39t-75.5 -56.5t-59.5 -82t-22.5 -104.5q0 -81 51 -131t123 -50q85 0 148.5 67t63.5 166q0 52 -20 96t-72 88z" />
    <glyph glyph-name="epsilon" unicode="&#x3b5;" horiz-adv-x="425" 
d="M335 238h-87q-75 0 -123.5 -30.5t-48.5 -88.5q0 -42 38 -67t100 -25q46 0 95.5 14t72.5 29l9 -38q-20 -15 -73 -29.5t-107 -14.5q-81 0 -131.5 31.5t-50.5 97.5q0 56 42.5 96t104.5 47v4q-46 9 -69.5 34t-23.5 59q0 52 55 93.5t149 41.5q41 0 79 -10.5t52 -24.5l-15 -33
q-49 30 -125 30q-67 0 -107.5 -27t-40.5 -70q0 -39 39.5 -60t100.5 -21h72z" />
    <glyph glyph-name="zeta" unicode="&#x3b6;" horiz-adv-x="398" 
d="M461 716l1 -40q-147 -83 -255 -212t-108 -255q0 -66 32.5 -104t105.5 -61q44 -14 121 -20q7 0 7 -6q0 -22 -27.5 -78t-51.5 -83l-35 10q11 14 32 57t26 65q-68 9 -109 23q-149 51 -149 193q0 124 100.5 254.5t241.5 215.5v2h-92q-90 0 -125 10l10 35q32 -6 117 -6h158z
" />
    <glyph glyph-name="eta" unicode="&#x3b7;" horiz-adv-x="567" 
d="M164 370h2q32 55 86.5 88.5t116.5 33.5q15 0 30 -2.5t34.5 -12t34.5 -24.5t25.5 -43.5t10.5 -66.5q0 -27 -9 -77l-51 -266q-28 -153 -24 -200h-44q-10 32 21 200l52 273q7 42 7 63q0 115 -107 115q-61 0 -127 -59.5t-83 -155.5l-43 -236h-48l69 364q15 84 10 116h43
q8 -27 -6 -110z" />
    <glyph glyph-name="theta" unicode="&#x3b8;" horiz-adv-x="542" 
d="M241 -12h-1q-84 0 -134 67.5t-50 187.5q0 77 20 168q12 56 34.5 109t56 101t82.5 77.5t106 29.5q85 0 132.5 -67.5t46.5 -173.5q0 -69 -14 -138q-14 -71 -36 -131.5t-54.5 -114t-81 -84.5t-107.5 -31zM121 392h359q6 38 6 100q0 86 -35.5 141.5t-102.5 55.5
q-85 0 -144.5 -86.5t-82.5 -210.5zM472 353h-358q-10 -61 -10 -115q0 -100 39 -155.5t101 -55.5q84 0 142 88t86 238z" />
    <glyph glyph-name="iota" unicode="&#x3b9;" horiz-adv-x="223" 
d="M186 480l-72 -378q-9 -41 -1.5 -57.5t38.5 -15.5l-11 -38q-6 -3 -22 -3q-55 0 -56 69q1 14 21 125l57 298h46z" />
    <glyph glyph-name="kappa" unicode="&#x3ba;" horiz-adv-x="460" 
d="M204 259v-3q49 -12 80.5 -44.5t73.5 -98.5l73 -113h-53l-67 103q-41 63 -76 91.5t-84 28.5h-16l-41 -223h-46l73 394q12 58 7 86h43q7 -27 -2 -76l-27 -145h6q236 182 288 221h58v-3q-81 -63 -290 -218z" />
    <glyph glyph-name="lambda" unicode="&#x3bb;" horiz-adv-x="454" 
d="M366 0l-74 318q-15 63 -21 92l-5 1q-6 -9 -23 -41.5t-25 -47.5l-184 -322h-51l259 447q10 16 10 24q0 10 -2 19q-27 112 -45 145q-29 52 -77 53q-3 0 -7.5 -0.5t-6.5 -0.5l8 38q13 3 23 3q58 0 88 -50.5t62 -179.5l120 -498h-49z" />
    <glyph glyph-name="uni03BC" unicode="&#x3bc;" 
d="M176 480l-53 -283q-14 -75 13.5 -121.5t99.5 -46.5q43 0 85.5 31t71.5 80q25 43 32 84l49 256h47l-67 -351q-10 -56 -3 -77t36 -24l-12 -39q-11 -1 -15 -1q-69 0 -55 111h-3q-27 -46 -74 -78.5t-101 -32.5q-45 0 -80.5 22t-49.5 64l-13 -74q-27 -146 -22 -200h-43
q-9 53 19 200l92 480h46z" />
    <glyph glyph-name="nu" unicode="&#x3bd;" horiz-adv-x="450" 
d="M40 480h48q10 -49 31.5 -147.5t32.5 -148.5q6 -30 15.5 -76t12.5 -62h4q188 234 223 380q7 32 9 54h46q0 -24 -3 -36q-31 -174 -267 -444h-46q-17 80 -52.5 240t-53.5 240z" />
    <glyph glyph-name="xi" unicode="&#x3be;" horiz-adv-x="426" 
d="M389 403h-27q-126 0 -198 -57t-72 -143q0 -61 40 -98.5t121 -58.5q82 -21 141 -23q7 0 7 -8q0 -22 -29.5 -78t-50.5 -80l-35 11q11 14 33.5 57.5t27.5 64.5q-85 9 -144 28q-159 53 -159 181q0 84 59.5 144.5t137.5 79.5v4q-44 13 -73.5 47t-29.5 80q0 67 60.5 120.5
t159.5 53.5q88 0 126 -33l-17 -34q-36 29 -112 29q-78 0 -124 -38.5t-46 -98.5q0 -54 44.5 -83t113.5 -29h52z" />
    <glyph glyph-name="omicron" unicode="&#x3bf;" 
d="M249 -12h-1q-96 0 -150 62t-54 146q0 126 79.5 211t192.5 85q102 0 154 -64t52 -154q0 -111 -78.5 -198.5t-194.5 -87.5zM252 27h1q87 0 154 71t67 178q0 27 -8 55.5t-25.5 57t-50.5 46.5t-76 18q-94 0 -158 -74t-64 -181q0 -75 45.5 -123t114.5 -48z" />
    <glyph glyph-name="pi" unicode="&#x3c0;" horiz-adv-x="550" 
d="M561 441h-80l-54 -297q-18 -102 -11 -144h-44q-12 31 7 136l56 305h-205q-19 -77 -28 -108q-70 -242 -133 -333h-47q72 112 133 330q17 62 29 111q-76 0 -120 -12l-2 30q31 21 124 21h386z" />
    <glyph glyph-name="rho" unicode="&#x3c1;" horiz-adv-x="575" 
d="M65 -200h-43q-4 45 24 200l35 189q28 152 93 223q71 80 183 80q87 0 137 -58.5t50 -142.5q0 -127 -79 -215t-190 -88q-53 0 -98.5 24.5t-65.5 70.5h-3l-15 -83q-28 -151 -28 -200zM133 215l-4 -22q-3 -13 -3 -29q0 -51 42 -94t109 -43q88 0 153.5 74t65.5 184
q0 70 -38 119t-110 49q-76 0 -134.5 -59t-80.5 -179z" />
    <glyph glyph-name="uni03C2" unicode="&#x3c2;" horiz-adv-x="427" 
d="M304 -143l-35 12q11 14 31.5 57t25.5 63q-62 7 -114 22q-70 21 -118.5 70t-48.5 131q0 111 82 195.5t206 84.5q70 0 110 -26l-17 -36q-44 23 -96 23q-100 0 -168.5 -67t-68.5 -173q0 -130 155 -169q50 -13 123 -21q8 -1 8 -10q0 -26 -27.5 -78.5t-47.5 -77.5z" />
    <glyph glyph-name="sigma" unicode="&#x3c3;" horiz-adv-x="563" 
d="M424 459v-5q52 -25 75 -78.5t23 -100.5q0 -111 -78.5 -199t-194.5 -88q-97 0 -151 62t-54 146q0 125 80 210.5t192 85.5h124h48h87l-6 -40q-70 0 -145 7zM251 27h1q87 0 154.5 71t67.5 178q0 27 -8 55.5t-25.5 57t-50.5 46.5t-76 18q-94 0 -158 -74t-64 -181
q0 -74 46 -122.5t113 -48.5z" />
    <glyph glyph-name="tau" unicode="&#x3c4;" horiz-adv-x="397" 
d="M257 30l-6 -37q-13 -5 -33 -5q-34 0 -55.5 22t-21.5 70q0 18 5 48l58 313h-54q-51 0 -120 -8l1 27q38 20 122 20h279l-11 -39h-170l-58 -314q-4 -23 -4 -42q0 -56 47 -56q5 0 11.5 0.5t9.5 0.5z" />
    <glyph glyph-name="upsilon" unicode="&#x3c5;" horiz-adv-x="525" 
d="M434 480h47q10 -25 10 -86q0 -52 -8 -105t-28.5 -108t-50 -97t-77 -69t-105.5 -27q-65 0 -110 43t-45 120q0 19 5 46l23 123q23 122 20 160h42q13 -15 -1 -84l-36 -197q-4 -21 -4 -43q0 -63 36 -95t81 -32q95 0 152.5 106t57.5 261q0 62 -9 84z" />
    <glyph glyph-name="phi" unicode="&#x3c6;" horiz-adv-x="619" 
d="M251 26l61 330q25 136 123 136q59 0 106.5 -55.5t47.5 -138.5q0 -138 -86.5 -223t-211.5 -87l-35 -188h-47l35 188q-87 10 -144 66t-57 148q0 52 16 98.5t40 78.5t53.5 57.5t54.5 38.5t45 19l16 -30q-25 -9 -52 -27.5t-57 -48.5t-49 -76.5t-19 -100.5q0 -70 39.5 -121
t120.5 -64zM359 360l-61 -334q101 5 172 78t71 185q0 63 -31.5 113t-80.5 50q-53 0 -70 -92z" />
    <glyph glyph-name="chi" unicode="&#x3c7;" horiz-adv-x="429" 
d="M52 480h51l66 -171q28 -71 43 -117h4q32 48 86 126l114 162h53q-39 -55 -118.5 -165.5t-119.5 -165.5l140 -341l-45 -16l-68 172q-31 77 -58 150h-4q-4 -6 -68 -99q-26 -37 -77 -111.5t-76 -111.5l-40 19q41 58 123 173.5t123 173.5z" />
    <glyph glyph-name="psi" unicode="&#x3c8;" horiz-adv-x="636" 
d="M540 480h48q14 -28 14 -91q0 -171 -81.5 -284t-217.5 -117l-35 -188h-47l35 188q-84 5 -133 51.5t-50 131.5q0 36 7 72l25 134q14 80 10 103h44q9 -17 -4 -84l-29 -160q-6 -34 -6 -63q2 -72 42.5 -108t101.5 -38l108 589h47l-109 -589q41 0 82.5 21t78.5 62.5t60 113
t23 161.5q0 69 -14 95z" />
    <glyph glyph-name="omega" unicode="&#x3c9;" horiz-adv-x="714" 
d="M577 492h46q23 -23 39.5 -70t16.5 -100q0 -142 -68 -238t-156 -96q-103 0 -122 97h-3q-47 -97 -142 -97q-59 0 -102 50t-43 139q0 101 44 188.5t94 126.5h50v-2q-53 -42 -96.5 -125.5t-43.5 -184.5q0 -75 32.5 -114t74.5 -39q44 0 79.5 39.5t45.5 100.5l35 201h47
l-34 -183q-6 -29 -6 -51q0 -41 23.5 -74t71.5 -33q60 0 115.5 81t55.5 207q0 55 -15 103t-39 72v2z" />
    <glyph glyph-name="iotadieresis" unicode="&#x3ca;" horiz-adv-x="223" 
d="M86 564h-1q-17 0 -27 12t-10 29q0 16 11.5 28.5t27.5 12.5t27 -12t11 -29t-10.5 -29t-28.5 -12zM266 564h-1q-17 0 -27 12t-10 29q0 16 11.5 28.5t27.5 12.5t27 -12t11 -29t-10.5 -29t-28.5 -12zM186 480l-72 -378q-9 -41 -1.5 -57.5t38.5 -15.5l-11 -38q-6 -3 -22 -3
q-56 0 -56 68q0 11 21 126l57 298h46z" />
    <glyph glyph-name="upsilondieresis" unicode="&#x3cb;" horiz-adv-x="525" 
d="M220 564h-1q-17 0 -27 12t-10 29q0 16 11.5 28.5t27.5 12.5t27 -12t11 -29t-10.5 -29t-28.5 -12zM400 564h-1q-17 0 -27 12t-10 29q0 16 11.5 28.5t27.5 12.5t27 -12t11 -29t-10.5 -29t-28.5 -12zM434 480h47q10 -25 10 -86q0 -52 -8.5 -105t-29 -108t-50.5 -97t-78 -69
t-106 -27q-64 0 -108 43t-44 120q0 19 5 46l23 123q23 122 20 160h42q13 -15 -1 -84l-36 -197q-4 -21 -4 -43q0 -63 35 -95t80 -32q95 0 153.5 106t58.5 261q0 62 -9 84z" />
    <glyph glyph-name="omicrontonos" unicode="&#x3cc;" 
d="M387 682h79l-144 -140h-43zM249 -12h-1q-96 0 -150 62t-54 146q0 126 79.5 211t192.5 85q102 0 154 -64t52 -154q0 -111 -78.5 -198.5t-194.5 -87.5zM252 27h1q87 0 154 71t67 178q0 27 -8 55.5t-25.5 57t-50.5 46.5t-76 18q-94 0 -158 -74t-64 -181q0 -75 45.5 -123
t114.5 -48z" />
    <glyph glyph-name="upsilontonos" unicode="&#x3cd;" horiz-adv-x="525" 
d="M361 682h79l-144 -140h-43zM434 480h47q10 -25 10 -86q0 -52 -8.5 -105t-29 -108t-50.5 -97t-78 -69t-106 -27q-64 0 -108 43t-44 120q0 19 5 46l23 123q23 122 20 160h42q13 -15 -1 -84l-36 -197q-4 -21 -4 -43q0 -63 35 -95t80 -32q95 0 153.5 106t58.5 261q0 62 -9 84
z" />
    <glyph glyph-name="omegatonos" unicode="&#x3ce;" horiz-adv-x="715" 
d="M479 682h79l-144 -140h-43zM577 492h46q23 -23 39.5 -70t16.5 -100q0 -142 -68 -238t-156 -96q-103 0 -122 97h-3q-47 -97 -142 -97q-59 0 -102 50t-43 139q0 101 44 188.5t94 126.5h50v-2q-53 -42 -96.5 -125.5t-43.5 -184.5q0 -75 32.5 -114t74.5 -39q44 0 79.5 39.5
t45.5 100.5l35 201h47l-34 -183q-6 -29 -6 -51q0 -41 23 -74t71 -33q60 0 116 81t56 207q0 55 -15 103t-39 72v2z" />
    <glyph glyph-name="afii10023" unicode="&#x401;" horiz-adv-x="481" 
d="M439 376l-8 -40h-272l-56 -296h306l-8 -40h-353l129 674h336l-8 -40h-289l-49 -258h272zM276 724h-1q-15 0 -26 12.5t-11 28.5q0 15 11.5 28t27.5 13t27 -13t11 -28q0 -16 -11 -28.5t-28 -12.5zM456 724h-1q-15 0 -26 12.5t-11 28.5q0 15 11.5 28t27.5 13t27 -13t11 -28
q0 -16 -11 -28.5t-28 -12.5z" />
    <glyph glyph-name="afii10051" unicode="&#x402;" horiz-adv-x="657" 
d="M65 674h525l-8 -40h-268l-44 -231h2q29 21 73 36t84 15q83 0 133.5 -57.5t50.5 -160.5q0 -82 -28 -154.5t-80 -123.5q-74 -74 -179 -92l-9 37q93 21 149 80q97 102 97 262q0 77 -38 122.5t-108 45.5q-75 0 -155 -54l-69 -359h-47l122 634h-211z" />
    <glyph glyph-name="afii10052" unicode="&#x403;" horiz-adv-x="371" 
d="M177 674h299l-8 -41h-252l-121 -633h-47zM391 825h81l-144 -115h-45z" />
    <glyph glyph-name="afii10053" unicode="&#x404;" horiz-adv-x="602" 
d="M640 645l-20 -37q-60 38 -159 38q-131 0 -229.5 -76t-119.5 -204h394l-7 -39h-394q-4 -12 -4 -36q0 -124 68 -194t192 -70q89 0 172 45l14 -37q-87 -47 -211 -47q-132 0 -207.5 81.5t-75.5 219.5q0 83 31.5 157t85.5 125q122 115 298 115q104 0 172 -41z" />
    <glyph glyph-name="afii10054" unicode="&#x405;" horiz-adv-x="477" 
d="M27 40l20 37q68 -49 149 -49q71 0 125.5 41t54.5 115q0 45 -26 79t-88 64q-79 38 -112.5 79.5t-33.5 90.5q0 85 63.5 137t151.5 52q44 0 82.5 -13t56.5 -28l-21 -36q-57 38 -124 38q-71 0 -117 -42t-46 -94q0 -49 25.5 -79t94.5 -64q75 -36 107.5 -78t32.5 -107
q0 -76 -61.5 -135.5t-174.5 -59.5q-42 0 -89.5 15t-69.5 37z" />
    <glyph glyph-name="afii10055" unicode="&#x406;" horiz-adv-x="223" 
d="M177 674h47l-129 -674h-47z" />
    <glyph glyph-name="afii10056" unicode="&#x407;" horiz-adv-x="223" 
d="M177 674h47l-129 -674h-47zM127 724h-1q-15 0 -26 12.5t-11 28.5q0 15 11.5 28t27.5 13t27 -13t11 -28q0 -16 -11 -28.5t-28 -12.5zM307 724h-1q-15 0 -26 12.5t-11 28.5q0 15 11.5 28t27.5 13t27 -13t11 -28q0 -16 -11 -28.5t-28 -12.5z" />
    <glyph glyph-name="afii10057" unicode="&#x408;" horiz-adv-x="376" 
d="M251 216l87 458h47l-87 -459q-22 -118 -73.5 -172.5t-144.5 -54.5q-73 0 -106 21l13 40q38 -19 102 -19t103.5 41.5t58.5 144.5z" />
    <glyph glyph-name="afii10058" unicode="&#x409;" horiz-adv-x="907" 
d="M235 674h368l-48 -258q26 6 87 6q101 0 163.5 -47.5t62.5 -144.5q0 -98 -73 -159q-90 -77 -246 -77q-38 0 -122 6l120 634h-273l-41 -223q-55 -296 -168 -382q-50 -37 -105 -37l-4 40q44 4 81 33q98 80 148 343zM546 376l-63 -335q28 -7 85 -7q62 0 117 19t95 64.5
t40 110.5q0 154 -187 154q-49 0 -87 -6z" />
    <glyph glyph-name="afii10059" unicode="&#x40a;" horiz-adv-x="914" 
d="M177 674h47l-54 -279h340l54 279h47l-50 -270q26 6 84 6q97 0 163.5 -47.5t66.5 -143.5q0 -91 -71 -154q-82 -71 -244 -71q-41 0 -125 6l68 358h-341l-67 -358h-47zM552 364l-61 -325q25 -5 89 -5q105 0 176 48t71 139q0 73 -56 111t-135 38q-46 0 -84 -6z" />
    <glyph glyph-name="afii10060" unicode="&#x40b;" horiz-adv-x="679" 
d="M65 674h521l-7 -40h-268l-45 -229h2q25 17 74 34t105 17q79 0 121.5 -46.5t42.5 -114.5q0 -39 -10 -92l-39 -203h-46l39 202q10 50 10 85q0 57 -32 92t-107 35q-46 0 -92.5 -16.5t-76.5 -37.5l-69 -360h-45l122 634h-208z" />
    <glyph glyph-name="afii10061" unicode="&#x40c;" horiz-adv-x="532" 
d="M176 674h46l-59 -316h25l335 316h59l-345 -321q85 -5 131.5 -51t66.5 -138q3 -14 9 -47t13 -63t15 -54h-49q-7 20 -13 47.5t-12 59t-9 43.5q-22 98 -68.5 135t-143.5 37h-22l-60 -322h-47zM431 825h81l-144 -115h-45z" />
    <glyph glyph-name="afii10062" unicode="&#x40e;" horiz-adv-x="500" 
d="M95 674h50l117 -354q28 -86 34 -104h2q9 16 73 142l163 316h49l-153 -290q-3 -5 -18.5 -35t-21.5 -41.5t-21.5 -40.5t-24.5 -44t-23.5 -41t-25 -42t-23.5 -35.5t-24.5 -33.5t-22.5 -25q-58 -58 -130 -58q-33 0 -54 12l12 39q20 -8 45 -8q90 0 158 128q8 16 2 35zM249 830
h42q0 -25 16.5 -43t51.5 -18q67 0 83 61h45q-8 -40 -42 -68.5t-86 -28.5q-58 0 -84.5 27.5t-25.5 69.5z" />
    <glyph glyph-name="afii10145" unicode="&#x40f;" horiz-adv-x="643" 
d="M176 674h49l-121 -634h372l123 634h45l-128 -674h-203l-40 -175h-41l27 175h-211z" />
    <glyph glyph-name="afii10017" unicode="&#x410;" horiz-adv-x="578" 
d="M438 238h-286l-134 -238h-48l386 674h46l126 -674h-46zM177 278h253l-43 237q-13 70 -17 108h-2q-44 -85 -55 -105z" />
    <glyph glyph-name="afii10018" unicode="&#x411;" horiz-adv-x="528" 
d="M177 674h321l-6 -40h-275l-41 -218q30 6 87 6q100 0 162 -47.5t62 -144.5q0 -104 -76 -165q-86 -71 -241 -71q-38 0 -122 6zM167 376l-63 -336q30 -6 89 -6q60 0 114 19t93 63.5t39 106.5q0 82 -50 120.5t-135 38.5q-33 0 -87 -6z" />
    <glyph glyph-name="afii10019" unicode="&#x412;" horiz-adv-x="516" 
d="M49 2l126 663q70 14 136 14q116 0 163 -59q27 -34 27 -91q0 -62 -47 -110t-108 -61v-3q48 -12 84 -49.5t35 -101.5q0 -46 -21.5 -86t-52.5 -65q-74 -58 -210 -58q-83 0 -132 7zM216 633l-49 -257h82q87 0 145 42.5t58 113.5q0 109 -149 109q-63 0 -87 -8zM159 338
l-56 -298q35 -5 85 -5q44 0 82 8t72 26.5t54 54.5t20 85q0 63 -47.5 96t-111.5 33h-98z" />
    <glyph glyph-name="afii10020" unicode="&#x413;" horiz-adv-x="371" 
d="M177 674h299l-8 -41h-252l-121 -633h-47z" />
    <glyph glyph-name="afii10021" unicode="&#x414;" horiz-adv-x="618" 
d="M236 674h353l-120 -634h57l-49 -205h-40l30 165h-468l-38 -165h-39l32 205h46q77 96 124 197q47 106 76 251zM274 634l-33 -173q-25 -127 -71 -232q-51 -114 -118 -189h369l112 594h-259z" />
    <glyph glyph-name="afii10022" unicode="&#x415;" horiz-adv-x="481" 
d="M439 376l-8 -40h-272l-56 -296h306l-8 -40h-353l129 674h336l-8 -40h-289l-49 -258h272z" />
    <glyph glyph-name="afii10024" unicode="&#x416;" horiz-adv-x="797" 
d="M127 674h50l199 -315h24l59 315h45l-59 -315h28l309 315h58l-324 -320q73 -4 114 -48t63 -126q7 -25 18.5 -86.5t21.5 -93.5h-47q-8 29 -19 86t-18 85q-20 83 -59.5 116.5t-121.5 33.5h-31l-60 -321h-45l59 321h-27q-84 0 -138.5 -38t-104.5 -137q-28 -55 -79 -146h-52
q15 22 31 51t36.5 67.5t31.5 58.5q53 94 105 132t141 45z" />
    <glyph glyph-name="afii10025" unicode="&#x417;" horiz-adv-x="443" 
d="M129 337l7 40h23q83 0 150.5 41t67.5 119q0 52 -33 81.5t-84 29.5q-69 0 -139 -43l-14 32q69 49 160 49q67 0 112.5 -38t45.5 -109q0 -68 -48 -115.5t-119 -63.5v-2q62 -12 100 -54t38 -107q0 -96 -66.5 -152.5t-172.5 -56.5q-93 0 -167 49l19 36q25 -17 68 -31.5
t84 -14.5q81 0 134 45.5t53 126.5q0 69 -58.5 105.5t-131.5 33.5z" />
    <glyph glyph-name="afii10026" unicode="&#x418;" horiz-adv-x="674" 
d="M176 674h47l-66 -348q-38 -199 -56 -262l1 -2q52 71 162 196l366 416h45l-128 -674h-46l68 360q29 150 53 248l-3 2q-56 -75 -179 -214l-346 -396h-46z" />
    <glyph glyph-name="afii10027" unicode="&#x419;" horiz-adv-x="674" 
d="M176 674h47l-66 -348q-38 -199 -56 -262l1 -2q52 71 162 196l366 416h45l-128 -674h-46l68 360q29 150 53 248l-3 2q-56 -75 -179 -214l-346 -396h-46zM336 830h42q0 -25 16.5 -43t51.5 -18q67 0 83 61h45q-8 -40 -42 -68.5t-86 -28.5q-58 0 -84.5 27.5t-25.5 69.5z" />
    <glyph glyph-name="afii10028" unicode="&#x41a;" horiz-adv-x="532" 
d="M176 674h46l-59 -316h25l335 316h59l-345 -321q85 -5 131.5 -51t66.5 -138q3 -14 9 -47t13 -63t15 -54h-49q-7 20 -13 47.5t-12 59t-9 43.5q-22 98 -68.5 135t-143.5 37h-22l-60 -322h-47z" />
    <glyph glyph-name="afii10029" unicode="&#x41b;" horiz-adv-x="611" 
d="M236 674h376l-129 -674h-47l122 634h-283l-41 -223q-55 -296 -169 -383q-44 -35 -104 -37l-5 39q47 7 80 34q100 82 150 344z" />
    <glyph glyph-name="afii10030" unicode="&#x41c;" horiz-adv-x="818" 
d="M710 0h-46l49 403q19 156 33 222h-3q-83 -158 -108 -200l-252 -425h-37l-77 407q-17 91 -33 218h-2q0 -1 -21.5 -94t-31.5 -128l-108 -403h-46l183 674h54l87 -478q17 -92 24 -139h2q5 9 17.5 33t27 50.5t28.5 49.5l283 484h56z" />
    <glyph glyph-name="afii10031" unicode="&#x41d;" horiz-adv-x="664" 
d="M177 674h47l-57 -296h394l57 296h47l-129 -674h-47l64 338h-394l-64 -338h-47z" />
    <glyph glyph-name="afii10032" unicode="&#x41e;" horiz-adv-x="721" 
d="M337 -12h-1q-137 0 -210 83t-73 208q0 82 32 161t91 140q47 48 115 77t138 29q74 0 130.5 -24t89 -66t48.5 -92.5t16 -108.5q0 -174 -115 -295q-106 -112 -261 -112zM342 28h1q130 0 226 104.5t96 261.5q0 34 -5.5 65.5t-22 66.5t-42.5 61t-70.5 42.5t-102.5 16.5
q-135 0 -228 -109t-93 -253q0 -111 60 -183.5t181 -72.5z" />
    <glyph glyph-name="afii10033" unicode="&#x41f;" horiz-adv-x="643" 
d="M177 674h467l-129 -674h-47l123 634h-374l-122 -634h-47z" />
    <glyph glyph-name="afii10034" unicode="&#x420;" horiz-adv-x="516" 
d="M48 0l128 665q65 14 141 14q122 0 172 -61q34 -43 34 -110q0 -51 -23.5 -96t-56.5 -71q-79 -63 -212 -63q-47 0 -82 6l-54 -284h-47zM215 630l-58 -304q38 -8 83 -8q105 0 170.5 51t65.5 139q0 68 -46 100t-121 32q-64 0 -94 -10z" />
    <glyph glyph-name="afii10035" unicode="&#x421;" horiz-adv-x="604" 
d="M535 67l11 -39q-92 -40 -202 -40q-135 0 -213 76.5t-78 212.5q0 85 33.5 164t94.5 135q120 110 288 110q63 0 110 -13.5t63 -29.5l-21 -36q-56 39 -168 39q-65 0 -129.5 -26t-113.5 -72q-51 -48 -80 -118t-29 -147q0 -51 13 -94.5t40.5 -81t78.5 -58.5t120 -21
q110 0 182 39z" />
    <glyph glyph-name="afii10036" unicode="&#x422;" horiz-adv-x="480" 
d="M172 0l121 634h-237l8 40h521l-8 -40h-237l-121 -634h-47z" />
    <glyph glyph-name="afii10037" unicode="&#x423;" horiz-adv-x="500" 
d="M95 674h50l117 -354q28 -86 34 -104h2q9 16 73 142l163 316h49l-153 -290q-3 -5 -18.5 -35t-21.5 -41.5t-21.5 -40.5t-24.5 -44t-23.5 -41t-25 -42t-23.5 -35.5t-24.5 -33.5t-22.5 -25q-58 -58 -130 -58q-33 0 -54 12l12 39q20 -8 45 -8q90 0 158 128q8 16 2 35z" />
    <glyph glyph-name="afii10038" unicode="&#x424;" horiz-adv-x="725" 
d="M294 -30l11 55q-106 11 -175 86.5t-69 191.5q0 95 35 167t90.5 111t116 57t120.5 17l11 49h46l-10 -51q107 -12 175 -86t68 -202q0 -169 -103.5 -257t-258.5 -87l-10 -51h-47zM313 62l103 556q-51 0 -101 -16t-98 -49.5t-78 -96t-30 -145.5q0 -102 56.5 -168t147.5 -81z
M462 616l-103 -558q149 4 227.5 88t78.5 224q0 105 -56.5 170t-146.5 76z" />
    <glyph glyph-name="afii10039" unicode="&#x425;" horiz-adv-x="530" 
d="M479 0h-50l-88 187q-13 27 -55 120h-2q-8 -9 -38 -46.5t-53 -65.5l-160 -195h-56l290 342l-149 332h50l91 -209q7 -17 16 -37.5t15 -33.5t9 -20h2q9 10 35.5 42.5t38.5 46.5l180 211h57l-293 -332z" />
    <glyph glyph-name="afii10040" unicode="&#x426;" horiz-adv-x="648" 
d="M177 674h48l-122 -634h373l123 634h45l-121 -634h57l-49 -205h-40l30 165h-473z" />
    <glyph glyph-name="afii10041" unicode="&#x427;" horiz-adv-x="577" 
d="M147 674h47l-37 -197q-11 -59 -11 -83q0 -60 37 -90.5t103 -30.5q55 0 105.5 20t76.5 41l64 340h46l-128 -682h-47l56 293h-2q-81 -52 -184 -52q-81 0 -128 41.5t-47 113.5q0 35 13 98z" />
    <glyph glyph-name="afii10042" unicode="&#x428;" horiz-adv-x="840" 
d="M177 674h48l-122 -634h261l121 634h48l-122 -634h261l121 634h48l-130 -674h-663z" />
    <glyph glyph-name="afii10043" unicode="&#x429;" horiz-adv-x="845" 
d="M177 674h48l-122 -634h261l121 634h48l-122 -634h261l121 634h48l-122 -634h57l-49 -205h-40l30 165h-669z" />
    <glyph glyph-name="afii10044" unicode="&#x42a;" horiz-adv-x="622" 
d="M64 674h264l-48 -258q33 6 87 6q100 0 162 -47.5t62 -144.5q0 -101 -72 -163q-84 -73 -245 -73q-38 0 -122 6l121 634h-217zM271 374l-63 -334q30 -6 89 -6q61 0 114.5 18t92.5 63t39 111q0 80 -50 118t-135 38q-39 0 -87 -8z" />
    <glyph glyph-name="afii10045" unicode="&#x42b;" horiz-adv-x="718" 
d="M177 674h47l-48 -258q33 6 87 6q100 0 162 -47.5t62 -144.5q-1 -98 -69 -159q-87 -77 -248 -77q-38 0 -122 6zM167 374l-63 -333q28 -7 89 -7q60 0 114 19t93 63.5t39 106.5q0 82 -50 120.5t-135 38.5q-37 0 -87 -8zM670 674h49l-129 -674h-49z" />
    <glyph glyph-name="afii10046" unicode="&#x42c;" horiz-adv-x="526" 
d="M177 674h47l-48 -258q30 6 87 6q100 0 162 -47.5t62 -144.5q0 -99 -68 -160q-88 -76 -249 -76q-38 0 -122 6zM167 374l-63 -333q28 -7 89 -7q62 0 116.5 19t92 63.5t37.5 106.5q0 82 -50 120.5t-135 38.5q-51 0 -87 -8z" />
    <glyph glyph-name="afii10047" unicode="&#x42d;" horiz-adv-x="576" 
d="M150 326l8 40h363q1 8 1 34q0 109 -65.5 177.5t-180.5 68.5q-97 0 -169 -37l-12 35q27 16 79 29t108 13q135 0 212 -77.5t77 -218.5q0 -88 -31.5 -168t-92.5 -136q-104 -98 -266 -98q-114 0 -189 47l19 38q77 -45 167 -45q141 0 229.5 80t109.5 218h-367z" />
    <glyph glyph-name="afii10048" unicode="&#x42e;" horiz-adv-x="903" 
d="M177 674h47l-57 -296h119q27 118 104 202q44 47 108 76.5t130 29.5q70 0 123 -24t83.5 -66t45.5 -92.5t15 -108.5q0 -173 -108 -295q-99 -112 -245 -112q-129 0 -198 83t-69 208q0 33 4 60h-120l-64 -339h-47zM546 28h1q122 0 211.5 104.5t89.5 261.5q0 34 -5 65.5
t-20 67t-39 60.5t-65.5 42t-96.5 17q-127 0 -214 -109t-87 -253q0 -111 55.5 -183.5t169.5 -72.5z" />
    <glyph glyph-name="afii10049" unicode="&#x42f;" horiz-adv-x="530" 
d="M531 665l-127 -665h-47l60 311h-81q-39 0 -71 -10t-53 -23t-42 -41t-33 -49t-33 -61q-47 -91 -68 -127h-52q14 22 44.5 81t34.5 66q22 40 33.5 59.5t33.5 49t46.5 46t55.5 25.5v2q-121 36 -121 145t100 172q79 34 176 34q65 0 144 -15zM424 349l53 283q-38 9 -96 9
q-93 0 -157.5 -40.5t-64.5 -125.5q0 -62 49.5 -94t121.5 -32h94z" />
    <glyph glyph-name="afii10065" unicode="&#x430;" 
d="M450 0h-45q-3 42 15 157h-2q-82 -169 -226 -169q-70 0 -110.5 47t-40.5 114q0 137 101 240t247 103q70 0 127 -15l-45 -240q-27 -143 -21 -237zM434 286l29 156q-26 10 -81 10q-117 0 -205 -85.5t-88 -212.5q0 -22 5 -42.5t16.5 -40.5t35 -32t56.5 -12q73 0 142.5 76
t89.5 183z" />
    <glyph glyph-name="afii10066" unicode="&#x431;" horiz-adv-x="536" 
d="M561 728l-9 -47q-22 -9 -59 -17q-44 -7 -52.5 -8.5t-45 -9t-48 -12t-40 -15.5t-43 -22.5t-34.5 -29.5t-37 -40q-48 -64 -75 -168h2q34 56 89 88.5t121 32.5q82 0 129 -53.5t47 -142.5q0 -120 -73 -208t-195 -88q-93 0 -138 64.5t-45 173.5q0 197 113 335q31 38 65.5 63.5
t79.5 41t78.5 23t93.5 17.5q39 7 76 22zM245 27h1q97 0 154 75t57 176q0 74 -34.5 118t-101.5 44q-101 0 -173 -97q-44 -58 -44 -138q0 -74 36 -126t105 -52z" />
    <glyph glyph-name="afii10067" unicode="&#x432;" horiz-adv-x="473" 
d="M307 492h1q52 0 87.5 -28t35.5 -84q0 -44 -35.5 -76t-81.5 -46v-2q41 -5 73.5 -34t32.5 -77q0 -77 -61.5 -117t-145.5 -40q-68 0 -112 31t-44 105q0 81 35 182t95 146q54 40 120 40zM298 453h-1q-38 0 -68 -16.5t-50 -48t-32 -61t-24 -69.5q159 17 206 44q56 32 56 78
q0 37 -24.5 55t-62.5 18zM241 234h-1q-38 0 -124 -15q-10 -52 -10 -86q0 -106 112 -106q61 0 107.5 30.5t46.5 83.5q0 46 -36 69.5t-95 23.5z" />
    <glyph glyph-name="afii10068" unicode="&#x433;" horiz-adv-x="358" 
d="M124 422l-14 35q56 35 119 34q57 -2 87.5 -32.5t30.5 -78.5q0 -29 -11 -52t-34 -41t-44 -29t-56 -27q-34 -15 -52 -24.5t-39 -24.5t-30 -32.5t-9 -40.5q0 -35 23.5 -57t69.5 -23q57 -1 112 31l13 -34q-61 -40 -139 -37q-59 2 -92.5 35t-33.5 87q0 55 36.5 88.5
t103.5 63.5q4 2 19.5 8.5t21.5 9.5t20 9.5t20.5 11t17 11.5t15.5 13.5t11 15t8.5 18t2.5 19.5q0 30 -20 50.5t-59 21.5q-46 1 -98 -29z" />
    <glyph glyph-name="afii10069" unicode="&#x434;" horiz-adv-x="515" 
d="M153 684l-4 44q23 -4 80 -9q69 -6 112 -22.5t77 -51.5q38 -40 58.5 -106.5t20.5 -131.5q0 -53 -8 -107t-28.5 -111t-50.5 -101t-78 -72t-108 -28q-87 0 -135 52t-48 143q0 73 27.5 139.5t85 112t132.5 45.5q65 0 107.5 -33.5t58.5 -93.5h2v52q0 56 -18 117.5t-52 94.5
q-28 28 -62.5 41t-92.5 18q-6 1 -20 2t-28 2.5t-28 3.5zM232 27h1q54 0 100.5 40.5t70.5 97t24 109.5q0 66 -38 116t-104 50q-93 0 -144 -77t-51 -175q0 -71 36 -116t105 -45z" />
    <glyph glyph-name="afii10070" unicode="&#x435;" horiz-adv-x="460" 
d="M373 65l14 -37q-63 -40 -162 -40q-92 0 -138 57t-46 138q0 116 80.5 212.5t188.5 96.5q68 0 103.5 -33.5t35.5 -81.5q0 -49 -28.5 -81t-83 -46.5t-111.5 -19.5t-133 -3q-6 -22 -3.5 -57t12.5 -59q34 -83 129 -83q78 0 142 37zM401 373v1q0 38 -27.5 58t-71.5 20
q-70 0 -126.5 -57.5t-76.5 -128.5q66 -1 116 2.5t94.5 14.5t68 33.5t23.5 56.5z" />
    <glyph glyph-name="afii10072" unicode="&#x436;" horiz-adv-x="632" 
d="M80 480h54l149 -220h25l42 220h43l-43 -220h26l227 220h56l-238 -223q81 -8 116 -120q6 -18 19 -68.5t21 -68.5h-44q-7 18 -36 120q-17 63 -47 84t-92 21h-17l-44 -225h-43l46 226h-15q-67 0 -111 -23t-80 -81q-18 -29 -41 -70.5t-29 -51.5h-49q7 12 70 122
q39 67 84.5 99.5t111.5 35.5z" />
    <glyph glyph-name="afii10073" unicode="&#x437;" horiz-adv-x="385" 
d="M100 233l7 39h21q36 0 73 9.5t67 35.5t30 63q0 36 -26 54.5t-65 18.5q-62 0 -119 -38l-15 32q57 45 133 45q61 0 101.5 -28t40.5 -86q0 -49 -39.5 -81.5t-95.5 -41.5v-1q43 -3 81 -35.5t38 -77.5q0 -54 -30.5 -90t-73.5 -49.5t-97 -13.5q-84 0 -144 38l17 38
q59 -37 130 -37q34 0 66 10t57 35t25 61q0 55 -46 77.5t-108 22.5h-28z" />
    <glyph glyph-name="afii10074" unicode="&#x438;" 
d="M125 480h47l-50 -259q-9 -46 -9 -75q0 -116 110 -116q58 0 119.5 55.5t77.5 138.5l49 256h47l-70 -364q-14 -79 -18 -116h-44l17 104h-2q-31 -49 -82 -82.5t-104 -33.5q-147 0 -147 159q0 31 10 81z" />
    <glyph glyph-name="afii10075" unicode="&#x439;" 
d="M125 480h47l-50 -259q-9 -46 -9 -75q0 -116 110 -116q58 0 119.5 55.5t77.5 138.5l49 256h47l-70 -364q-14 -79 -18 -116h-44l17 104h-2q-31 -49 -82 -82.5t-104 -33.5q-147 0 -147 159q0 31 10 81zM235 684h43q-3 -33 14 -57t48 -24q57 0 86 81h46q-14 -55 -49 -86
t-85 -31q-63 0 -86 35.5t-17 81.5z" />
    <glyph glyph-name="afii10076" unicode="&#x43a;" horiz-adv-x="467" 
d="M140 480h46l-42 -220h25l259 220h61l-271 -223q43 -9 72.5 -38.5t60.5 -92.5q12 -25 32 -68t29 -58h-45q-9 15 -29 55.5t-31 62.5q-34 65 -66 86t-87 21h-18l-42 -225h-46z" />
    <glyph glyph-name="afii10077" unicode="&#x43b;" horiz-adv-x="532" 
d="M179 480h319l-91 -480h-47l83 440h-225l-25 -132q-44 -233 -148 -291q-35 -20 -75 -21l-5 40q35 2 56 14q84 48 124 255z" />
    <glyph glyph-name="afii10078" unicode="&#x43c;" horiz-adv-x="681" 
d="M168 480h54l58 -288q3 -16 13 -68t13 -66h1q43 80 107 183l151 239h57l-60 -480h-46l34 260q4 29 11.5 82.5t10.5 76.5h-5q-4 -13 -84 -143l-172 -276h-37l-54 276q-24 117 -27 145h-3q-29 -126 -39 -161l-72 -260h-46z" />
    <glyph glyph-name="afii10079" unicode="&#x43d;" horiz-adv-x="561" 
d="M139 480h47l-38 -203h294l38 203h47l-91 -480h-47l45 238h-294l-45 -238h-47z" />
    <glyph glyph-name="afii10080" unicode="&#x43e;" horiz-adv-x="550" 
d="M249 -12h-1q-96 0 -150 62t-54 146q0 126 79.5 211t192.5 85q102 0 154 -64t52 -154q0 -111 -78.5 -198.5t-194.5 -87.5zM252 27h1q87 0 154 71t67 178q0 27 -8 55.5t-25.5 57t-50.5 46.5t-76 18q-94 0 -158 -74t-64 -181q0 -75 45.5 -123t114.5 -48z" />
    <glyph glyph-name="afii10081" unicode="&#x43f;" horiz-adv-x="567" 
d="M95 0h-47l69 364q14 80 19 116h44l-16 -110h2q32 55 86.5 88.5t116.5 33.5q15 0 30 -2.5t34.5 -12t34.5 -24.5t25.5 -43.5t10.5 -66.5q0 -27 -9 -77l-51 -266h-47l52 273q7 42 7 63q0 115 -107 115q-61 0 -127.5 -59.5t-83.5 -155.5z" />
    <glyph glyph-name="afii10082" unicode="&#x440;" 
d="M45 -200h-47l100 525q17 89 26 155h45l-18 -110h2q38 57 92 89.5t112 32.5q82 0 123.5 -54t41.5 -127q0 -133 -92 -228t-213 -95q-78 0 -131 24h-2zM120 197l-26 -139q43 -31 127 -31q98 0 175 79.5t77 201.5q0 33 -11 64t-41.5 55.5t-77.5 24.5q-66 0 -133 -66.5
t-90 -188.5z" />
    <glyph glyph-name="afii10083" unicode="&#x441;" horiz-adv-x="463" 
d="M385 65l14 -39q-73 -38 -164 -38q-96 0 -144 54t-48 127q0 131 88 227t213 96q39 0 75.5 -11t46.5 -20l-18 -39q-52 27 -111 27q-106 0 -176 -83t-70 -188q0 -68 38 -109t114 -41q73 0 142 37z" />
    <glyph glyph-name="afii10084" unicode="&#x442;" horiz-adv-x="873" 
d="M95 0h-47l69 364q14 80 19 116h44l-17 -102h3q36 54 85 84t104 30q57 0 88.5 -32.5t34.5 -93.5q71 125 203 126q18 0 38 -5.5t42 -19t36 -42t14 -68.5q0 -42 -7 -81l-53 -276h-47l52 274q7 37 7 62q0 56 -23.5 85.5t-78.5 29.5q-59 0 -116.5 -52.5t-73.5 -138.5l-48 -260
h-47l55 284q6 33 6 56q0 111 -103 111q-57 0 -117.5 -59.5t-75.5 -140.5z" />
    <glyph glyph-name="afii10085" unicode="&#x443;" horiz-adv-x="434" 
d="M50 480h48l71 -288q31 -124 34 -141h3q2 3 24 45.5t39 78.5l146 305h51q-104 -221 -185 -370q-87 -161 -158 -237q-71 -77 -151 -97l-12 40q61 22 97 52q63 52 108 130q4 7 2 18z" />
    <glyph glyph-name="afii10086" unicode="&#x444;" horiz-adv-x="694" 
d="M243 -200l56 271h-1q-19 -25 -34 -40.5t-44.5 -29t-64.5 -13.5q-59 0 -90 47t-31 110q0 72 25 149t81.5 137.5t130.5 60.5q34 0 58.5 -21.5t33.5 -55.5h1l57 301h46l-63 -303h2q57 79 136 79q66 0 96.5 -48.5t30.5 -128.5q0 -70 -23.5 -142.5t-77 -128.5t-124.5 -56
q-38 0 -65.5 23.5t-38.5 57.5h-2l-49 -269h-46zM269 453h-1q-47 0 -85 -33t-59.5 -82t-32.5 -99t-11 -91q0 -57 23 -89t65 -32q56 0 97.5 51.5t54.5 115.5l20 103q5 24 5 60q0 39 -23.5 67.5t-52.5 28.5zM544 453h-1q-71 0 -124 -74q-25 -36 -37 -100q-12 -62 -19 -94
q-5 -27 -5 -53q0 -37 25.5 -71t64.5 -34q55 0 97 50t60 113.5t18 122.5q0 140 -79 140z" />
    <glyph glyph-name="afii10087" unicode="&#x445;" horiz-adv-x="440" 
d="M76 480h50l67 -129q7 -13 36 -71h3q28 37 53 65l124 135h55l-216 -233l130 -247h-51l-69 131q-29 53 -42 83h-3q-21 -33 -48 -62l-138 -152h-55l228 247z" />
    <glyph glyph-name="afii10088" unicode="&#x446;" horiz-adv-x="563" 
d="M125 480h47l-50 -259q-9 -46 -9 -75q0 -116 110 -116q58 0 119.5 55.5t77.5 138.5l49 256h47l-65 -342q-5 -25 -5 -42q0 -65 70 -66l-50 -160h-37l34 130q-35 6 -53 36q-15 27 -9 68h-2q-31 -49 -82 -82.5t-104 -33.5q-147 0 -147 159q0 31 10 81z" />
    <glyph glyph-name="afii10089" unicode="&#x447;" horiz-adv-x="521" 
d="M114 480h47l-18 -89q-14 -72 -14 -96q0 -44 23.5 -68t84.5 -24q37 0 87 20t75 45l40 212h46l-92 -480h-46l42 218h-1q-82 -54 -162 -54q-144 0 -144 122q0 36 13 99z" />
    <glyph glyph-name="afii10090" unicode="&#x448;" horiz-adv-x="836" 
d="M126 480h47l-52 -274q-7 -37 -7 -62q0 -115 94 -115q59 0 113 52.5t70 138.5l48 260h47l-55 -284q-6 -33 -6 -56q0 -111 95 -111q52 0 111.5 60t74.5 140l46 251h47l-67 -358q-3 -15 -8 -122h-44q0 60 4 102h-3q-67 -114 -177 -114q-53 0 -85 33t-35 93
q-72 -126 -203 -126q-14 0 -31.5 5.5t-37.5 19t-33 42t-13 68.5q0 42 7 81z" />
    <glyph glyph-name="afii10091" unicode="&#x449;" horiz-adv-x="846" 
d="M126 480h47l-52 -274q-7 -37 -7 -62q0 -115 94 -115q55 0 111.5 53t71.5 138l48 260h47l-55 -284q-6 -33 -6 -56q0 -111 95 -111q52 0 111.5 60t74.5 140l46 251h47l-65 -342q-5 -25 -5 -42q0 -65 70 -66l-50 -160h-37l34 130q-34 7 -50 35.5t-12 66.5h-3
q-75 -114 -182 -114q-52 0 -82 32.5t-33 93.5q-34 -59 -84.5 -92.5t-111.5 -33.5q-15 0 -33.5 5.5t-39.5 19t-35 42t-14 68.5q0 42 7 81z" />
    <glyph glyph-name="afii10092" unicode="&#x44a;" horiz-adv-x="512" 
d="M53 480h254q-11 -18 -36.5 -59t-39 -63.5t-31 -58t-29.5 -68.5h1q27 36 72 60t94 24q61 0 96 -33t35 -92q0 -88 -67 -142t-156 -54q-66 0 -102 31.5t-36 94.5q0 72 40 161.5t93 158.5h-195zM244 31h1q70 0 123.5 42.5t53.5 107.5q0 41 -25.5 68.5t-73.5 27.5
q-51 0 -98.5 -36t-64.5 -83q-7 -20 -7 -39q0 -39 23.5 -63.5t67.5 -24.5z" />
    <glyph glyph-name="afii10093" unicode="&#x44b;" horiz-adv-x="641" 
d="M136 480h47l-61 -249h1q26 36 70 60t86 24q62 0 101.5 -35t39.5 -99q0 -87 -68.5 -137t-159.5 -50q-133 0 -133 106q0 39 13 96zM195 31h1q69 0 123 40.5t54 107.5q0 42 -26 70t-78 28q-49 0 -97.5 -39.5t-59.5 -87.5q-8 -30 -8 -51q0 -68 91 -68zM558 480h49l-92 -480
h-49z" />
    <glyph glyph-name="afii10094" unicode="&#x44c;" horiz-adv-x="464" 
d="M137 480h47l-61 -249h1q27 36 71 60t90 24q61 0 98.5 -34t37.5 -96q0 -89 -68 -140t-157 -51q-136 0 -136 108q0 37 13 94zM196 31h1q69 0 123 40.5t54 107.5q0 43 -24 70.5t-77 27.5q-48 0 -94.5 -36.5t-61.5 -77.5q-12 -30 -12 -59q0 -35 24.5 -54t66.5 -19z" />
    <glyph glyph-name="afii10095" unicode="&#x44d;" horiz-adv-x="459" 
d="M112 226l6 39h259q1 7 1 19q0 70 -46.5 118t-124.5 48q-65 0 -132 -30l-12 35q64 37 146 37q102 0 158.5 -61.5t56.5 -169.5q0 -121 -76.5 -197.5t-199.5 -76.5q-97 0 -152 40l18 37q20 -13 57.5 -24.5t73.5 -11.5q94 0 154 51t74 147h-261z" />
    <glyph glyph-name="afii10096" unicode="&#x44e;" horiz-adv-x="718" 
d="M139 480h47l-38 -203h89q23 96 92.5 155.5t158.5 59.5q98 0 148.5 -64t50.5 -154q0 -111 -75.5 -198.5t-187.5 -87.5q-93 0 -145 62t-52 146q0 21 3 42h-90l-45 -238h-47zM427 27h1q83 0 146.5 71t63.5 178q0 21 -4.5 43t-15.5 46.5t-27.5 43.5t-43.5 31.5t-61 12.5
q-90 0 -151.5 -74t-61.5 -181q0 -74 44 -122.5t110 -48.5z" />
    <glyph glyph-name="afii10097" unicode="&#x44f;" horiz-adv-x="474" 
d="M440 474l-90 -474h-45l41 216h-71q-62 0 -100.5 -27t-67.5 -83q-3 -7 -23 -47t-31 -59h-48q14 22 35 66.5t30 61.5q51 90 133 106v2q-49 10 -79.5 38t-30.5 70q0 54 36.5 87t82 43t101.5 10q65 0 127 -10zM354 255l35 185q-44 7 -82 7q-164 0 -164 -105q0 -42 46 -64.5
t94 -22.5h71z" />
    <glyph glyph-name="afii10071" unicode="&#x451;" horiz-adv-x="460" 
d="M373 65l14 -37q-63 -40 -162 -40q-92 0 -138 57t-46 138q0 116 80.5 212.5t188.5 96.5q68 0 103.5 -33.5t35.5 -81.5q0 -49 -28.5 -81t-83 -46.5t-111.5 -19.5t-133 -3q-6 -22 -3.5 -57t12.5 -59q34 -83 129 -83q78 0 142 37zM401 373v1q0 38 -27.5 58t-71.5 20
q-70 0 -126.5 -57.5t-76.5 -128.5q66 -1 116 2.5t94.5 14.5t68 33.5t23.5 56.5zM241 585h-1q-16 0 -26.5 12t-10.5 28t11 28t27 12t27 -11.5t11 -28.5q0 -16 -10.5 -28t-27.5 -12zM420 585h-1q-16 0 -26 12t-10 28t11 28t27 12t26.5 -11.5t10.5 -28.5q0 -16 -10 -28t-28 -12
z" />
    <glyph glyph-name="afii10099" unicode="&#x452;" horiz-adv-x="560" 
d="M184 716h46l-19 -100h298l-11 -38h-294l-36 -186h2q79 100 187 100q81 0 123 -59.5t42 -162.5q0 -120 -48 -231t-148 -173q-48 -29 -106 -41l-12 39q53 13 98 41q80 50 124 149.5t44 207.5q0 190 -129 190q-68 0 -127 -57.5t-70 -119.5l-52 -275h-48l110 578h-73l10 38
h71z" />
    <glyph glyph-name="afii10100" unicode="&#x453;" horiz-adv-x="358" 
d="M124 422l-14 35q56 35 119 34q57 -2 87.5 -32.5t30.5 -78.5q0 -29 -11 -52t-34 -41t-44 -29t-56 -27q-34 -15 -52 -24.5t-39 -24.5t-30 -32.5t-9 -40.5q0 -35 23.5 -57t69.5 -23q57 -1 112 31l13 -34q-61 -40 -139 -37q-59 2 -92.5 35t-33.5 87q0 55 36.5 88.5
t103.5 63.5q4 2 19.5 8.5t21.5 9.5t20 9.5t20.5 11t17 11.5t15.5 13.5t11 15t8.5 18t2.5 19.5q0 30 -20 50.5t-59 21.5q-46 1 -98 -29zM318 682h79l-144 -140h-43z" />
    <glyph glyph-name="afii10101" unicode="&#x454;" horiz-adv-x="452" 
d="M463 455l-20 -36q-52 33 -120 33q-88 0 -147 -52t-79 -136h282l-8 -38h-280q-1 -8 -1 -24q2 -79 49.5 -127t131.5 -48q66 0 118 26l14 -33q-56 -32 -150 -32q-97 0 -153.5 59t-56.5 156q0 119 81 205q82 84 202 84q80 0 137 -37z" />
    <glyph glyph-name="afii10102" unicode="&#x455;" horiz-adv-x="374" 
d="M27 19l17 38q43 -29 95 -29q50 0 83.5 30t33.5 71q0 34 -16 57t-62 48q-82 44 -82 120q0 56 45.5 97t111.5 41q61 0 92 -25l-17 -40q-35 25 -81 25q-44 0 -74.5 -27t-30.5 -65q0 -32 18 -53.5t60 -44.5q83 -45 83 -122q0 -68 -49 -110t-118 -42q-68 0 -109 31z" />
    <glyph glyph-name="afii10103" unicode="&#x456;" horiz-adv-x="223" 
d="M95 0h-47l92 480h47zM189 588h-1q-17 0 -27 13t-10 30t11 30t28 13t27.5 -12.5t11.5 -30.5q-1 -18 -11.5 -30.5t-28.5 -12.5z" />
    <glyph glyph-name="afii10104" unicode="&#x457;" horiz-adv-x="223" 
d="M95 0h-47l92 480h47zM92 585h-1q-17 0 -27 12t-10 28t11 28t27 12t27 -11.5t11 -28.5q0 -16 -10.5 -28t-27.5 -12zM271 585h-1q-16 0 -26 12t-10 28t11 28t27 12t26.5 -11.5t10.5 -28.5q0 -16 -10 -28t-28 -12z" />
    <glyph glyph-name="afii10105" unicode="&#x458;" horiz-adv-x="208" 
d="M135 480h47l-93 -484q-24 -123 -62 -164q-41 -44 -102 -44q-33 0 -50 6l7 38q13 -5 45 -5q42 0 69 33.5t42 112.5zM179 588h-1q-17 0 -27 13t-10 30t11 30t28 13t27.5 -12.5t11.5 -30.5q-1 -18 -11.5 -30.5t-28.5 -12.5z" />
    <glyph glyph-name="afii10106" unicode="&#x459;" horiz-adv-x="763" 
d="M172 480h300l-49 -242h2q32 35 76 56t89 21q60 0 95 -34t35 -93q0 -88 -66.5 -141t-156.5 -53q-138 0 -138 110q0 34 10 89l49 247h-206l-25 -133q-23 -119 -55 -189t-88 -101q-37 -21 -75 -21l-5 40q32 0 55 13q81 47 120 255zM499 31h1q69 0 121 39.5t52 106.5
q0 43 -23 71.5t-71 28.5t-95.5 -35.5t-68.5 -81.5q-11 -22 -11 -50q0 -40 25.5 -59.5t69.5 -19.5z" />
    <glyph glyph-name="afii10107" unicode="&#x45a;" horiz-adv-x="781" 
d="M139 480h47l-35 -187h257l35 187h47l-49 -242h2q26 34 69.5 55.5t85.5 21.5q62 0 101 -35.5t39 -96.5q0 -88 -66 -138.5t-157 -50.5q-69 0 -105 23.5t-36 81.5q0 30 14 93l13 63h-258l-48 -255h-47zM517 31h1q69 0 121 39.5t52 106.5q0 43 -26 71.5t-78 28.5
q-48 0 -94 -36t-62 -83q-11 -30 -11 -53q0 -36 26.5 -55t70.5 -19z" />
    <glyph glyph-name="afii10108" unicode="&#x45b;" horiz-adv-x="567" 
d="M185 716h47l-20 -100h295l-9 -38h-293l-41 -206h2q34 55 87 87.5t118 32.5q18 0 37 -5t42 -18.5t38 -43.5t15 -73q0 -45 -7 -80l-52 -272h-47l52 272q7 35 7 72q0 47 -26 77t-79 30q-63 0 -129 -58.5t-82 -146.5l-45 -246h-47l110 578h-72l8 38h72z" />
    <glyph glyph-name="afii10109" unicode="&#x45c;" horiz-adv-x="467" 
d="M140 480h46l-42 -220h25l259 220h61l-271 -223q43 -9 72.5 -38.5t60.5 -92.5q12 -25 32 -68t29 -58h-45q-9 15 -29 55.5t-31 62.5q-34 65 -66 86t-87 21h-18l-42 -225h-46zM381 682h79l-144 -140h-43z" />
    <glyph glyph-name="afii10110" unicode="&#x45e;" horiz-adv-x="434" 
d="M50 480h48l71 -288q31 -124 34 -141h3q2 3 24 45.5t39 78.5l146 305h51q-104 -221 -185 -370q-87 -161 -158 -237q-71 -77 -151 -97l-12 40q61 22 97 52q63 52 108 130q4 7 2 18zM175 684h43q-3 -33 14 -57t48 -24q57 0 86 81h46q-14 -55 -49 -86t-85 -31q-63 0 -86 35.5
t-17 81.5z" />
    <glyph glyph-name="afii10193" unicode="&#x45f;" 
d="M125 480h47l-50 -259q-9 -46 -9 -75q0 -116 110 -116q58 0 119.5 55.5t77.5 138.5l49 256h47l-70 -364q-14 -79 -18 -116h-44l17 104h-2q-31 -49 -82 -82.5t-104 -33.5q-147 0 -147 159q0 31 10 81zM214 -197l-41 -5l28 159l50 5z" />
    <glyph glyph-name="afii10050" unicode="&#x490;" horiz-adv-x="395" 
d="M174 674h280l37 129h42l-41 -170h-277l-118 -633h-49z" />
    <glyph glyph-name="afii10098" unicode="&#x491;" horiz-adv-x="378" 
d="M139 480h234l37 111h39l-42 -150h-231l-83 -441h-45z" />
    <glyph glyph-name="afii10846" unicode="&#x4d9;" horiz-adv-x="448" 
d="M90 415l-14 37q63 40 162 40q92 0 138 -57t46 -138q0 -116 -80.5 -212.5t-188.5 -96.5q-68 0 -103.5 33.5t-35.5 81.5q0 49 28.5 81t83 46.5t111.5 19.5t133 3q6 22 3.5 57t-12.5 59q-34 83 -129 83q-78 0 -142 -37zM161 28h1q69 0 125.5 58t76.5 128q-66 1 -116 -2.5
t-94.5 -14.5t-68 -33.5t-23.5 -56.5q0 -38 27.5 -58.5t71.5 -20.5z" />
    <glyph glyph-name="Wgrave" unicode="&#x1e80;" horiz-adv-x="865" 
d="M196 0h-49l-47 674h47l29 -472q1 -9 6 -151h2q14 35 68 143l244 480h48l30 -436q10 -144 10 -187h2q25 71 65 150l237 473h49l-342 -674h-48l-32 440q-8 104 -3 188h-3q-31 -85 -65 -149zM411 825h71l64 -115h-35z" />
    <glyph glyph-name="wgrave" unicode="&#x1e81;" horiz-adv-x="746" 
d="M70 480h44l32 -314q6 -60 8 -117h2q48 96 52 103l187 328h48l51 -323q9 -58 15 -108h2q22 60 41 98l171 333h49l-251 -480h-44l-52 322q-12 74 -12 115h-2q-7 -13 -27 -51.5t-34 -63.5l-185 -322h-44zM342 682h69l54 -140h-33z" />
    <glyph glyph-name="Wacute" unicode="&#x1e82;" horiz-adv-x="865" 
d="M196 0h-49l-47 674h47l29 -472q1 -9 6 -151h2q14 35 68 143l244 480h48l30 -436q10 -144 10 -187h2q25 71 65 150l237 473h49l-342 -674h-48l-32 440q-8 104 -3 188h-3q-31 -85 -65 -149zM593 825h81l-144 -115h-45z" />
    <glyph glyph-name="wacute" unicode="&#x1e83;" horiz-adv-x="746" 
d="M70 480h44l32 -314q6 -60 8 -117h2q48 96 52 103l187 328h48l51 -323q9 -58 15 -108h2q22 60 41 98l171 333h49l-251 -480h-44l-52 322q-12 74 -12 115h-2q-7 -13 -27 -51.5t-34 -63.5l-185 -322h-44zM502 682h79l-144 -140h-43z" />
    <glyph glyph-name="Wdieresis" unicode="&#x1e84;" horiz-adv-x="865" 
d="M196 0h-49l-47 674h47l29 -472q1 -9 6 -151h2q14 35 68 143l244 480h48l30 -436q10 -144 10 -187h2q25 71 65 150l237 473h49l-342 -674h-48l-32 440q-8 104 -3 188h-3q-31 -85 -65 -149zM448 724h-1q-15 0 -26 12.5t-11 28.5q0 15 11.5 28t27.5 13t27 -13t11 -28
q0 -16 -11 -28.5t-28 -12.5zM628 724h-1q-15 0 -26 12.5t-11 28.5q0 15 11.5 28t27.5 13t27 -13t11 -28q0 -16 -11 -28.5t-28 -12.5z" />
    <glyph glyph-name="wdieresis" unicode="&#x1e85;" horiz-adv-x="746" 
d="M70 480h44l32 -314q6 -60 8 -117h2q48 96 52 103l187 328h48l51 -323q9 -58 15 -108h2q22 60 41 98l171 333h49l-251 -480h-44l-52 322q-12 74 -12 115h-2q-7 -13 -27 -51.5t-34 -63.5l-185 -322h-44zM357 585h-1q-16 0 -26.5 12t-10.5 28t11 28t27 12t27 -11.5t11 -28.5
q0 -16 -10.5 -28t-27.5 -12zM536 585h-1q-16 0 -26 12t-10 28t11 28t27 12t26.5 -11.5t10.5 -28.5q0 -16 -10 -28t-28 -12z" />
    <glyph glyph-name="Ygrave" unicode="&#x1ef2;" horiz-adv-x="515" 
d="M229 0h-47l53 277l-146 397h50l91 -256q28 -80 34 -106h2q35 53 78 111l188 251h53l-304 -399zM236 825h71l64 -115h-35z" />
    <glyph glyph-name="ygrave" unicode="&#x1ef3;" horiz-adv-x="437" 
d="M50 480h48l71 -288q23 -90 31 -138h3q2 4 22 45t38 76l155 305h51l-194 -371q-30 -57 -46 -86t-45.5 -73t-60.5 -77q-71 -77 -151 -97l-12 40q61 22 97 52q63 52 108 130q4 7 2 18zM157 682h69l54 -140h-33z" />
    <glyph glyph-name="endash" unicode="&#x2013;" horiz-adv-x="500" 
d="M43 272h440l-8 -40h-440z" />
    <glyph glyph-name="emdash" unicode="&#x2014;" horiz-adv-x="1000" 
d="M43 272h940l-8 -40h-940z" />
    <glyph glyph-name="quoteleft" unicode="&#x2018;" horiz-adv-x="158" 
d="M144 483l-60 -10q24 54 63 124.5t56 92.5l35 5q-20 -34 -50 -101t-44 -111z" />
    <glyph glyph-name="quoteright" unicode="&#x2019;" horiz-adv-x="158" 
d="M158 685l59 10q-24 -54 -63 -124.5t-56 -92.5l-35 -5q18 32 48.5 99.5t46.5 112.5z" />
    <glyph glyph-name="quotesinglbase" unicode="&#x201a;" horiz-adv-x="158" 
d="M-16 -121l-35 -5q20 34 50 101t44 111l59 10q-22 -52 -61 -122.5t-57 -94.5z" />
    <glyph glyph-name="quotedblleft" unicode="&#x201c;" horiz-adv-x="278" 
d="M143 483l-59 -10q24 54 63 124.5t56 92.5l35 5q-18 -32 -48.5 -99.5t-46.5 -112.5zM263 483l-59 -10q24 54 63 124.5t56 92.5l35 5q-19 -34 -49.5 -101t-45.5 -111z" />
    <glyph glyph-name="quotedblright" unicode="&#x201d;" horiz-adv-x="278" 
d="M158 685l59 10q-24 -54 -63 -124.5t-56 -92.5l-35 -5q19 34 49.5 101t45.5 111zM278 685l59 10q-24 -54 -63 -124.5t-56 -92.5l-35 -5q19 34 49.5 101t45.5 111z" />
    <glyph glyph-name="quotedblbase" unicode="&#x201e;" horiz-adv-x="278" 
d="M-16 -121l-35 -5q20 34 50 101t44 111l59 10q-22 -52 -61 -122.5t-57 -94.5zM104 -121l-35 -5q20 34 50 101t44 111l59 10q-22 -52 -61 -122.5t-57 -94.5z" />
    <glyph glyph-name="dagger" unicode="&#x2020;" horiz-adv-x="496" 
d="M313 674h46l-47 -222l177 4l-9 -44l-175 4l-85 -466h-46l93 466l-175 -4l8 44l174 -4z" />
    <glyph glyph-name="daggerdbl" unicode="&#x2021;" horiz-adv-x="496" 
d="M313 674h46l-45 -212l176 4l-8 -44l-175 4l-43 -228l176 4l-9 -44l-174 4l-37 -212h-46l44 212l-175 -4l9 44l174 -4l43 228l-175 -4l8 44l174 -4z" />
    <glyph glyph-name="bullet" unicode="&#x2022;" horiz-adv-x="240" 
d="M131 176h-1q-36 0 -62 26t-26 63q-1 37 25.5 63t63.5 26t63.5 -26t26.5 -63t-26.5 -63t-63.5 -26z" />
    <glyph glyph-name="ellipsis" unicode="&#x2026;" horiz-adv-x="1000" 
d="M133 -12h-1q-18 0 -29.5 13.5t-11.5 32.5q0 20 12 33.5t31 13.5t30.5 -13.5t11.5 -33.5q0 -19 -12 -32.5t-31 -13.5zM466 -12h-1q-18 0 -29.5 13.5t-11.5 32.5q0 20 12 33.5t31 13.5t30.5 -13.5t11.5 -33.5q0 -19 -12 -32.5t-31 -13.5zM799 -12h-1q-18 0 -29.5 13.5
t-11.5 32.5q0 20 12 33.5t31 13.5t30.5 -13.5t11.5 -33.5q0 -19 -12 -32.5t-31 -13.5z" />
    <glyph glyph-name="perthousand" unicode="&#x2030;" horiz-adv-x="1080" 
d="M253 662h1q55 0 81.5 -38t26.5 -88q0 -119 -48.5 -196.5t-123.5 -77.5q-53 0 -82.5 38.5t-29.5 104.5q0 98 50 177.5t125 79.5zM247 628h-1q-51 0 -88.5 -68.5t-37.5 -160.5q0 -103 77 -103q51 0 87 70t36 161q0 40 -16 70.5t-57 30.5zM156 -12h-45l511 674h45zM595 395
h1q55 0 81.5 -38t26.5 -88q0 -119 -48.5 -196.5t-123.5 -77.5q-53 0 -82.5 38.5t-29.5 104.5q0 98 50 177.5t125 79.5zM589 361h-1q-51 0 -88.5 -68.5t-37.5 -160.5q0 -103 77 -103q51 0 87 70t36 161q0 40 -16 70.5t-57 30.5zM939 395h1q55 0 81.5 -38t26.5 -88
q0 -119 -48.5 -196.5t-123.5 -77.5q-53 0 -82.5 38.5t-29.5 104.5q0 98 50 177.5t125 79.5zM933 361h-1q-51 0 -88.5 -68.5t-37.5 -160.5q0 -103 77 -103q51 0 87 70t36 161q0 40 -16 70.5t-57 30.5z" />
    <glyph glyph-name="guilsinglleft" unicode="&#x2039;" horiz-adv-x="240" 
d="M261 436l-168 -186l115 -182h-48l-117 184l166 184h52z" />
    <glyph glyph-name="guilsinglright" unicode="&#x203a;" horiz-adv-x="240" 
d="M178 255l-115 181h48l117 -184l-167 -184h-51z" />
    <glyph glyph-name="fraction" unicode="&#x2044;" horiz-adv-x="398" 
d="M-6 -12h-47l501 674h47z" />
    <glyph glyph-name="fraction" unicode="&#x2215;" horiz-adv-x="398" 
d="M-6 -12h-47l501 674h47z" />
    <glyph glyph-name="zerosuperior" unicode="&#x2070;" horiz-adv-x="312" 
d="M200 400h-1q-103 0 -103 139q0 109 52 187t126 78q53 0 77.5 -35t24.5 -89q0 -114 -50 -197t-126 -83zM205 432h1q55 0 92 79.5t37 160.5q0 100 -66 100q-53 0 -92.5 -72.5t-39.5 -163.5q0 -41 15 -72.5t53 -31.5z" />
    <glyph glyph-name="foursuperior" unicode="&#x2074;" horiz-adv-x="303" 
d="M277 407h-39l21 110h-186l6 28l232 252h41l-47 -246h60l-7 -34h-60zM266 551l29 153q4 23 11 48l-2 1q-6 -7 -17.5 -24.5t-18.5 -25.5l-141 -151v-1h139z" />
    <glyph glyph-name="fivesuperior" unicode="&#x2075;" horiz-adv-x="284" 
d="M360 797l-7 -35h-148l-34 -109q18 2 24 2q36 0 66 -13q29 -13 43 -38t14 -52q0 -71 -48 -111.5t-114 -40.5q-58 0 -91 25l14 31q35 -22 84 -22q45 0 79 32t34 75q0 80 -102 80q-10 0 -27.5 -1.5t-22.5 -1.5l55 179h181z" />
    <glyph glyph-name="sixsuperior" unicode="&#x2076;" horiz-adv-x="314" 
d="M367 804l-6 -36q-27 0 -50 -6q-120 -29 -164 -157l1 -1q19 27 50.5 44.5t62.5 17.5q50 0 77 -31t27 -79q0 -61 -45 -108.5t-107 -47.5q-56 0 -86.5 35.5t-30.5 94.5q0 67 31.5 125t74.5 91q49 38 108 51q24 5 57 7zM217 433h1q42 0 73.5 36t31.5 85q0 38 -19.5 58.5
t-55.5 20.5q-61 0 -102 -64q-6 -10 -8 -21q-1 -5 -1 -25q0 -41 20.5 -65.5t59.5 -24.5z" />
    <glyph glyph-name="sevensuperior" unicode="&#x2077;" horiz-adv-x="275" 
d="M131 797h243l-5 -31q-36 -54 -133 -195.5t-112 -163.5h-45q156 229 243 354v2h-197z" />
    <glyph glyph-name="eightsuperior" unicode="&#x2078;" horiz-adv-x="312" 
d="M270 804h1q45 0 74 -24t29 -67q0 -66 -81 -100v-2q63 -30 63 -92q0 -56 -43 -87.5t-98 -31.5q-58 0 -92 28t-34 71q0 42 27 72.5t70 44.5v2q-45 28 -45 76q0 47 37.5 78.5t91.5 31.5zM215 431h1q42 0 70 23t28 60q0 32 -20 52.5t-66 32.5q-41 -8 -69 -31.5t-28 -63.5
q0 -28 22 -50.5t62 -22.5zM263 773h-1q-34 0 -58 -23t-24 -53q0 -52 70 -70q35 7 59 28.5t24 52.5q0 25 -16 45t-54 20z" />
    <glyph glyph-name="ninesuperior" unicode="&#x2079;" horiz-adv-x="305" 
d="M96 400l6 36q17 -1 44 2q51 8 96 46q49 44 76 112l-2 1q-44 -54 -107 -54q-50 0 -75.5 31.5t-25.5 72.5q0 62 44.5 109.5t105.5 47.5q55 0 83 -35.5t28 -91.5q0 -71 -35 -133t-75 -93q-50 -39 -112 -48q-28 -5 -51 -3zM254 771h-1q-41 0 -72.5 -35t-31.5 -85
q0 -30 18 -52t53 -22q58 0 96 55q6 8 8 16q4 18 4 36q0 39 -18.5 63t-55.5 24z" />
    <glyph glyph-name="parenleftsuperior" unicode="&#x207d;" horiz-adv-x="171" 
d="M245 831h37q-133 -144 -133 -325q0 -74 40 -161h-32q-44 79 -44 166q0 180 132 320z" />
    <glyph glyph-name="parenrightsuperior" unicode="&#x207e;" horiz-adv-x="171" 
d="M82 345h-37q134 150 134 326q0 72 -41 160h32q45 -79 45 -165q0 -175 -133 -321z" />
    <glyph glyph-name="zeroinferior" unicode="&#x2080;" horiz-adv-x="312" 
d="M94 -150h-1q-103 0 -103 139q0 109 52 187t126 78q53 0 77.5 -35t24.5 -89q0 -114 -50 -197t-126 -83zM99 -118h1q55 0 92 79.5t37 160.5q0 100 -66 100q-53 0 -92.5 -72.5t-39.5 -163.5q0 -41 15 -72.5t53 -31.5z" />
    <glyph glyph-name="oneinferior" unicode="&#x2081;" horiz-adv-x="207" 
d="M73 -143h-40l67 350h-2l-63 -30l-6 31l81 39h37z" />
    <glyph glyph-name="twoinferior" unicode="&#x2082;" horiz-adv-x="285" 
d="M193 -143h-248l5 29l83 67q95 76 131 116.5t36 86.5q0 24 -15 42.5t-53 18.5q-44 0 -88 -34l-15 28q55 41 112 41q52 0 77 -29t25 -67q0 -53 -47 -104t-145 -126l-42 -32v-2h191z" />
    <glyph glyph-name="threeinferior" unicode="&#x2083;" horiz-adv-x="278" 
d="M43 189l-11 30q43 33 99 33q54 0 77 -25t23 -58q0 -34 -25 -60.5t-65 -39.5v-2q33 -8 50.5 -34t17.5 -55q0 -55 -41.5 -90.5t-113.5 -35.5q-30 0 -56.5 8t-38.5 18l15 31q36 -24 84 -24q53 0 82 27t29 62q0 38 -30 57t-68 19h-27l6 32h29q38 0 74 23.5t36 57.5
q0 55 -67 55q-42 0 -79 -29z" />
    <glyph glyph-name="fourinferior" unicode="&#x2084;" horiz-adv-x="303" 
d="M171 -143h-39l21 110h-186l6 28l232 252h41l-47 -246h60l-7 -34h-60zM160 1l29 153q4 23 11 48l-2 1q-6 -7 -17.5 -24.5t-18.5 -25.5l-141 -151v-1h139z" />
    <glyph glyph-name="fiveinferior" unicode="&#x2085;" horiz-adv-x="284" 
d="M254 247l-7 -35h-148l-34 -109q18 2 24 2q36 0 66 -13q29 -13 43 -38t14 -52q0 -71 -48 -111.5t-114 -40.5q-59 0 -91 25l14 31q35 -22 84 -22q45 0 79 32t34 75q0 80 -102 80q-10 0 -27.5 -1.5t-22.5 -1.5l55 179h181z" />
    <glyph glyph-name="sixinferior" unicode="&#x2086;" horiz-adv-x="314" 
d="M261 254l-6 -36q-27 0 -50 -6q-120 -29 -164 -157l1 -1q19 27 50.5 44.5t62.5 17.5q50 0 77 -31t27 -79q0 -61 -45 -108.5t-107 -47.5q-56 0 -86.5 35.5t-30.5 94.5q0 67 31.5 125t74.5 91q49 38 108 51q24 5 57 7zM111 -117h1q42 0 73.5 36t31.5 85q0 38 -19.5 58.5
t-55.5 20.5q-61 0 -102 -64q-6 -10 -8 -21q-1 -5 -1 -25q0 -41 20.5 -65.5t59.5 -24.5z" />
    <glyph glyph-name="seveninferior" unicode="&#x2087;" horiz-adv-x="275" 
d="M25 247h243l-5 -31q-36 -54 -133 -195.5t-112 -163.5h-45q156 229 243 354v2h-197z" />
    <glyph glyph-name="eightinferior" unicode="&#x2088;" horiz-adv-x="312" 
d="M164 254h1q45 0 74 -24t29 -67q0 -66 -81 -100v-2q63 -30 63 -92q0 -56 -43 -87.5t-98 -31.5q-58 0 -92 28t-34 71q0 42 27 72.5t70 44.5v2q-45 28 -45 76q0 47 37.5 78.5t91.5 31.5zM109 -119h1q42 0 70 23t28 60q0 32 -20 52.5t-66 32.5q-41 -8 -69 -31.5t-28 -63.5
q0 -28 22 -50.5t62 -22.5zM157 223h-1q-34 0 -58 -23t-24 -53q0 -52 70 -70q35 7 59 28.5t24 52.5q0 25 -16 45t-54 20z" />
    <glyph glyph-name="nineinferior" unicode="&#x2089;" horiz-adv-x="305" 
d="M-10 -150l6 36q17 -1 44 2q51 8 96 46q49 44 76 112l-2 1q-44 -54 -107 -54q-50 0 -75.5 31.5t-25.5 72.5q0 62 44.5 109.5t105.5 47.5q55 0 83 -35.5t28 -91.5q0 -71 -35 -133t-75 -93q-50 -39 -112 -48q-28 -5 -51 -3zM148 221h-1q-41 0 -72.5 -35t-31.5 -85
q0 -30 18 -52t53 -22q58 0 96 55q6 8 8 16q4 18 4 36q0 39 -18.5 63t-55.5 24z" />
    <glyph glyph-name="parenleftinferior" unicode="&#x208d;" horiz-adv-x="171" 
d="M139 281h37q-133 -144 -133 -325q0 -74 40 -161h-32q-44 79 -44 166q0 180 132 320z" />
    <glyph glyph-name="parenrightinferior" unicode="&#x208e;" horiz-adv-x="171" 
d="M-24 -205h-37q134 150 134 326q0 72 -41 160h32q45 -79 45 -165q0 -175 -133 -321z" />
    <glyph glyph-name="Euro" unicode="&#x20ac;" horiz-adv-x="496" 
d="M433 59l12 -33q-57 -38 -141 -38q-114 0 -179 77.5t-59 193.5h-64l8 38h59q3 33 14 70h-63l9 38h66q38 112 127 184.5t199 72.5q71 0 129 -33l-18 -36q-56 30 -117 30q-95 0 -168 -63t-104 -155h319l-8 -38h-324q-10 -33 -13 -70h324l-8 -38h-320q-4 -98 49 -165t149 -67
q63 0 122 32z" />
    <glyph glyph-name="afii61289" unicode="&#x2113;" horiz-adv-x="480" 
d="M199 528l-54 -281q231 192 231 349q0 82 -65 82q-36 0 -67 -38.5t-45 -111.5zM390 142l30 -24q-73 -127 -192 -127q-78 0 -112.5 48.5t-31.5 120.5v2q-13 -8 -35 -22.5t-30 -19.5l-17 30q71 46 91 61l58 304q19 101 66 152t106 51q45 0 73 -32.5t28 -83.5
q0 -185 -289 -408v-4q-9 -82 19 -119t79 -37q37 0 70.5 19.5t50 39t36.5 49.5z" />
    <glyph glyph-name="afii61352" unicode="&#x2116;" horiz-adv-x="920" 
d="M745 285h-1q-56 0 -90 34.5t-34 96.5q0 85 52 152t137 67q59 0 91 -36t32 -99q0 -87 -52 -151t-135 -64zM858 241l-7 -39h-248l7 39h248zM597 650l-124 -650h-49l-146 379q-57 147 -74 209l-3 -1q-20 -121 -45 -254l-64 -333h-44l125 650h53l149 -387q58 -149 72 -202
l2 2q11 102 42 261l63 326h43zM752 320h1q61 0 98 54t37 122q0 45 -20.5 74.5t-64.5 29.5q-61 0 -100 -55.5t-39 -117.5q0 -51 24 -79t64 -28z" />
    <glyph glyph-name="trademark" unicode="&#x2122;" horiz-adv-x="695" 
d="M105 674h237v-32h-100v-240h-37v240h-100v32zM696 402h-40l-14 185q-1 21 -3 58h-2q-4 -9 -12.5 -33.5t-11.5 -31.5l-68 -174h-43l-69 179q-3 8 -11 30t-11 30h-2q0 -16 -2 -58l-14 -185h-38l24 272h55l70 -176q6 -15 20 -57h2q4 11 10.5 30.5t8.5 24.5l70 178h55z" />
    <glyph glyph-name="estimated" unicode="&#x212e;" horiz-adv-x="817" 
d="M782 316h-605q-5 0 -5 -4v-183q0 -10 9 -21q93 -99 229 -99q145 0 240 111h55q-52 -61 -130 -96t-166 -35q-155 0 -264.5 98.5t-109.5 237.5t109.5 237.5t264.5 98.5t264 -98.5t109 -237.5v-9zM646 340v184q0 12 -10 22q-95 95 -226 95q-133 0 -228 -98q-10 -10 -10 -23
v-180q0 -5 5 -5h464q5 0 5 5z" />
    <glyph glyph-name="partialdiff" unicode="&#x2202;" horiz-adv-x="525" 
d="M122 636l-18 33q77 54 178 54q98 0 168 -84t70 -230q0 -183 -86 -302t-216 -119q-86 0 -131 57t-45 132q0 109 74 182t181 73q57 0 106.5 -34t65.5 -73h1q7 41 7 87q0 130 -61 199.5t-137 69.5q-93 0 -157 -45zM223 30h1q87 0 149 69t85 171q-16 49 -63.5 84.5
t-105.5 35.5q-82 0 -139.5 -56t-57.5 -153q0 -69 35 -110t96 -41z" />
    <glyph glyph-name="uni2206" unicode="&#x2206;" horiz-adv-x="500" 
d="M566 0h-552l6 34l362 624h48l142 -624zM76 41h446l-91 412q-30 135 -34 157h-2q-39 -75 -73 -136z" />
    <glyph glyph-name="product" unicode="&#x220f;" horiz-adv-x="650" 
d="M684 609h-85l-146 -699h-46l146 699h-320l-146 -699h-46l146 699h-88l9 41h585z" />
    <glyph glyph-name="summation" unicode="&#x2211;" horiz-adv-x="570" 
d="M483 -90h-514l5 31l340 342l-209 333l6 34h465l-7 -41h-407l-1 -3l204 -326l-321 -326v-3h446z" />
    <glyph glyph-name="minus" unicode="&#x2212;" horiz-adv-x="596" 
d="M70 286h486v-38h-486v38z" />
    <glyph glyph-name="radical" unicode="&#x221a;" horiz-adv-x="550" 
d="M637 819l-387 -923h-40l-86 437l-76 -33l-10 32l121 52l70 -382q5 -17 7 -47h1l9 22.5t10 24.5l339 817h42z" />
    <glyph glyph-name="infinity" unicode="&#x221e;" horiz-adv-x="713" 
d="M533 128h-1q-15 0 -29.5 3t-29.5 11t-25 13.5t-25.5 19t-21.5 19t-23 22.5l-21 21q-36 -36 -55.5 -54t-56 -36.5t-72.5 -18.5q-58 0 -95.5 38t-37.5 98q0 56 41 96t100 40q16 0 30.5 -3t29.5 -11t25 -13.5t25.5 -19t21.5 -19t23.5 -23l20.5 -20.5q36 36 55.5 54t56 36.5
t72.5 18.5q58 0 95.5 -38t37.5 -98q0 -56 -41 -96t-100 -40zM535 168h1q41 0 68.5 28.5t27.5 67.5q0 41 -26.5 68.5t-67.5 27.5q-29 0 -60.5 -17.5t-48.5 -33t-45 -45.5q6 -6 25 -24.5t29 -27.5t27.5 -21t34.5 -17.5t35 -5.5zM176 168h1q29 0 60 17.5t48 33t45 45.5
q-6 6 -25 24.5t-29 27.5t-27.5 21t-34.5 17.5t-35 5.5q-41 0 -69 -28.5t-28 -67.5q0 -41 26.5 -68.5t67.5 -27.5z" />
    <glyph glyph-name="integral" unicode="&#x222b;" horiz-adv-x="280" 
d="M359 780l-16 -35q-14 4 -27 4q-28 0 -49.5 -18.5t-34 -52t-18 -56.5t-11.5 -55q-11 -65 -35.5 -238.5t-37.5 -247.5q-6 -33 -12 -57t-18.5 -57.5t-28.5 -55t-42 -37t-58 -15.5q-24 0 -44 9l11 35q16 -6 35 -6q29 0 50.5 19t34.5 55t18 56.5t11 55.5q12 69 36.5 243
t36.5 244q35 217 162 217q23 0 37 -7z" />
    <glyph glyph-name="approxequal" unicode="&#x2248;" horiz-adv-x="596" 
d="M541 405l25 -30q-25 -26 -65.5 -46t-80.5 -20q-21 0 -42.5 4.5t-32.5 8.5t-31 12.5t-25 10.5q-6 2 -23 10t-28 12t-29.5 8t-36.5 4q-31 0 -64.5 -16.5t-56.5 -39.5l-25 30q25 26 65.5 46t80.5 20q21 0 42.5 -4.5t32.5 -8.5t31 -12.5t25 -10.5q6 -2 23 -10t28 -12t29.5 -8
t36.5 -4q31 0 64.5 16.5t56.5 39.5zM547 215l25 -30q-25 -26 -65.5 -46t-80.5 -20q-21 0 -42.5 4.5t-32.5 8.5t-31 12.5t-25 10.5q-6 2 -23 10t-28 12t-29.5 8t-36.5 4q-31 0 -64.5 -16.5t-56.5 -39.5l-25 30q25 26 65.5 46t80.5 20q21 0 42.5 -4.5t32.5 -8.5t31 -12.5
t25 -10.5q6 -2 23 -10t28 -12t29.5 -8t36.5 -4q31 0 64.5 16.5t56.5 39.5z" />
    <glyph glyph-name="notequal" unicode="&#x2260;" horiz-adv-x="596" 
d="M556 155h-310l-85 -134h-45l87 134h-163v40h188l97 150h-285v40h310l85 134h45l-87 -134h163v-40h-188l-97 -150h285v-40z" />
    <glyph glyph-name="lessequal" unicode="&#x2264;" horiz-adv-x="596" 
d="M525 88l-454 203v38l454 203v-46l-400 -175v-2l400 -175v-46zM525 0h-450v40h450v-40z" />
    <glyph glyph-name="greaterequal" unicode="&#x2265;" horiz-adv-x="596" 
d="M525 291l-454 -203v46l400 175v2l-400 175v46l454 -203v-38zM521 0h-450v40h450v-40z" />
    <glyph glyph-name="lozenge" unicode="&#x25ca;" horiz-adv-x="500" 
d="M471 325l-246 -358h-44l-122 358l246 358h44zM423 324l-98 301q-4 10 -5 17h-2q-3 -7 -11 -17l-200 -299l98 -301q4 -10 5 -17h2q3 7 11 17z" />
    <glyph glyph-name="uniEFED" unicode="&#xefed;" horiz-adv-x="400" 
d="M305 724h-1q-15 0 -26 12.5t-11 28.5q0 15 11.5 28t27.5 13t27 -13t11 -28q0 -16 -11 -28.5t-28 -12.5z" />
    <glyph glyph-name="uniEFEE" unicode="&#xefee;" horiz-adv-x="400" 
d="M204 830h37q0 -57 68 -57q66 0 83 57h40q-8 -41 -40 -69t-83 -28q-58 0 -84 28t-21 69z" />
    <glyph glyph-name="uniEFF1" unicode="&#xeff1;" horiz-adv-x="400" 
d="M156 2h53q-38 -23 -68 -59.5t-30 -68.5q0 -34 34 -34q23 0 44 10l9 -30q-31 -18 -67 -18q-31 0 -49 18t-18 45q0 30 19 60.5t37 47t36 29.5z" />
    <glyph glyph-name="uniEFF2" unicode="&#xeff2;" horiz-adv-x="400" 
d="M152 0h39l-43 -54q24 -5 36 -21.5t12 -38.5q0 -38 -29.5 -61t-72.5 -23q-37 0 -58 15l15 35q21 -13 48 -13q21 0 35.5 10.5t14.5 29.5q0 34 -60 40z" />
    <glyph glyph-name="uniEFF3" unicode="&#xeff3;" horiz-adv-x="400" 
d="M308 863h1q38 0 62.5 -24.5t24.5 -61.5q0 -35 -25.5 -59t-62.5 -24q-39 0 -64 24t-25 59q0 36 24.5 61t64.5 25zM307 836h-1q-21 0 -33.5 -17t-12.5 -42q0 -22 13.5 -38.5t33.5 -16.5q21 0 34.5 16.5t13.5 40.5t-13.5 40.5t-34.5 16.5z" />
    <glyph glyph-name="uniEFF5" unicode="&#xeff5;" horiz-adv-x="400" 
d="M212 715h-33q7 35 27 61t47 26q31 0 64 -22q25 -17 48 -17q24 0 35 39h33q-17 -82 -74 -82q-26 0 -62 20q-34 20 -48 19q-25 -1 -37 -44z" />
    <glyph glyph-name="uniEFF7" unicode="&#xeff7;" horiz-adv-x="400" 
d="M297 825h36l86 -115h-49l-59 79h-2l-85 -79h-53z" />
    <glyph glyph-name="uniF629" unicode="&#xf629;" horiz-adv-x="283" 
d="M144 -12h-32l13 64q-53 7 -79 42q-24 31 -24 76q0 71 48 120.5t114 55.5l11 64h32l-12 -63q40 0 65 -18l-16 -32q-32 18 -71 18q-48 0 -88 -39.5t-40 -102.5q0 -39 23.5 -64t66.5 -25q35 0 74 17l6 -32q-29 -17 -79 -17z" />
    <glyph glyph-name="uniF62A" unicode="&#xf62a;" horiz-adv-x="264" 
d="M98 -51h-32l12 61q-46 0 -81 27l14 32q36 -26 83 -26q36 0 62.5 20.5t26.5 54.5q0 43 -56 68q-83 36 -83 93q0 40 32 70.5t77 33.5l13 62h32l-13 -62q44 -1 67 -20l-14 -31q-38 19 -71 19q-36 0 -58 -19.5t-22 -47.5q0 -20 13.5 -34t50.5 -32q75 -35 75 -93
q0 -47 -32 -77.5t-84 -37.5z" />
    <glyph glyph-name="uniF62B" unicode="&#xf62b;" horiz-adv-x="186" 
d="M19 198h142l-7 -33h-141z" />
    <glyph glyph-name="uniF62C" unicode="&#xf62c;" horiz-adv-x="171" 
d="M164 424h37q-133 -144 -133 -325q0 -74 40 -161h-32q-44 79 -44 166q0 180 132 320z" />
    <glyph glyph-name="uniF62D" unicode="&#xf62d;" horiz-adv-x="171" 
d="M1 -62h-37q134 150 134 326q0 72 -41 160h32q45 -79 45 -165q0 -175 -133 -321z" />
    <glyph glyph-name="uniF62E" unicode="&#xf62e;" horiz-adv-x="283" 
d="M197 255h-32l13 64q-53 7 -79 42q-24 31 -24 76q0 71 48 120.5t114 55.5l11 64h32l-12 -63q40 0 65 -18l-16 -32q-32 18 -71 18q-48 0 -88 -39.5t-40 -102.5q0 -39 23.5 -64t66.5 -25q35 0 74 17l6 -32q-29 -17 -79 -17z" />
    <glyph glyph-name="uniF62F" unicode="&#xf62f;" horiz-adv-x="264" 
d="M151 216h-32l12 61q-46 0 -81 27l14 32q36 -26 83 -26q36 0 62.5 20.5t26.5 54.5q0 43 -56 68q-83 36 -83 93q0 40 32 70.5t77 33.5l13 62h32l-13 -62q44 -1 67 -20l-14 -31q-38 19 -71 19q-36 0 -58 -19.5t-22 -47.5q0 -20 13.5 -34t50.5 -32q75 -35 75 -93
q0 -47 -32 -77.5t-84 -37.5z" />
    <glyph glyph-name="uniF630" unicode="&#xf630;" horiz-adv-x="186" 
d="M72 465h142l-7 -33h-141z" />
    <glyph glyph-name="uniF631" unicode="&#xf631;" horiz-adv-x="171" 
d="M217 691h37q-133 -144 -133 -325q0 -74 40 -161h-32q-44 79 -44 166q0 180 132 320z" />
    <glyph glyph-name="uniF632" unicode="&#xf632;" horiz-adv-x="171" 
d="M54 205h-37q134 150 134 326q0 72 -41 160h32q45 -79 45 -165q0 -175 -133 -321z" />
    <glyph glyph-name="uniF633" unicode="&#xf633;" horiz-adv-x="749" 
d="M499 360l23 113q-31 12 -73 12q-80 0 -137.5 -56.5t-57.5 -140.5q0 -38 23 -64t66 -26q54 0 100 53.5t56 108.5zM540 69l16 -37q-72 -44 -179 -44q-142 0 -233 90t-91 232q0 75 25.5 142.5t72 119.5t118.5 83t158 31q141 0 227.5 -88t86.5 -221q0 -97 -53.5 -157
t-122.5 -60q-33 0 -56 25.5t-18 74.5h-4q-59 -100 -163 -100q-45 0 -79.5 36.5t-34.5 92.5q0 98 72.5 166t172.5 68q63 0 115 -22l-34 -167q-28 -133 38 -135q46 -2 83.5 46.5t37.5 126.5q0 122 -74.5 199.5t-201.5 77.5q-137 0 -229 -91.5t-92 -242.5q0 -127 79 -207.5
t204 -80.5q96 0 159 42z" />
    <glyph glyph-name="uniF634" unicode="&#xf634;" horiz-adv-x="400" 
d="M53 -210l-8 27q98 15 98 80q0 29 -26 49l41 12q30 -20 30 -57q0 -49 -40 -77t-95 -34z" />
    <glyph glyph-name="uniF638" unicode="&#xf638;" horiz-adv-x="496" 
d="M109 124l318 439q-28 60 -95 60q-60 0 -114 -57.5t-86.5 -154t-32.5 -203.5q0 -44 10 -84zM441 520l-317 -438q31 -55 94 -55q50 0 94.5 41.5t73 105.5t45 137t16.5 139q0 40 -6 70zM542 652l-65 -83q18 -44 18 -107q0 -124 -35.5 -232t-101 -175t-145.5 -67
q-77 0 -118 54l-50 -67l-30 27l59 75q-23 53 -23 137q0 121 40 225t105.5 163.5t140.5 59.5q78 0 120 -57l52 72z" />
    <glyph glyph-name="uniF639" unicode="&#xf639;" horiz-adv-x="496" 
d="M213 -12h-1q-161 0 -161 226q0 121 40 225t105.5 163.5t140.5 59.5q83 0 120.5 -57.5t37.5 -142.5q0 -124 -35.5 -232t-101 -175t-145.5 -67zM218 27h1q66 0 120 71t81 166.5t27 185.5q0 173 -115 173q-60 0 -114 -57.5t-86.5 -154t-32.5 -203.5q0 -33 5 -61.5t17 -57
t36.5 -45.5t60.5 -17z" />
    <glyph glyph-name="uniF63A" unicode="&#xf63a;" horiz-adv-x="442" 
d="M366 0h-390l7 35l73 60q194 159 266 243t72 170q0 18 -5 35.5t-16.5 36t-35.5 30t-58 11.5q-76 0 -147 -58l-18 35q36 30 83 47t88 17q46 0 79 -15t49.5 -39.5t23.5 -48t7 -48.5q0 -94 -81.5 -190.5t-254.5 -232.5l-58 -46v-2h324z" />
    <glyph glyph-name="uniF63B" unicode="&#xf63b;" horiz-adv-x="423" 
d="M-9 34l21 36q63 -41 127 -41q96 0 144 54.5t48 118.5q0 66 -44.5 98t-108.5 32h-44l8 40h47q33 0 72.5 14.5t73.5 51t34 84.5q0 46 -26.5 72.5t-79.5 26.5q-74 0 -131 -45l-19 36q75 50 153 50q82 0 117.5 -41.5t35.5 -93.5q0 -62 -44.5 -109t-104.5 -64v-2
q57 -14 84.5 -56.5t27.5 -94.5q0 -86 -68.5 -149.5t-178.5 -63.5q-50 0 -89 14.5t-55 31.5z" />
    <glyph glyph-name="uniF63C" unicode="&#xf63c;" horiz-adv-x="496" 
d="M327 0h-45l36 191h-306l7 32l396 427h36l-80 -419h103l-8 -40h-103zM80 231h246l53 279q12 58 16 73l-3 1q-7 -9 -25 -36t-30 -39l-257 -276v-2z" />
    <glyph glyph-name="uniF63D" unicode="&#xf63d;" horiz-adv-x="433" 
d="M464 650l-8 -42h-239l-64 -203q21 3 41 3q52 0 100 -20t71 -61.5t23 -85.5q0 -116 -77 -184.5t-179 -68.5q-41 0 -80 12.5t-57 26.5l20 37q55 -35 131 -35q79 0 136.5 59t57.5 137q0 142 -164 142q-16 0 -78 -4l89 287h277z" />
    <glyph glyph-name="uniF63E" unicode="&#xf63e;" horiz-adv-x="496" 
d="M471 662l-7 -45q-47 0 -83 -9q-92 -24 -167 -102.5t-112 -189.5h2q31 49 86.5 81t107.5 32q83 0 124.5 -51t41.5 -128q0 -99 -72 -180.5t-171 -81.5q-88 0 -134 57t-46 153q0 112 54 211.5t123 153.5q86 69 178 90q37 9 75 9zM227 28h1q74 0 131 66.5t57 155.5
q0 67 -33.5 102.5t-95.5 35.5q-50 0 -99.5 -31.5t-83.5 -85.5q-11 -16 -12 -32q-4 -24 -4 -51q0 -74 35.5 -117t103.5 -43z" />
    <glyph glyph-name="uniF63F" unicode="&#xf63f;" horiz-adv-x="398" 
d="M96 650h380l-7 -39q-46 -68 -188.5 -281.5t-220.5 -329.5h-51q46 69 188 280.5t219 326.5l-1 3h-327z" />
    <glyph glyph-name="uniF640" unicode="&#xf640;" horiz-adv-x="492" 
d="M320 662h1q70 0 115.5 -40t45.5 -108q0 -111 -139 -172v-4q107 -51 107 -157q0 -90 -67 -141.5t-154 -51.5q-91 0 -145 46.5t-54 117.5q0 72 46.5 122.5t118.5 75.5v4q-76 48 -76 128q0 75 58.5 127.5t142.5 52.5zM226 26h1q76 0 125.5 41.5t49.5 108.5q0 57 -35 93.5
t-116 59.5q-73 -15 -123 -58t-50 -116q0 -51 38.5 -90t109.5 -39zM311 624h-1q-61 0 -103.5 -41.5t-42.5 -95.5q0 -93 121 -127q64 15 106.5 54.5t42.5 94.5q0 44 -27.5 79.5t-95.5 35.5z" />
    <glyph glyph-name="uniF641" unicode="&#xf641;" horiz-adv-x="496" 
d="M69 -12l8 44q39 -2 72 5q85 15 159 85q83 76 130 204h-4q-38 -47 -86.5 -71.5t-96.5 -24.5q-81 0 -120.5 53t-39.5 116q0 102 71.5 182.5t168.5 80.5q86 0 127 -57.5t41 -144.5q0 -121 -59.5 -228.5t-123.5 -157.5q-77 -61 -165 -79q-43 -9 -82 -7zM326 622h-1
q-74 0 -130 -64t-56 -156q0 -54 30.5 -92.5t91.5 -38.5q51 0 96 27.5t76 74.5q11 16 13 28q6 34 6 66q0 72 -30.5 113.5t-95.5 41.5z" />
    <glyph glyph-name="uniF642" unicode="&#xf642;" horiz-adv-x="751" 
d="M217 600h1q55 0 81.5 -38t26.5 -88q0 -119 -48.5 -196.5t-123.5 -77.5q-53 0 -82.5 38.5t-29.5 104.5q0 98 50 177.5t125 79.5zM211 566h-1q-51 0 -88.5 -68.5t-37.5 -160.5q0 -103 77 -103q51 0 87 70t36 161q0 40 -16 70.5t-57 30.5zM167 -12h-45l464 612h45zM606 395
h1q55 0 81.5 -38t26.5 -88q0 -119 -48.5 -196.5t-123.5 -77.5q-53 0 -82.5 38.5t-29.5 104.5q0 98 50 177.5t125 79.5zM600 361h-1q-51 0 -88.5 -68.5t-37.5 -160.5q0 -103 77 -103q51 0 87 70t36 161q0 40 -16 70.5t-57 30.5z" />
    <glyph glyph-name="uniF643" unicode="&#xf643;" horiz-adv-x="527" 
d="M232 -12h-1q-77 0 -132 57t-55 152q0 115 75 205t189 90q74 0 131 -58t57 -152q0 -117 -74.5 -205.5t-189.5 -88.5zM240 27h1q90 0 148.5 77t58.5 175q0 78 -41 126t-107 48q-93 0 -150.5 -77.5t-57.5 -176.5q0 -78 41 -125t107 -47z" />
    <glyph glyph-name="uniF644" unicode="&#xf644;" horiz-adv-x="527" 
d="M389 480l-91 -480h-46l84 437h-2l-209 -80l-5 38l224 85h45z" />
    <glyph glyph-name="uniF645" unicode="&#xf645;" horiz-adv-x="527" 
d="M447 40l-7 -40h-406l5 27l122 78q127 81 177.5 135t50.5 112q0 51 -30.5 78t-78.5 27q-62 0 -140 -53l-17 28q80 64 166 64q64 0 106 -38.5t42 -105.5q0 -64 -54.5 -123.5t-184.5 -143.5l-70 -45v-2q38 2 66 2h253z" />
    <glyph glyph-name="uniF646" unicode="&#xf646;" horiz-adv-x="527" 
d="M41 -85l13 36q49 -23 112 -23q95 0 154.5 42.5t59.5 106.5q0 55 -42 84t-103 29q-42 0 -71 -3l6 39q6 1 17 1q80 5 142.5 43.5t62.5 103.5q0 37 -29 58t-76 21q-64 0 -123 -34l-16 30q66 43 151 43q56 0 98.5 -30.5t42.5 -90.5q0 -56 -41 -95.5t-104 -56.5l-1 -3
q61 -9 97.5 -43.5t36.5 -89.5q0 -63 -41.5 -108.5t-97.5 -65.5t-114 -20q-91 0 -134 26z" />
    <glyph glyph-name="uniF647" unicode="&#xf647;" horiz-adv-x="527" 
d="M361 61l-33 -172h-43l32 172h-299l7 32l381 399h36l-73 -391h102l-8 -40h-102zM324 101l48 252q12 56 17 73l-3 1q-27 -38 -57 -70l-242 -253l1 -3h236z" />
    <glyph glyph-name="uniF648" unicode="&#xf648;" horiz-adv-x="527" 
d="M48 -88l12 38q51 -21 111 -21q88 0 147.5 46t59.5 118q0 47 -33 80q-64 62 -224 40l84 267h266l-15 -40h-221l-60 -184q59 7 115.5 -6.5t93.5 -50.5q42 -40 42 -103q0 -91 -74.5 -149t-181.5 -58q-76 0 -122 23z" />
    <glyph glyph-name="uniF649" unicode="&#xf649;" horiz-adv-x="527" 
d="M253 27h1q71 0 125.5 54.5t54.5 134.5q0 60 -37 96.5t-94 36.5q-63 0 -108 -28.5t-68 -71.5q-15 -26 -15 -61q0 -69 38.5 -115t102.5 -46zM498 598l3 -38q-183 -15 -282 -114q-68 -67 -90 -142h2q66 84 184 84q68 0 117.5 -45.5t49.5 -120.5q0 -99 -68.5 -166.5
t-166.5 -67.5q-77 0 -130 53.5t-53 158.5q0 58 28 132.5t86 131.5q126 122 320 134z" />
    <glyph glyph-name="uniF64A" unicode="&#xf64a;" horiz-adv-x="527" 
d="M480 480l-6 -35q-51 -103 -168 -269t-222 -287l-48 15q82 85 211.5 262t174.5 272v2h-321l6 40h373z" />
    <glyph glyph-name="uniF64B" unicode="&#xf64b;" horiz-adv-x="527" 
d="M317 600h1q72 0 119.5 -39.5t47.5 -100.5q0 -48 -33.5 -82.5t-102.5 -65.5v-2q119 -57 119 -149q0 -78 -67 -125.5t-153 -47.5q-90 0 -145 43t-55 115q0 105 169 172v2q-94 42 -94 122q0 68 57.5 113t136.5 45zM309 563h-1q-57 0 -98.5 -30t-41.5 -80q0 -44 34 -73
t100 -51q136 47 136 130q0 42 -32.5 73t-96.5 31zM245 26h1q73 0 123.5 37.5t50.5 92.5q0 49 -38.5 82.5t-118.5 62.5q-69 -22 -118 -60.5t-49 -95.5q0 -53 42 -86t107 -33z" />
    <glyph glyph-name="uniF64C" unicode="&#xf64c;" horiz-adv-x="527" 
d="M240 131h1q50 0 97 26t79 69q19 25 19 64q0 79 -41.5 121t-106.5 42q-69 0 -121.5 -52.5t-52.5 -132.5q0 -65 35.5 -101t90.5 -36zM60 -111l-4 39q55 3 91 11q212 42 277 244l-3 1q-27 -36 -78.5 -64t-109.5 -28q-74 0 -120.5 46.5t-46.5 121.5q0 99 71.5 165.5
t167.5 66.5q77 0 128 -56t51 -154q0 -46 -11 -92.5t-37.5 -94.5t-65.5 -87.5t-100 -69.5t-136 -42q-40 -7 -74 -7z" />
    <glyph glyph-name="uniF64E" unicode="&#xf64e;" horiz-adv-x="527" 
d="M447 65l11 -37q-59 -40 -165 -40q-88 0 -148 53.5t-64 144.5h-55l7 37h50q2 16 10 55h-50l7 37h55q37 92 114.5 144.5t173.5 52.5q74 0 134 -32l-18 -37q-51 30 -115 30q-80 0 -144.5 -42.5t-98.5 -115.5h295l-7 -37h-300q-8 -27 -9 -55h299l-7 -37h-293q7 -77 55 -117.5
t125 -40.5q36 0 77 12t61 25z" />
    <glyph glyph-name="uniF64F" unicode="&#xf64f;" horiz-adv-x="527" 
d="M538 585l-16 -37q-27 11 -51 11q-61 0 -97 -46t-57 -133l-12 -51h137l-5 -39h-142l-43 -178q-26 -110 -70.5 -166.5t-118.5 -56.5q-41 0 -68 16l16 37q25 -13 58 -13q42 0 77 39.5t55 121.5l48 200h-99l4 39h105l12 52q23 97 73 158t134 61q30 0 60 -15z" />
    <glyph glyph-name="uniF650" unicode="&#xf650;" horiz-adv-x="527" 
d="M205 221h96l51 163h-96zM135 0h-41l58 183h-91l7 38h96l51 163h-95l7 38h100l57 178h40l-56 -178h96l57 178h40l-56 -178h91l-7 -38h-96l-51 -163h96l-7 -38h-101l-58 -183h-41l58 183h-96z" />
    <glyph glyph-name="uniF651" unicode="&#xf651;" horiz-adv-x="527" 
d="M459 486l-17 -37q-32 22 -88 22q-67 0 -106.5 -51.5t-35.5 -147.5v-11h165l-6 -38h-156q7 -123 -82 -183v-2h308l-6 -38h-396l5 31q68 28 99 73t25 119h-92l6 38h83v3q-4 112 49.5 180t149.5 68q56 0 95 -26z" />
    <glyph glyph-name="uniF652" unicode="&#xf652;" horiz-adv-x="527" 
d="M244 0h-45l23 120h-156l7 37h156l12 66h-156l7 37h138l-109 240h51l73 -173q15 -36 24 -63h3q22 30 53 66l144 170h56l-210 -240h134l-7 -37h-156l-13 -66h156l-7 -37h-156z" />
    <glyph glyph-name="uniF653" unicode="&#xf653;" horiz-adv-x="527" 
d="M230 -81h-36l15 81q-75 2 -131 42l24 34q17 -14 50 -25.5t72 -11.5q60 0 101.5 26.5t41.5 69.5q0 28 -22 51.5t-86 47.5q-63 23 -87.5 49.5t-24.5 62.5q0 55 48.5 92t112.5 39l16 84h37l-16 -84q66 -8 107 -41l-22 -34q-49 37 -112 37q-55 0 -89 -25.5t-34 -61.5
q0 -29 20.5 -46t82.5 -40q117 -43 117 -122q0 -62 -50.5 -101t-119.5 -43z" />
    <glyph glyph-name="uniF654" unicode="&#xf654;" horiz-adv-x="527" 
d="M375 116l11 -36q-56 -29 -120 -33l-14 -71h-34l14 71q-70 5 -114 48.5t-44 109.5q0 92 67.5 160.5t164.5 79.5l12 65h35l-12 -65q62 -3 107 -38l-21 -34q-45 33 -101 33q-86 0 -145 -58.5t-59 -133.5q0 -60 36.5 -93.5t103.5 -33.5q53 0 113 29z" />
    <glyph glyph-name="uniF655" unicode="&#xf655;" horiz-adv-x="312" 
d="M119 -7h-1q-103 0 -103 139q0 109 52 187t126 78q53 0 77.5 -35t24.5 -89q0 -114 -50 -197t-126 -83zM124 25h1q55 0 92 79.5t37 160.5q0 100 -66 100q-53 0 -92.5 -72.5t-39.5 -163.5q0 -41 15 -72.5t53 -31.5z" />
    <glyph glyph-name="uniF656" unicode="&#xf656;" horiz-adv-x="207" 
d="M98 0h-40l67 350h-2l-63 -30l-6 31l81 39h37z" />
    <glyph glyph-name="uniF657" unicode="&#xf657;" horiz-adv-x="285" 
d="M218 0h-248l5 29l83 67q95 76 131 116.5t36 86.5q0 24 -15 42.5t-53 18.5q-44 0 -88 -34l-15 28q55 41 112 41q52 0 77 -29t25 -67q0 -53 -47 -104t-145 -126l-42 -32v-2h191z" />
    <glyph glyph-name="uniF658" unicode="&#xf658;" horiz-adv-x="278" 
d="M68 332l-11 30q43 33 99 33q54 0 77 -25t23 -58q0 -34 -25 -60.5t-65 -39.5v-2q33 -8 50.5 -34t17.5 -55q0 -55 -41.5 -90.5t-113.5 -35.5q-30 0 -56.5 8t-38.5 18l15 31q36 -24 84 -24q53 0 82 27t29 62q0 38 -30 57t-68 19h-27l6 32h29q38 0 74 23.5t36 57.5
q0 55 -67 55q-42 0 -79 -29z" />
    <glyph glyph-name="uniF659" unicode="&#xf659;" horiz-adv-x="303" 
d="M196 0h-39l21 110h-186l6 28l232 252h41l-47 -246h60l-7 -34h-60zM185 144l29 153q4 23 11 48l-2 1q-6 -7 -17.5 -24.5t-18.5 -25.5l-141 -151v-1h139z" />
    <glyph glyph-name="uniF65A" unicode="&#xf65a;" horiz-adv-x="284" 
d="M279 390l-7 -35h-148l-34 -109q18 2 24 2q36 0 66 -13q29 -13 43 -38t14 -52q0 -71 -48 -111.5t-114 -40.5q-59 0 -91 25l14 31q35 -22 84 -22q45 0 79 32t34 75q0 80 -102 80q-10 0 -27.5 -1.5t-22.5 -1.5l55 179h181z" />
    <glyph glyph-name="uniF65B" unicode="&#xf65b;" horiz-adv-x="314" 
d="M286 397l-6 -36q-27 0 -50 -6q-120 -29 -164 -157l1 -1q19 27 50.5 44.5t62.5 17.5q50 0 77 -31t27 -79q0 -61 -45 -108.5t-107 -47.5q-56 0 -86.5 35.5t-30.5 94.5q0 67 31.5 125t74.5 91q49 38 108 51q24 5 57 7zM136 26h1q42 0 73.5 36t31.5 85q0 38 -19.5 58.5
t-55.5 20.5q-61 0 -102 -64q-6 -10 -8 -21q-1 -5 -1 -25q0 -41 20.5 -65.5t59.5 -24.5z" />
    <glyph glyph-name="uniF65C" unicode="&#xf65c;" horiz-adv-x="275" 
d="M50 390h243l-5 -31q-36 -54 -133 -195.5t-112 -163.5h-45q156 229 243 354v2h-197z" />
    <glyph glyph-name="uniF65D" unicode="&#xf65d;" horiz-adv-x="312" 
d="M189 397h1q45 0 74 -24t29 -67q0 -66 -81 -100v-2q63 -30 63 -92q0 -56 -43 -87.5t-98 -31.5q-58 0 -92 28t-34 71q0 42 27 72.5t70 44.5v2q-45 28 -45 76q0 47 37.5 78.5t91.5 31.5zM134 24h1q42 0 70 23t28 60q0 32 -20 52.5t-66 32.5q-41 -8 -69 -31.5t-28 -63.5
q0 -28 22 -50.5t62 -22.5zM182 366h-1q-34 0 -58 -23t-24 -53q0 -52 70 -70q35 7 59 28.5t24 52.5q0 25 -16 45t-54 20z" />
    <glyph glyph-name="uniF65E" unicode="&#xf65e;" horiz-adv-x="305" 
d="M15 -7l6 36q17 -1 44 2q51 8 96 46q49 44 76 112l-2 1q-44 -54 -107 -54q-50 0 -75.5 31.5t-25.5 72.5q0 62 44.5 109.5t105.5 47.5q55 0 83 -35.5t28 -91.5q0 -71 -35 -133t-75 -93q-50 -39 -112 -48q-28 -5 -51 -3zM173 364h-1q-41 0 -72.5 -35t-31.5 -85q0 -30 18 -52
t53 -22q58 0 96 55q6 8 8 16q4 18 4 36q0 39 -18.5 63t-55.5 24z" />
    <glyph glyph-name="uniF65F" unicode="&#xf65f;" horiz-adv-x="122" 
d="M-11 -71l-33 -4q37 67 59 137l51 6q-36 -83 -77 -139z" />
    <glyph glyph-name="uniF660" unicode="&#xf660;" horiz-adv-x="122" 
d="M28 -7h-1q-12 0 -20.5 9.5t-8.5 22.5q0 15 9 25t24 10q14 0 22 -9t8 -24t-9 -24.5t-24 -9.5z" />
    <glyph glyph-name="uniF661" unicode="&#xf661;" horiz-adv-x="312" 
d="M172 260h-1q-103 0 -103 139q0 109 52 187t126 78q53 0 77.5 -35t24.5 -89q0 -114 -50 -197t-126 -83zM177 292h1q55 0 92 79.5t37 160.5q0 100 -66 100q-53 0 -92.5 -72.5t-39.5 -163.5q0 -41 15 -72.5t53 -31.5z" />
    <glyph glyph-name="uniF662" unicode="&#xf662;" horiz-adv-x="207" 
d="M151 267h-40l67 350h-2l-63 -30l-6 31l81 39h37z" />
    <glyph glyph-name="uniF663" unicode="&#xf663;" horiz-adv-x="285" 
d="M271 267h-248l5 29l83 67q95 76 131 116.5t36 86.5q0 24 -15 42.5t-53 18.5q-44 0 -88 -34l-15 28q55 41 112 41q52 0 77 -29t25 -67q0 -53 -47 -104t-145 -126l-42 -32v-2h191z" />
    <glyph glyph-name="uniF664" unicode="&#xf664;" horiz-adv-x="278" 
d="M121 599l-11 30q43 33 99 33q54 0 77 -25t23 -58q0 -34 -25 -60.5t-65 -39.5v-2q33 -8 50.5 -34t17.5 -55q0 -55 -41.5 -90.5t-113.5 -35.5q-30 0 -56.5 8t-38.5 18l15 31q36 -24 84 -24q53 0 82 27t29 62q0 38 -30 57t-68 19h-27l6 32h29q38 0 74 23.5t36 57.5
q0 55 -67 55q-42 0 -79 -29z" />
    <glyph glyph-name="uniF665" unicode="&#xf665;" horiz-adv-x="303" 
d="M249 267h-39l21 110h-186l6 28l232 252h41l-47 -246h60l-7 -34h-60zM238 411l29 153q4 23 11 48l-2 1q-6 -7 -17.5 -24.5t-18.5 -25.5l-141 -151v-1h139z" />
    <glyph glyph-name="uniF666" unicode="&#xf666;" horiz-adv-x="284" 
d="M332 657l-7 -35h-148l-34 -109q18 2 24 2q36 0 66 -13q29 -13 43 -38t14 -52q0 -71 -48 -111.5t-114 -40.5q-58 0 -91 25l14 31q35 -22 84 -22q45 0 79 32t34 75q0 80 -102 80q-10 0 -27.5 -1.5t-22.5 -1.5l55 179h181z" />
    <glyph glyph-name="uniF667" unicode="&#xf667;" horiz-adv-x="314" 
d="M339 664l-6 -36q-27 0 -50 -6q-120 -29 -164 -157l1 -1q19 27 50.5 44.5t62.5 17.5q50 0 77 -31t27 -79q0 -61 -45 -108.5t-107 -47.5q-56 0 -86.5 35.5t-30.5 94.5q0 67 31.5 125t74.5 91q49 38 108 51q24 5 57 7zM189 293h1q42 0 73.5 36t31.5 85q0 38 -19.5 58.5
t-55.5 20.5q-61 0 -102 -64q-6 -10 -8 -21q-1 -5 -1 -25q0 -41 20.5 -65.5t59.5 -24.5z" />
    <glyph glyph-name="uniF668" unicode="&#xf668;" horiz-adv-x="275" 
d="M103 657h243l-5 -31q-36 -54 -133 -195.5t-112 -163.5h-45q156 229 243 354v2h-197z" />
    <glyph glyph-name="uniF669" unicode="&#xf669;" horiz-adv-x="312" 
d="M242 664h1q45 0 74 -24t29 -67q0 -66 -81 -100v-2q63 -30 63 -92q0 -56 -43 -87.5t-98 -31.5q-58 0 -92 28t-34 71q0 42 27 72.5t70 44.5v2q-45 28 -45 76q0 47 37.5 78.5t91.5 31.5zM187 291h1q42 0 70 23t28 60q0 32 -20 52.5t-66 32.5q-41 -8 -69 -31.5t-28 -63.5
q0 -28 22 -50.5t62 -22.5zM235 633h-1q-34 0 -58 -23t-24 -53q0 -52 70 -70q35 7 59 28.5t24 52.5q0 25 -16 45t-54 20z" />
    <glyph glyph-name="uniF66A" unicode="&#xf66a;" horiz-adv-x="305" 
d="M68 260l6 36q17 -1 44 2q51 8 96 46q49 44 76 112l-2 1q-44 -54 -107 -54q-50 0 -75.5 31.5t-25.5 72.5q0 62 44.5 109.5t105.5 47.5q55 0 83 -35.5t28 -91.5q0 -71 -35 -133t-75 -93q-50 -39 -112 -48q-28 -5 -51 -3zM226 631h-1q-41 0 -72.5 -35t-31.5 -85
q0 -30 18 -52t53 -22q58 0 96 55q6 8 8 16q4 18 4 36q0 39 -18.5 63t-55.5 24z" />
    <glyph glyph-name="uniF66B" unicode="&#xf66b;" horiz-adv-x="122" 
d="M42 196l-33 -4q37 67 59 137l51 6q-36 -83 -77 -139z" />
    <glyph glyph-name="uniF66C" unicode="&#xf66c;" horiz-adv-x="122" 
d="M81 260h-1q-12 0 -20.5 9.5t-8.5 22.5q0 15 9 25t24 10q14 0 22 -9t8 -24t-9 -24.5t-24 -9.5z" />
    <glyph glyph-name="uniF6AE" unicode="&#xf6ae;" horiz-adv-x="270" 
d="M309 732h49q-229 -238 -229 -542q0 -125 72 -270h-40q-39 68 -58 132.5t-19 148.5q0 289 225 531z" />
    <glyph glyph-name="uniF6AF" unicode="&#xf6af;" horiz-adv-x="270" 
d="M5 -80h-49q229 243 229 544q0 125 -72 268h40q39 -67 58 -131t19 -148q0 -285 -225 -533z" />
    <glyph glyph-name="uniF6B0" unicode="&#xf6b0;" horiz-adv-x="270" 
d="M214 -71h-170l152 797h170l-7 -37h-127l-138 -723h127z" />
    <glyph glyph-name="uniF6B1" unicode="&#xf6b1;" horiz-adv-x="270" 
d="M101 726h170l-152 -797h-170l7 37h127l138 723h-127z" />
    <glyph glyph-name="uniF6B2" unicode="&#xf6b2;" horiz-adv-x="270" 
d="M39 311l6 35q50 -1 71 20t27 58q5 28 6 84t7 85q12 67 55.5 100t106.5 33h13l-7 -37h-19q-88 0 -108 -102q-5 -27 -5 -79t-5 -79q-7 -39 -28.5 -65.5t-52.5 -35.5v-2q45 -14 45 -68q0 -50 -28 -117q-29 -68 -29 -98q0 -34 18 -55.5t55 -21.5h19l-7 -37h-13
q-53 0 -83.5 28.5t-30.5 75.5q0 43 29 118t29 103q0 9 -1 15t-6.5 18t-22 18.5t-41.5 5.5z" />
    <glyph glyph-name="uniF6B3" unicode="&#xf6b3;" horiz-adv-x="270" 
d="M261 342l-6 -35q-50 1 -71 -20t-27 -58q-6 -28 -7 -84t-6 -84q-12 -66 -55.5 -99t-106.5 -33h-13l7 37h19q87 0 108 101q5 27 5 79.5t5 78.5q7 37 28.5 64t52.5 36v2q-45 15 -45 69q0 36 29 115q28 74 28 100q0 35 -17.5 56.5t-55.5 21.5h-19l7 37h13q53 0 83.5 -28.5
t30.5 -75.5q0 -50 -29 -122q-29 -70 -29 -101q0 -9 1 -15t6.5 -18t22 -18.5t41.5 -5.5z" />
    <glyph glyph-name="uniF6B4" unicode="&#xf6b4;" horiz-adv-x="225" 
d="M99 0h-59l103 488h41zM193 680h1q18 0 29.5 -13.5t11.5 -32.5q0 -20 -12 -33.5t-31 -13.5t-30.5 13.5t-11.5 33.5q0 19 12 32.5t31 13.5z" />
    <glyph glyph-name="uniF6B5" unicode="&#xf6b5;" horiz-adv-x="370" 
d="M256 492h45q0 -9 -2 -31q-5 -84 -112 -185q-85 -82 -85 -161q0 -37 20.5 -63t70.5 -26q55 0 103 29l14 -39q-62 -33 -121 -33q-40 0 -69 13.5t-42.5 35t-19.5 41.5t-6 40q0 89 106 192q86 83 93 151zM304 680h1q18 0 29.5 -13.5t11.5 -32.5q0 -20 -12 -33.5t-31 -13.5
t-30.5 13.5t-11.5 33.5q0 19 12 32.5t31 13.5z" />
    <glyph glyph-name="uniF6B6" unicode="&#xf6b6;" horiz-adv-x="390" 
d="M275 511l-168 -186l115 -182h-48l-117 184l166 184h52zM425 511l-168 -186l115 -182h-48l-117 184l166 184h52z" />
    <glyph glyph-name="uniF6B7" unicode="&#xf6b7;" horiz-adv-x="390" 
d="M192 330l-115 181h48l117 -184l-167 -184h-51zM342 330l-115 181h48l117 -184l-167 -184h-51z" />
    <glyph glyph-name="uniF6B8" unicode="&#xf6b8;" horiz-adv-x="240" 
d="M275 511l-168 -186l115 -182h-48l-117 184l166 184h52z" />
    <glyph glyph-name="uniF6B9" unicode="&#xf6b9;" horiz-adv-x="240" 
d="M192 330l-115 181h48l117 -184l-167 -184h-51z" />
    <glyph glyph-name="uniF6BA" unicode="&#xf6ba;" horiz-adv-x="300" 
d="M70 379h225l-8 -43h-225z" />
    <glyph glyph-name="uniF6BB" unicode="&#xf6bb;" horiz-adv-x="500" 
d="M57 347h440l-8 -40h-440z" />
    <glyph glyph-name="uniF6BC" unicode="&#xf6bc;" horiz-adv-x="1000" 
d="M57 347h940l-8 -40h-940z" />
    <glyph glyph-name="uniF6BD" unicode="&#xf6bd;" horiz-adv-x="185" 
d="M117 293h-1q-18 0 -29.5 13.5t-11.5 32.5q0 20 12 33.5t31 13.5t30.5 -13.5t11.5 -33.5q0 -19 -12 -32.5t-31 -13.5z" />
    <glyph glyph-name="commaaccent" unicode="&#xf6c3;" horiz-adv-x="400" 
d="M53 -210l-8 27q98 15 98 80q0 29 -26 49l41 12q30 -20 30 -57q0 -49 -40 -77t-95 -34z" />
    <glyph glyph-name="afii10063" unicode="&#xf6c4;" horiz-adv-x="223" 
d="M95 0h-47l92 480h47zM70 631h207l-7 -39h-207z" />
    <glyph glyph-name="afii10192" unicode="&#xf6c6;" 
d="M14 -172l18 38q58 -39 145 -39q166 0 214 212l21 93h-3q-34 -62 -89 -97t-119 -35q-78 0 -119 53.5t-41 117.5q0 133 92.5 227t221.5 94q39 0 85.5 -12t73.5 -26l-73 -390q-30 -158 -102 -221q-62 -55 -173 -55q-100 0 -152 40zM431 264l31 163q-50 25 -113 25
q-111 0 -185.5 -81.5t-74.5 -192.5q0 -23 5 -44.5t18 -44t39.5 -36.5t64.5 -14q69 0 134 70t81 155z" />
    <glyph glyph-name="afii10831" unicode="&#xf6c7;" 
d="M469 480h47l-70 -364q-14 -79 -18 -116h-44l17 104h-2q-31 -49 -82 -82.5t-104 -33.5q-147 0 -147 159q0 31 10 81l49 252h47l-50 -259q-9 -46 -9 -75q0 -116 110 -116q58 0 119.5 55.5t77.5 138.5zM163 631h358l-9 -39h-358z" />
    <glyph glyph-name="afii10832" unicode="&#xf6c8;" horiz-adv-x="836" 
d="M125 480h47l-52 -274q-7 -37 -7 -62q0 -56 23.5 -85.5t78.5 -29.5q59 0 116.5 52.5t73.5 138.5l48 260h47l-55 -284q-6 -33 -6 -56q0 -111 103 -111q57 0 117.5 59.5t75.5 140.5l46 251h47l-67 -358q-3 -15 -8 -122h-44q0 60 4 102h-3q-36 -54 -85 -84t-104 -30
q-57 0 -88.5 32.5t-34.5 93.5q-72 -126 -203 -126q-18 0 -38 5.5t-42 19t-36 42t-14 68.5q0 42 7 81zM169 631h665l-7 -39h-667z" />
    <glyph glyph-name="Acute" unicode="&#xf6c9;" horiz-adv-x="400" 
d="M380 825h81l-144 -115h-45z" />
    <glyph glyph-name="Caron" unicode="&#xf6ca;" horiz-adv-x="400" 
d="M315 710h-36l-86 115h52l55 -78h4l84 78h53z" />
    <glyph glyph-name="Dieresis" unicode="&#xf6cb;" horiz-adv-x="400" 
d="M215 724h-1q-15 0 -26 12.5t-11 28.5q0 15 11.5 28t27.5 13t27 -13t11 -28q0 -16 -11 -28.5t-28 -12.5zM395 724h-1q-15 0 -26 12.5t-11 28.5q0 15 11.5 28t27.5 13t27 -13t11 -28q0 -16 -11 -28.5t-28 -12.5z" />
    <glyph glyph-name="DieresisAcute" unicode="&#xf6cc;" horiz-adv-x="400" 
d="M236 731h-1q-13 0 -22 8.5t-9 24.5q0 15 11 26.5t27 11.5q32 0 32 -32q0 -17 -12 -28t-26 -11zM360 815h65l-126 -105h-41zM445 731h-1q-13 0 -22 8.5t-9 24.5q0 15 11 26.5t27 11.5q32 0 32 -32q0 -17 -12 -28t-26 -11z" />
    <glyph glyph-name="DieresisGrave" unicode="&#xf6cd;" horiz-adv-x="400" 
d="M215 731h-1q-13 0 -22 8.5t-9 24.5q0 15 11 26.5t27 11.5q32 0 32 -32q0 -17 -12 -28t-26 -11zM242 815h65l102 -105h-41zM424 731h-1q-13 0 -22 8.5t-9 24.5q0 15 11 26.5t27 11.5q32 0 32 -32q0 -17 -12 -28t-26 -11z" />
    <glyph glyph-name="Grave" unicode="&#xf6ce;" horiz-adv-x="400" 
d="M178 825h71l64 -115h-35z" />
    <glyph glyph-name="Hungarumlaut" unicode="&#xf6cf;" horiz-adv-x="400" 
d="M320 825h69l-134 -115h-38zM450 825h69l-134 -115h-38z" />
    <glyph glyph-name="Macron" unicode="&#xf6d0;" horiz-adv-x="400" 
d="M194 772h227l-7 -40h-227z" />
    <glyph glyph-name="cyrBreve" unicode="&#xf6d1;" horiz-adv-x="400" 
d="M199 830h42q0 -25 16.5 -43t51.5 -18q67 0 83 61h45q-8 -40 -42 -68.5t-86 -28.5q-58 0 -84.5 27.5t-25.5 69.5z" />
    <glyph glyph-name="cyrFlex" unicode="&#xf6d2;" horiz-adv-x="400" 
d="M429 741h-42q0 25 -16.5 43t-51.5 18q-67 0 -83 -61h-45q8 40 42 68.5t86 28.5q58 0 84.5 -27.5t25.5 -69.5z" />
    <glyph glyph-name="dblGrave" unicode="&#xf6d3;" horiz-adv-x="400" 
d="M149 815h65l102 -105h-41zM272 815h65l102 -105h-41z" />
    <glyph glyph-name="cyrbreve" unicode="&#xf6d4;" horiz-adv-x="400" 
d="M173 684h43q-3 -33 14 -57t48 -24q57 0 86 81h46q-14 -55 -49 -86t-85 -31q-63 0 -86 35.5t-17 81.5z" />
    <glyph glyph-name="cyrflex" unicode="&#xf6d5;" horiz-adv-x="400" 
d="M391 563h-43q3 33 -14 57t-48 24q-57 0 -86 -81h-46q14 55 49 86t85 31q63 0 86 -35.5t17 -81.5z" />
    <glyph glyph-name="dblgrave" unicode="&#xf6d6;" horiz-adv-x="400" 
d="M88 661h69l91 -127h-38zM218 661h69l91 -127h-38z" />
    <glyph glyph-name="dieresisacute" unicode="&#xf6d7;" horiz-adv-x="400" 
d="M184 588h-1q-32 0 -32 33q0 15 11 26.5t27 11.5q32 0 32 -32q0 -17 -11.5 -28t-25.5 -11zM294 682h57l-107 -132h-32zM382 588h-1q-32 0 -32 33q0 15 11 26.5t27 11.5q32 0 32 -32q0 -17 -11.5 -28t-25.5 -11z" />
    <glyph glyph-name="dieresisgrave" unicode="&#xf6d8;" horiz-adv-x="400" 
d="M177 588h-1q-32 0 -32 33q0 15 11 26.5t27 11.5q32 0 32 -32q0 -17 -11.5 -28t-25.5 -11zM209 682h57l82 -132h-32zM375 588h-1q-32 0 -32 33q0 15 11 26.5t27 11.5q32 0 32 -32q0 -17 -11.5 -28t-25.5 -11z" />
    <glyph glyph-name="uniF6DC" unicode="&#xf6dc;" horiz-adv-x="333" 
d="M124 0l115 597h-2l-96 -52l-14 37l122 68h45l-124 -650h-46z" />
    </font>
</defs>
</svg>
